<?xml version="1.0" encoding="UTF-8"?>
<svg id="_레이어_1" data-name="레이어_1" xmlns="http://www.w3.org/2000/svg" version="1.1" viewBox="0 0 200 200">
  <!-- Generator: Adobe Illustrator 29.3.1, SVG Export Plug-In . SVG Version: 2.1.0 Build 151)  -->
  <defs>
    <style>
      .st0 {
        fill: #2c8eff;
      }

      .st1 {
        fill: #edf3f9;
      }
    </style>
  </defs>
  <path class="st1" d="M100,16.7c46.06,0,83.4,37.34,83.4,83.4s-37.34,83.4-83.4,83.4S16.61,146.16,16.61,100.09,53.94,16.7,100,16.7ZM132.46,141.48c9.06,0,14.77-9.74,10.36-17.66-7.65-13.74-23.95-23.23-42.82-23.23s-35.17,9.49-42.82,23.23c-4.41,7.91,1.3,17.66,10.36,17.66h64.91ZM122.14,72.61c0-12.44-10.08-22.52-22.51-22.52s-22.51,10.08-22.51,22.52,10.08,22.51,22.51,22.51,22.51-10.08,22.51-22.51Z"/>
  <path class="st0" d="M142.82,123.82c4.41,7.91-1.3,17.66-10.36,17.66h-64.91c-9.06,0-14.77-9.74-10.36-17.66,7.65-13.74,23.95-23.23,42.82-23.23s35.17,9.49,42.82,23.23Z"/>
  <path class="st0" d="M99.63,50.09c12.44,0,22.51,10.08,22.51,22.52s-10.08,22.51-22.51,22.51-22.51-10.08-22.51-22.51,10.08-22.52,22.51-22.52Z"/>
</svg>