<?xml version="1.0" encoding="UTF-8"?>
<svg id="_레이어_1" data-name="레이어 1" xmlns="http://www.w3.org/2000/svg" xmlns:xlink="http://www.w3.org/1999/xlink" viewBox="0 0 224.38 92.43">
  <defs>
    <style>
      .cls-1, .cls-2 {
        fill: none;
      }

      .cls-3 {
        fill: #6dbcff;
      }

      .cls-4 {
        fill: #444;
      }

      .cls-5 {
        stroke: silver;
      }

      .cls-5, .cls-2 {
        stroke-linecap: round;
        stroke-linejoin: round;
      }

      .cls-5, .cls-6 {
        fill: #333;
      }

      .cls-7 {
        fill: #3a3a3a;
      }

      .cls-8 {
        clip-path: url(#clippath-1);
      }

      .cls-9 {
        fill: #cfe8ff;
      }

      .cls-10 {
        fill: #fff;
      }

      .cls-11 {
        fill: silver;
      }

      .cls-2 {
        stroke: #fff;
      }

      .cls-12 {
        clip-path: url(#clippath);
      }
    </style>
    <clipPath id="clippath">
      <rect class="cls-1" x="-4.14" width="129.07" height="92.43"/>
    </clipPath>
    <clipPath id="clippath-1">
      <rect class="cls-1" x="14.33" y="31.39" width="7.87" height="73.18"/>
    </clipPath>
  </defs>
  <g>
    <path class="cls-6" d="M138.68,27.42l2.34.66-.24,2.32-.28,8.9-2.72-.46h-3.64l-2.74.2-.12-11.22,2.86.26h3.64l.9-.66ZM137.48,37.64v-8.36h-3.04v8.36h3.04ZM149.35,36.08c-.02.94-.76,1.68-1.7,1.68-.5,0-1-.48-1.96-.94v5.68l-3.36.64v-16.56l-.8-1.28,4.36,1.18-.2,4.58v.18c.96-.46,1.56-.96,2.1-.96.86.02,1.56.74,1.56,1.6s-.72,1.58-1.6,1.58c-.5-.02-1.12-.54-2.06-1v2.8c.96-.42,1.5-.88,1.98-.88.94,0,1.68.8,1.68,1.7Z"/>
    <path class="cls-6" d="M159.36,30.14l.16,1.06-5.62.22v2.12l6.74-.64.26,1.08-7.52.84-1.32.1c-.78.06-1.42-.52-1.44-1.3l-.28-6.42h5.82c.16,0,.28-.02.42-.08l1.02-.42c.54-.22,1.08-.08,1.42.38l1.06,1.32h-6.18v1.74h5.46ZM163.03,35.82l2.34.66-.24,2.32-.28,4.5-2.72-.46h-5.64l-2.74.2-.12-6.82,2.86.26h5.64l.9-.66ZM162.13,41.64v-3.96h-5.64v3.96h5.64ZM165.41,34.7l-3.38.64v-8.76l-.8-1.28,4.36,1.2-.18,4.16v4.04Z"/>
    <path class="cls-6" d="M176.52,27.24c0,1.52-.34,2.74-.9,3.7.88.46,1.72.92,2.02,1.26.7.8.58,1.98-.22,2.68-.82.66-1.98.56-2.68-.24-.26-.3-.52-1-.76-1.78-1.46,1.12-3.24,1.62-4.68,1.84-.84.14-1.68.18-2.52.16,4.98-2.2,6.22-4.24,6.12-6.4h-1.3l-3.12.2-.6-1.42h8.64ZM178.04,35.96c3.84,0,5.06,1.94,5.06,3.24v.66c0,1.3-1.22,3.24-5.06,3.24h-.96c-3.84,0-5.08-1.94-5.08-3.24v-.66c0-1.3,1.24-3.24,5.08-3.24h.96ZM179.69,39.54c0-1.02-.66-1.86-1.36-2.2-.24-.1-.5-.16-.76-.16s-.52.06-.76.16c-.72.34-1.36,1.18-1.36,2.2s.64,1.84,1.36,2.18c.24.1.5.16.76.16s.52-.06.76-.16c.7-.34,1.36-1.2,1.36-2.18ZM186.59,31.88c0,.94-.78,1.68-1.72,1.68-.48,0-.98-.48-1.92-.94v2.08l-3.38.64v-8.76l-.8-1.28,4.36,1.18-.18,3.58v1c.94-.46,1.48-.9,1.96-.9.96,0,1.68.78,1.68,1.72Z"/>
    <path class="cls-6" d="M192.22,27.84c2.86,0,3.78,2.9,3.84,4.92h.88v-5.02l-.68-1.26,3.74,1.18-.18,3.26v10.66l-2.88.64v-8.18l-.88.08c-.1,2.02-1,4.82-3.84,4.82h-.74c-2.92,0-3.88-3.02-3.88-5.04v-1.04c0-2.02.96-5.02,3.88-5.02h.74ZM193.08,33.4c0-1.92-.38-3.54-.78-4.16-.14-.18-.3-.28-.44-.28-.16,0-.32.1-.46.28-.42.62-.8,2.24-.8,4.16s.38,3.5.8,4.12c.14.18.3.28.46.28.14,0,.3-.1.44-.28.4-.62.78-2.22.78-4.12ZM200.29,25.3l3.72,1.18-.16,4.56v11.4l-2.88.66v-16.54l-.68-1.26Z"/>
    <path class="cls-6" d="M206.46,29.5v-1.2h7.72v1.2c0,1.76-.28,3.2-.74,4.46h2.22v-6.22l-.68-1.26,3.74,1.18-.18,3.26v10.66l-2.88.64v-6.96l-1.96.16-.34-1.22c-1.02,2.58-2.7,4.08-4.22,5-.88.54-1.8.92-2.74,1.14,4.78-3.1,4.32-9.2,4.32-10.84h-4.26ZM219,25.3l3.72,1.18-.16,4.56v11.4l-2.88.66v-16.54l-.68-1.26Z"/>
    <path class="cls-6" d="M136.44,58.78c-.3-.34-.52-1.1-.68-1.84-1.06,1.68-2.56,2.38-3.84,2.64-.74.16-1.48.2-2.24.14,2.44-1.06,3.48-3.1,3.9-4.86.24-1.02.32-2.1.22-3.24l-.82-1.02,4.06.74c.02,1.84-.22,3.26-.68,4.38.82.2,2.08.56,2.44.98.64.7.6,1.76-.12,2.4-.64.62-1.62.38-2.24-.32ZM141.85,59.96c3.84,0,5.06,1.94,5.06,3.24v.66c0,1.3-1.22,3.24-5.06,3.24h-.98c-3.84,0-5.06-1.94-5.06-3.24v-.66c0-1.3,1.22-3.24,5.06-3.24h.98ZM143.47,63.54c0-1.02-.64-1.86-1.36-2.2-.24-.1-.5-.16-.76-.16-.24,0-.52.06-.74.16-.72.34-1.38,1.18-1.38,2.2s.66,1.84,1.38,2.18c.22.1.5.16.74.16.26,0,.52-.06.76-.16.72-.34,1.36-1.2,1.36-2.18ZM147.17,50.48l-.16,4.56v3.8l-2.88.66v-3.58l-1.14.1v2.56l-2.88.64v-7.48l-.68-1.26,3.74,1.18-.18,2.86v.16h1.14v-4.12l-.68-1.26,3.72,1.18Z"/>
    <path class="cls-6" d="M156.56,58.86c-.42-.38-1.1-1.94-1.58-3.14-1.06,2.16-2.82,3.24-4.3,3.72-.88.3-1.78.46-2.72.48,2.44-1.06,3.58-3.22,4.1-5.06.3-1.1.44-2.24.42-3.44l-.82-1.02,4.26.74c0,1.28-.14,2.34-.44,3.28,1.3.54,3.24,1.32,3.72,1.8.72.72.76,1.92,0,2.64-.74.74-1.9.74-2.64,0ZM166.69,67.14h-10.82l-1.32.1c-.78.06-1.44-.52-1.46-1.3l-.1-5.04,3.84.24v4.8h4.62c.3,0,.58-.08.8-.26l.56-.38c1.12-.74,2.62-.42,3.26.74l.62,1.1ZM165.31,61.9l-3.36.64v-7.78h-.12l-2.92.26-.38-1.46h3.42v-2.98l-.8-1.28,4.36,1.2-.2,4.16v7.24Z"/>
    <path class="cls-6" d="M182.75,56.96c1.06-.74,2.62-.42,3.26.76l.6,1.1h-17.52v-1.2h12.28c.28,0,.56-.08.82-.26l.56-.4ZM177.8,50.16c4.18,0,5.32,1.88,5.32,3v.18c0,1.14-1.14,3-5.32,3h-1.44c-4.16,0-5.34-1.86-5.34-3v-.18c0-1.12,1.18-3,5.34-3h1.44ZM184.17,67.1h-9.34l-1.32.12c-.78.06-1.42-.54-1.44-1.32l-.28-3.2,2.92.26,4.96.04v-1.46h-7.56v-1.2h6.18c.3,0,.64-.08.94-.46l3.92.62-.24,2.58.1,1.1h-8.3v1.72h4.22c.32,0,.6-.08.82-.26l.56-.38c1.08-.76,2.6-.42,3.24.74l.62,1.1ZM180.04,53.26c0-.88-.72-1.64-1.7-1.94-.3-.08-.94-.18-1.26-.18s-.94.1-1.24.18c-1.02.3-1.7,1.06-1.7,1.94s.68,1.64,1.7,1.94c.3.08.92.16,1.24.16s.96-.08,1.26-.16c.98-.3,1.7-1.08,1.7-1.94Z"/>
  </g>
  <path class="cls-6" d="M207.54,53.9c0-1.08-.35-2.04-1-2.76-1.04-1.15-2.73-1.55-4.64-1.11-1.58.37-3.25,1.29-4.68,2.6-1.96,1.78-3.18,3.96-3.35,5.93l-2.52.23c-1.12.1-1.97,1.03-1.97,2.16,0,.54.2,1.05.56,1.45l4.04,4.44c.56.61,1.4.85,2.19.63.8-.22,1.38-.87,1.54-1.68l.52-2.74c1.9-.07,4.07-1.06,5.94-2.77,2.11-1.92,3.37-4.31,3.37-6.38h0Z"/>
  <g class="cls-12">
    <g>
      <g>
        <path class="cls-6" d="M89.94,57.63c2.92-.97,6.12-1.36,9.23-1.26,1.17,0,2.33.19,3.3.78,1.75,1.17,2.04,3.69,1.56,5.73-.1.49-.29,1.07-.68,1.36-.29.29-.68.39-1.07.58-3.11,1.07-6.12,2.04-9.33,2.82"/>
        <path class="cls-4" d="M70.51,16.91l9.43-4.96c1.26-.39,1.26,1.65,1.26,2.92l-1.56,8.46"/>
        <path class="cls-6" d="M86.35,38.58s-.78-1.07-2.53-4.76c-.49-1.07.39-3.89.49-5.05.19-4.96-8.94-10.2-9.14-10.79s-.87-9.43-2.24-10.59-6.51,5.25-8.94,7.19c-18.17,14.19-17.88,21.28-18.08,23.62v.78l21.48,6.61s13.41,3.5,18.27-4.57c.58-.97.78-2.33.78-2.33h0l-.1-.1Z"/>
        <path class="cls-11" d="M68.27,15.65c-.1.19,0,.49.19.49h0c3.01.58,4.86,3.01,5.15.39s-.39-7.97-.87-7.58c-4.57,3.98-4.47,6.71-4.47,6.61v.1Z"/>
        <path class="cls-7" d="M82.75,95.63l-4.37-44.71-23.33-8.16c-3.98,0-3.6-4.67-7-3.21-10.3,4.47-17.3,14.97-16.72,27.02l-1.46,28.48,52.97.58h-.1Z"/>
        <path class="cls-7" d="M73.42,51.8l-28.96-4.57c-2.82-.49-4.76-2.33-3.6-3.6l1.94-2.14c.29-.29.39-.78.29-1.17l-.87-2.72c-.49-1.56,1.94-2.53,4.76-1.75l30.32,12.83c2.04.49.78,2.43.78,2.43-.49.68-2.53.97-4.67.58v.1Z"/>
        <path class="cls-5" d="M45.33,44.32s14.77,3.69,16.13,3.79"/>
        <path class="cls-5" d="M44.17,35.77s33.04,11.95,33.72,12.63"/>
        <line class="cls-2" x1="69.05" y1="49.86" x2="69.05" y2="70.75"/>
        <rect class="cls-10" x="67.3" y="67.16" width="3.6" height="5.73" rx="1.2" ry="1.2"/>
        <path class="cls-10" d="M78.47,30.23h0c-.1-.87-1.56-1.65-3.4-1.94s-3.11.58-3.69,1.85.49,6.12,2.53,6.41,4.08-1.75,4.47-4.67v-1.65h.1Z"/>
        <path class="cls-6" d="M78.38,30.71h0c.1-.78-2.04-2.14-3.5-1.85-2.53.49-1.56,7.09,0,7.29s3.11-1.65,3.4-4.18v-1.26h.1Z"/>
        <path class="cls-10" d="M86.74,40.04l-.39.39c-.87.78-1.36.78-2.14,0l-.39-.39c-.58-.68-.1-1.65.78-1.65h1.46c.87,0,1.26,1.07.68,1.75h0v-.1Z"/>
        <path class="cls-4" d="M90.53,56.86c-.29,0-19.24,3.01-19.63,3.11-.49,0-7-4.76-9.72-7s-5.73-4.37-9.23-5.25c-3.4-.87-7.48-.19-9.91,2.33-2.04,2.14-5.25,10.3.19,16.91,0,0,20.6,12.44,27.41,12.63,2.53,0,27.41-10.59,27.31-11.27,0-.68-6.22-11.37-6.51-11.47h.1Z"/>
        <path class="cls-5" d="M86.35,58.6s5.73,9.52,5.83,10.01"/>
      </g>
      <path class="cls-4" d="M27.06,95.05h-8.84v-52.09c0-6.51,7.19-10.11,9.72-6.41,2.53,3.69.29,2.14.19,6.61l-1.17,51.8.1.1Z"/>
      <rect class="cls-4" x="95.39" y="69.2" width="22.94" height="4.37"/>
      <rect class="cls-6" x="89.94" y="73.57" width="34.89" height="22.16"/>
      <rect class="cls-4" x="117.35" y="21.48" width="5.35" height="38.88"/>
      <rect class="cls-4" x="120.07" y="59.28" width="2.62" height="14.29"/>
      <rect class="cls-4" x="117.35" y="70.56" width="7.58" height="3.01"/>
      <path class="cls-6" d="M34.25,11.27c0-.78-.19-1.36-.68-1.85-.68-.78-1.85-1.07-3.21-.78-1.07.29-2.24.87-3.21,1.75-1.36,1.26-2.14,2.72-2.33,4.08l-1.75.19c-.78,0-1.36.68-1.36,1.46s.1.78.39.97l2.82,3.01c.39.39.97.58,1.46.39s.97-.58,1.07-1.17l.39-1.85c1.26,0,2.82-.78,4.08-1.94,1.46-1.36,2.33-3.01,2.33-4.37h0v.1Z"/>
      <path class="cls-3" d="M45.53.19c0,12.83-10.11,23.23-22.64,23.23S.24,13.02.24.19"/>
      <path class="cls-9" d="M33.57,10.5c.58-.97.68-2.04.49-3.01-.39-1.56-1.75-2.82-3.69-3.3-1.65-.49-3.6-.49-5.64,0-2.72.68-4.96,2.04-6.03,3.69l-2.43-1.07c-1.07-.49-2.33,0-2.92.97-.29.49-.39,1.07-.19,1.65l1.46,6.12c.19.87.87,1.46,1.65,1.65.87.19,1.75-.1,2.24-.78l1.85-2.24c1.75.87,4.28,1.07,6.8.49,2.92-.68,5.25-2.24,6.32-4.08h0l.1-.1Z"/>
      <circle class="cls-3" cx="39.31" cy="17.2" r="3.4"/>
      <circle class="cls-3" cx="47.57" cy="19.73" r="1.75"/>
      <path class="cls-7" d="M23.27,35.18h4.28c2.14,0,3.89,1.75,3.89,3.89v8.65c0,2.14-1.75,3.89-3.89,3.89h-5.35v-15.26c0-.58.49-1.07,1.07-1.07h0v-.1Z"/>
      <path class="cls-7" d="M20.74,50.64h5.44c2.33,0,4.28,1.94,4.28,4.28v16.04c0,2.33-1.94,4.28-4.28,4.28h-5.44v-24.69h0v.1Z"/>
      <path class="cls-7" d="M20.74,73.47h5.44c2.33,0,4.28,1.94,4.28,4.28v16.04c0,2.33-1.94,4.28-4.28,4.28h-5.44v-24.69h0v.1Z"/>
      <g class="cls-8">
        <path class="cls-4" d="M26.77,95.24h-8.84v-52.09c0-6.51,7.19-10.11,9.72-6.41s.29,2.14.19,6.61l-1.17,51.8.1.1Z"/>
      </g>
      <path class="cls-4" d="M22.59,77.56h35.57c1.26,0,2.24.97,2.24,2.24h0c0,1.26-.97,2.24-2.24,2.24H22.59c-.19,0-.39-.19-.39-.39v-3.69c0-.19.19-.39.39-.39h0Z"/>
      <path class="cls-4" d="M55.73,80.96l-13.12,29.06c-.49,1.17-1.85,1.65-3.01,1.17h0c-1.17-.49-1.65-1.85-1.17-3.01l13.12-29.06c0-.19.29-.29.49-.19l3.4,1.56c.19,0,.29.29.19.49h.1Z"/>
    </g>
  </g>
</svg>