<?xml version="1.0" encoding="UTF-8"?>
<svg id="_레이어_1" data-name="레이어 1" xmlns="http://www.w3.org/2000/svg" viewBox="0 0 259.9 92.43">
  <defs>
    <style>
      .cls-1 {
        fill: #6dbcff;
      }

      .cls-2 {
        fill: #444;
      }

      .cls-3 {
        stroke: #fff;
      }

      .cls-3, .cls-4 {
        stroke-linecap: round;
        stroke-linejoin: round;
      }

      .cls-3, .cls-4, .cls-5 {
        fill: #333;
      }

      .cls-4 {
        stroke: silver;
      }

      .cls-6 {
        fill: #3a3a3a;
      }

      .cls-7 {
        fill: #cfe8ff;
      }

      .cls-8 {
        fill: #fff;
      }

      .cls-9 {
        fill: silver;
      }
    </style>
  </defs>
  <g>
    <path class="cls-5" d="M97.04,59.67c3.04-1,6.26-1.43,9.46-1.33,1.17.04,2.4.16,3.37.82,1.8,1.22,2.07,3.79,1.59,5.91-.12.52-.29,1.07-.68,1.43-.31.29-.72.43-1.11.57-3.16,1.09-6.35,2.06-9.58,2.92"/>
    <path class="cls-2" d="M76.99,14.76l9.74-5.11c1.3-.37,1.3,1.68,1.32,3.03l-1.62,8.7"/>
    <path class="cls-5" d="M93.31,37.11s-.78-1.1-2.62-4.86c-.53-1.08.45-3.99.49-5.19.16-5.07-9.2-10.47-9.41-11.1s-.94-9.73-2.33-10.9-6.74,5.4-9.22,7.36c-18.67,14.65-18.37,21.88-18.59,24.25l-.08.83,22.15,6.76s13.75,3.56,18.84-4.72c.64-1.05.78-2.42.78-2.42Z"/>
    <path class="cls-9" d="M74.69,13.44c-.13.2,0,.47.23.49h0c3.11.64,5.03,3.1,5.33.42s-.44-8.2-.94-7.76c-4.68,4.12-4.62,6.85-4.62,6.85Z"/>
    <path class="cls-6" d="M89.67,95.83l-4.47-45.95-24.03-8.38c-4.11,0-3.7-4.82-7.23-3.28-10.59,4.63-17.82,15.44-17.25,27.76l-1.51,29.26,54.48.59Z"/>
    <path class="cls-6" d="M79.97,50.68l-29.75-4.74c-2.92-.47-4.88-2.37-3.74-3.65l1.95-2.19c.31-.35.4-.77.26-1.22l-.9-2.79c-.53-1.63,2.03-2.58,4.89-1.82l31.22,13.23c2.08.55.83,2.54.83,2.54-.51.69-2.63.97-4.76.64Z"/>
    <path class="cls-4" d="M51.13,46.01s15.25,3.79,16.57,3.94"/>
    <path class="cls-4" d="M49.91,34.22s34,12.27,34.69,13.01"/>
    <line class="cls-3" x1="75.51" y1="48.7" x2="75.51" y2="70.22"/>
    <rect class="cls-8" x="73.67" y="66.46" width="3.68" height="5.88" rx="1.18" ry="1.18" transform="translate(151.03 138.8) rotate(-180)"/>
    <path class="cls-8" d="M85.24,28.53h-.01c-.14-.86-1.6-1.7-3.49-1.95s-3.25.63-3.75,1.89.46,6.28,2.62,6.57,4.23-1.85,4.62-4.77c.08-.6.08-1.18.02-1.74Z"/>
    <path class="cls-5" d="M85.09,29.01s0-.01,0-.02c.11-.81-2.09-2.19-3.61-1.89-2.64.51-1.59,7.3.02,7.52s3.19-1.71,3.54-4.3c.06-.45.07-.88.05-1.3Z"/>
    <path class="cls-8" d="M93.75,38.61l-.38.36c-.86.8-1.44.83-2.24-.02l-.36-.38c-.62-.66-.13-1.74.77-1.71h1.54c.9.03,1.32,1.13.66,1.75Z"/>
    <path class="cls-2" d="M97.62,58.93c-.32-.06-19.83,3.09-20.21,3.17-.48.1-7.16-4.87-9.97-7.21-2.81-2.35-5.89-4.53-9.45-5.41-3.55-.88-7.68-.23-10.18,2.44-2.11,2.24-5.37,10.57.23,17.42,0,0,21.17,12.75,28.21,12.96,2.6.08,28.2-10.94,28.11-11.6-.1-.73-6.4-11.71-6.73-11.77Z"/>
    <path class="cls-4" d="M93.32,60.66s5.94,9.83,6.01,10.33"/>
  </g>
  <g>
    <path class="cls-5" d="M153.96,27.42l2.34.66-.24,2.32-.28,8.9-2.72-.46h-3.64l-2.74.2-.12-11.22,2.86.26h3.64l.9-.66ZM152.76,37.64v-8.36h-3.04v8.36h3.04ZM164.62,36.08c-.02.94-.76,1.68-1.7,1.68-.5,0-1-.48-1.96-.94v5.68l-3.36.64v-16.56l-.8-1.28,4.36,1.18-.2,4.58v.18c.96-.46,1.56-.96,2.1-.96.86.02,1.56.74,1.56,1.6s-.72,1.58-1.6,1.58c-.5-.02-1.12-.54-2.06-1v2.8c.96-.42,1.5-.88,1.98-.88.94,0,1.68.8,1.68,1.7Z"/>
    <path class="cls-5" d="M174.64,30.14l.16,1.06-5.62.22v2.12l6.74-.64.26,1.08-7.52.84-1.32.1c-.78.06-1.42-.52-1.44-1.3l-.28-6.42h5.82c.16,0,.28-.02.42-.08l1.02-.42c.54-.22,1.08-.08,1.42.38l1.06,1.32h-6.18v1.74h5.46ZM178.3,35.82l2.34.66-.24,2.32-.28,4.5-2.72-.46h-5.64l-2.74.2-.12-6.82,2.86.26h5.64l.9-.66ZM177.4,41.64v-3.96h-5.64v3.96h5.64ZM180.68,34.7l-3.38.64v-8.76l-.8-1.28,4.36,1.2-.18,4.16v4.04Z"/>
    <path class="cls-5" d="M191.8,27.24c0,1.52-.34,2.74-.9,3.7.88.46,1.72.92,2.02,1.26.7.8.58,1.98-.22,2.68-.82.66-1.98.56-2.68-.24-.26-.3-.52-1-.76-1.78-1.46,1.12-3.24,1.62-4.68,1.84-.84.14-1.68.18-2.52.16,4.98-2.2,6.22-4.24,6.12-6.4h-1.3l-3.12.2-.6-1.42h8.64ZM193.32,35.96c3.84,0,5.06,1.94,5.06,3.24v.66c0,1.3-1.22,3.24-5.06,3.24h-.96c-3.84,0-5.08-1.94-5.08-3.24v-.66c0-1.3,1.24-3.24,5.08-3.24h.96ZM194.96,39.54c0-1.02-.66-1.86-1.36-2.2-.24-.1-.5-.16-.76-.16s-.52.06-.76.16c-.72.34-1.36,1.18-1.36,2.2s.64,1.84,1.36,2.18c.24.1.5.16.76.16s.52-.06.76-.16c.7-.34,1.36-1.2,1.36-2.18ZM201.86,31.88c0,.94-.78,1.68-1.72,1.68-.48,0-.98-.48-1.92-.94v2.08l-3.38.64v-8.76l-.8-1.28,4.36,1.18-.18,3.58v1c.94-.46,1.48-.9,1.96-.9.96,0,1.68.78,1.68,1.72Z"/>
    <path class="cls-5" d="M207.5,27.84c2.86,0,3.78,2.9,3.84,4.92h.88v-5.02l-.68-1.26,3.74,1.18-.18,3.26v10.66l-2.88.64v-8.18l-.88.08c-.1,2.02-1,4.82-3.84,4.82h-.74c-2.92,0-3.88-3.02-3.88-5.04v-1.04c0-2.02.96-5.02,3.88-5.02h.74ZM208.36,33.4c0-1.92-.38-3.54-.78-4.16-.14-.18-.3-.28-.44-.28-.16,0-.32.1-.46.28-.42.62-.8,2.24-.8,4.16s.38,3.5.8,4.12c.14.18.3.28.46.28.14,0,.3-.1.44-.28.4-.62.78-2.22.78-4.12ZM215.56,25.3l3.72,1.18-.16,4.56v11.4l-2.88.66v-16.54l-.68-1.26Z"/>
    <path class="cls-5" d="M221.74,29.5v-1.2h7.72v1.2c0,1.76-.28,3.2-.74,4.46h2.22v-6.22l-.68-1.26,3.74,1.18-.18,3.26v10.66l-2.88.64v-6.96l-1.96.16-.34-1.22c-1.02,2.58-2.7,4.08-4.22,5-.88.54-1.8.92-2.74,1.14,4.78-3.1,4.32-9.2,4.32-10.84h-4.26ZM234.28,25.3l3.72,1.18-.16,4.56v11.4l-2.88.66v-16.54l-.68-1.26Z"/>
    <path class="cls-5" d="M151.72,58.78c-.3-.34-.52-1.1-.68-1.84-1.06,1.68-2.56,2.38-3.84,2.64-.74.16-1.48.2-2.24.14,2.44-1.06,3.48-3.1,3.9-4.86.24-1.02.32-2.1.22-3.24l-.82-1.02,4.06.74c.02,1.84-.22,3.26-.68,4.38.82.2,2.08.56,2.44.98.64.7.6,1.76-.12,2.4-.64.62-1.62.38-2.24-.32ZM157.12,59.96c3.84,0,5.06,1.94,5.06,3.24v.66c0,1.3-1.22,3.24-5.06,3.24h-.98c-3.84,0-5.06-1.94-5.06-3.24v-.66c0-1.3,1.22-3.24,5.06-3.24h.98ZM158.74,63.54c0-1.02-.64-1.86-1.36-2.2-.24-.1-.5-.16-.76-.16-.24,0-.52.06-.74.16-.72.34-1.38,1.18-1.38,2.2s.66,1.84,1.38,2.18c.22.1.5.16.74.16.26,0,.52-.06.76-.16.72-.34,1.36-1.2,1.36-2.18ZM162.44,50.48l-.16,4.56v3.8l-2.88.66v-3.58l-1.14.1v2.56l-2.88.64v-7.48l-.68-1.26,3.74,1.18-.18,2.86v.16h1.14v-4.12l-.68-1.26,3.72,1.18Z"/>
    <path class="cls-5" d="M171.84,58.86c-.42-.38-1.1-1.94-1.58-3.14-1.06,2.16-2.82,3.24-4.3,3.72-.88.3-1.78.46-2.72.48,2.44-1.06,3.58-3.22,4.1-5.06.3-1.1.44-2.24.42-3.44l-.82-1.02,4.26.74c0,1.28-.14,2.34-.44,3.28,1.3.54,3.24,1.32,3.72,1.8.72.72.76,1.92,0,2.64-.74.74-1.9.74-2.64,0ZM181.96,67.14h-10.82l-1.32.1c-.78.06-1.44-.52-1.46-1.3l-.1-5.04,3.84.24v4.8h4.62c.3,0,.58-.08.8-.26l.56-.38c1.12-.74,2.62-.42,3.26.74l.62,1.1ZM180.58,61.9l-3.36.64v-7.78h-.12l-2.92.26-.38-1.46h3.42v-2.98l-.8-1.28,4.36,1.2-.2,4.16v7.24Z"/>
    <path class="cls-5" d="M198.02,56.96c1.06-.74,2.62-.42,3.26.76l.6,1.1h-17.52v-1.2h12.28c.28,0,.56-.08.82-.26l.56-.4ZM193.08,50.16c4.18,0,5.32,1.88,5.32,3v.18c0,1.14-1.14,3-5.32,3h-1.44c-4.16,0-5.34-1.86-5.34-3v-.18c0-1.12,1.18-3,5.34-3h1.44ZM199.44,67.1h-9.34l-1.32.12c-.78.06-1.42-.54-1.44-1.32l-.28-3.2,2.92.26,4.96.04v-1.46h-7.56v-1.2h6.18c.3,0,.64-.08.94-.46l3.92.62-.24,2.58.1,1.1h-8.3v1.72h4.22c.32,0,.6-.08.82-.26l.56-.38c1.08-.76,2.6-.42,3.24.74l.62,1.1ZM195.32,53.26c0-.88-.72-1.64-1.7-1.94-.3-.08-.94-.18-1.26-.18s-.94.1-1.24.18c-1.02.3-1.7,1.06-1.7,1.94s.68,1.64,1.7,1.94c.3.08.92.16,1.24.16s.96-.08,1.26-.16c.98-.3,1.7-1.08,1.7-1.94Z"/>
  </g>
  <path class="cls-5" d="M35.19,93.57h-19.1v-53.56c0-6.69,6.37-11.54,12.82-9.77h0c4.48,1.23,7.54,5.35,7.44,9.99l-1.16,53.34Z"/>
  <rect class="cls-2" x="102.63" y="68.55" width="23.55" height="4.5"/>
  <rect class="cls-5" x="97.04" y="73.05" width="35.95" height="22.77"/>
  <rect class="cls-2" x="125.25" y="19.46" width="5.49" height="40"/>
  <rect class="cls-2" x="128" y="58.35" width="2.75" height="14.74"/>
  <rect class="cls-2" x="125.25" y="69.98" width="7.84" height="3.05"/>
  <path class="cls-5" d="M222.82,53.9c0-1.08-.35-2.04-1-2.76-1.04-1.15-2.73-1.55-4.64-1.11-1.58.37-3.25,1.29-4.68,2.6-1.96,1.78-3.18,3.96-3.35,5.93l-2.52.23c-1.12.1-1.97,1.03-1.97,2.16,0,.54.2,1.05.56,1.45l4.04,4.44c.56.61,1.4.85,2.19.63.8-.22,1.38-.87,1.54-1.68l.52-2.74c1.9-.07,4.07-1.06,5.94-2.77,2.11-1.92,3.37-4.31,3.37-6.38h0Z"/>
  <path class="cls-5" d="M39.72,8.99c0-.77-.25-1.44-.71-1.95-.74-.81-1.94-1.1-3.29-.78-1.12.26-2.3.91-3.32,1.84-1.39,1.26-2.25,2.81-2.37,4.2l-1.79.16c-.79.07-1.39.73-1.39,1.53,0,.38.14.75.4,1.03l2.86,3.15c.39.43.99.6,1.55.44.56-.16.98-.62,1.09-1.19l.37-1.94c1.34-.05,2.88-.75,4.21-1.96,1.5-1.36,2.39-3.05,2.39-4.52h0Z"/>
  <path class="cls-1" d="M51.34-1.86c0,12.88-10.44,23.33-23.33,23.33S4.69,11.02,4.69-1.86"/>
  <path class="cls-7" d="M39.06,9.8c.56-1.02.73-2.1.49-3.12-.38-1.62-1.77-2.88-3.79-3.45-1.68-.48-3.73-.48-5.76,0-2.77.66-5.05,2.07-6.23,3.83l-2.49-1.09c-1.11-.49-2.39-.05-2.97,1.01-.28.51-.36,1.1-.23,1.66l1.49,6.28c.2.86.87,1.53,1.73,1.73.87.2,1.75-.1,2.32-.78l1.92-2.31c1.82.92,4.38,1.12,7.03.49,2.98-.71,5.41-2.3,6.49-4.25h0Z"/>
  <circle class="cls-1" cx="44.92" cy="15.1" r="3.49"/>
  <circle class="cls-1" cx="53.4" cy="17.71" r="1.75"/>
</svg>