<?xml version="1.0" encoding="UTF-8"?>
<svg id="_레이어_1" data-name="레이어_1" xmlns="http://www.w3.org/2000/svg" version="1.1" viewBox="0 0 503.92 134.32">
  <!-- Generator: Adobe Illustrator 29.5.1, SVG Export Plug-In . SVG Version: 2.1.0 Build 141)  -->
  <defs>
    <style>
      .st0 {
        fill: #4180c3;
      }
    </style>
  </defs>
  <path class="st0" d="M37.94,5.14c2.11,1.51,3.95,4.81,4.97,7.17,4.21,9.8,7.21,20.69,11.38,30.57l.47.8c3.44.14,7.12-.67,10.56-.82,8.8-.37,17.63.21,26.37.83l12.39-32.73c1.95-5.02,9.01-10.53,13.45-4.74,1.89,2.46,4.35,9.5,5.53,12.69,8.57,23.2,12.51,47.28,14.68,71.75.74,8.38,3.6,17.61-8.04,19.1H17.06c-7-.55-9.74-5.21-9.29-11.84,1.84-27.02,7.65-64.24,19.43-88.76,2.15-4.48,5.92-7.47,10.74-4.03ZM63.19,68.26c0-8.21-6.66-14.87-14.87-14.87s-14.87,6.66-14.87,14.87,6.66,14.87,14.87,14.87,14.87-6.66,14.87-14.87ZM111.53,68.25c0-8.2-6.65-14.85-14.85-14.85s-14.85,6.65-14.85,14.85,6.65,14.85,14.85,14.85,14.85-6.65,14.85-14.85ZM72.74,82.95v6.94h.95v-6.94c0-.07.69,0,1.28-.45,1.62-1.25,4.46-4.04,2.42-6.08-1.08-1.09-6.79-1.05-7.96-.09-2.59,2.12,1.02,5.9,3.32,6.63Z"/>
  <path class="st0" d="M441.69,50.88c2.13,1.68,4.05,6.7,4.7,9.34,1.6,6.5,1.91,13.52,2.04,20.2.99.17,5.85-15.51,9.44-22.01,1.82-3.3,4.28-9.42,9.08-6.44,5.21,3.25,12.51,28.78,12.72,29.71.44.47.57-.03.63-.47.26-2.02-.15-4.52,0-6.63.44-6.05,2.93-20.22,8.3-23.71,2.81-1.83,7.41-1.73,9.05,1.62,1.55,3.17-.03,12.61-.71,16.34-1.61,8.85-7.29,32.1-14.15,37.58-1.45,1.16-2.53,1.43-4.4.98-3.14-.75-6.11-5.98-7.36-8.73-2.82-6.2-4.45-13.18-5.89-19.82-.38-.07-.49.48-.63.78-3.29,6.83-11.09,24.06-18.38,26.73-2.99,1.09-5.25.23-7.15-2.2-6.35-8.15-8.71-36.69-7.59-46.91.13-1.19,1.1-3.86,1.77-4.85,1.8-2.66,5.96-3.54,8.53-1.51Z"/>
  <path class="st0" d="M266.86,56.96c4.42,6.3,3.73,13.21-.17,19.71-4.13,6.89-12.06,10.55-19.8,11.66.12,4.05,4.83,5.56,8.32,5,4.02-.64,9.24-7.13,13.37-6.42,6.3,1.09,4.67,7.78,2.15,11.68-5.93,9.16-20.13,14.44-29.41,7.26-14.32-11.09-13.7-36.55-2.03-49.26,7.57-8.24,20.81-9.27,27.57.36ZM253.32,63.7c-4.81,0-6.77,7.07-7.4,11.05,3.57.04,11.18-2.45,11.38-6.78.03-.65,1.12-4.26-3.97-4.26Z"/>
  <path class="st0" d="M420.79,50.66c4.81,3.42,7,8.71,6.14,14.74-1.5,10.56-10.57,17.8-20.7,19.67-.72.13-2.41-.26-2.29.55.47,3.2,3.82,4.89,6.79,4.89,5.54,0,9.48-6.57,14.57-6.52,3.67.03,5.41,3.18,4.74,6.59-1.93,9.83-16.23,17.87-25.8,15.25-14.69-4.03-18.4-24.58-15.3-37.42,3.48-14.4,17.07-28.27,31.85-17.76ZM412.28,68.57c2.32-1.99,3.02-3.94,1.26-6.73-.77-1.22-3.07-1.38-4.32-.91-1.95.74-2.58,1.88-2.91,2.45-1.56,2.69-2.61,5.25-2.92,7.86-.04.34.25.64.59.6,3-.33,6.05-1.35,8.3-3.27Z"/>
  <path class="st0" d="M194.97,67.81c-2.79-.28-6.1-1.96-6.18-5.21-.13-5.78,9.12-7.6,13.52-8.11.66-.47.14-17.54,7.24-18.79,9.79-1.72,9.19,12.59,7.03,18.54,3.49-.53,11.15.02,13,3.57,2.97,5.72-13.29,9.3-13.78,10.31-.39,3.19-.82,6.43-1.1,9.62-.12,1.33-1.95,14.97.96,19.15,3.28,4.72,10.38-.14,13.54,2.62.32.28,1.43,2.46,1.52,2.9,2.43,11.89-17.55,11.92-24.49,8.09-5.15-2.84-6.95-8.58-7.31-14.14-.36-5.54-.26-13.04,0-18.64.15-3.27.88-6.63.96-9.92-1.58-.11-3.34.16-4.89,0Z"/>
  <path class="st0" d="M329.39,53.41c1.65,1.58,3.92,6.75,4.75,8.97.92,2.46,6.02,21.48,7.51,21.51,4.12-8.75,6.93-18.47,12.68-26.41,2.28-3.15,5.25-6.31,9.58-4.99,1.96.6,2.85,3.87,2.85,5.7,0,7.34-6.8,22.13-9.93,29.21-2.76,6.26-8.04,20.1-15.9,20.72-.87.07-2.19-.3-2.98-.65-5.85-2.54-11.91-17.02-13.95-22.95-2.45-7.11-6.61-21.02-4.86-28.2,1.15-4.73,6.83-6.21,10.27-2.91Z"/>
  <path class="st0" d="M285.24,55.61c1.84,1.76,3.08,6.23,3.26,8.73.45.57,1.34-1.68,1.58-1.96,4.77-5.83,11.24-8.25,18.61-5.13,8.05,3.41,9.06,15.61-1.4,15.31-3.34-.1-4.92-2.55-8.84-1.89-3.71.62-7.64,6.87-8.35,10.26-1.54,7.29,1.28,24.3-4.75,29-4.24,3.31-7.65.11-9.22-4.04-2.76-7.34-1.51-16.03-1.82-23.73-.27-6.74-3.81-26.4,6.49-27.55,1.46-.16,3.32-.05,4.43,1.02Z"/>
  <path class="st0" d="M381.69,52.21c4.28,5.62,3.13,18.97,3,25.83-.14,6.94.53,21.1-4.55,26.36-1.95,2.02-5.67,2.69-7.54.23-2.27-3.01-3.47-10.79-3.69-14.58-.49-8.72-.73-26.32,2.48-34.14,1.74-4.25,6.51-8.68,10.29-3.71Z"/>
  <path class="st0" d="M377.05,34.13c3.95-.62,9.08.41,6.76,5.5-2.2,4.82-12.19,6.03-12.07-.05.05-2.66,2.81-5.05,5.31-5.44Z"/>
  <path class="st0" d="M170.99,65.56c-.43,6.16,1.22,15.36-7.92,16.09-7.41.59-7.01-6.03-7.07-11.49-.05-4.93.49-10.02-.83-14.91-2.56-9.47-9.26-9.12-12.47-.28-4.19,11.54-3.97,39.56,10.22,44.48,8.6,2.98,14.84-2.31,19.15-9.1.16-.26-.17-.65.66-.46-.16,4.75-.43,9.55-1.4,14.21-.79,3.77-2.41,9.44-5.06,12.29-2.86,3.08-5.87,2.44-8.87,1.45-12.41-5.09-19.07-5.33-26.98-3.59-6.16,1.35-13.8,5.54-19.52,6.04-9.52.83-13.9-2.5-18.76-3.47s-6.37,4.31-3.83,6.77c.02.02.04.04.06.05,5.3,5.13,14.15,8.62,21.86,8.39,6.84-.2,13.25-3.09,18.95-5.5,12.41-5.27,23.1,2.99,23.45,3.15,17.88,8.47,28.51-4.85,32.25-20.86,3.04-12.98,2.81-25.26,1.72-38.35-.83-10.02,3.75-18.85-1.25-23.15-7.25-6.25-13.1-.06-14.38,18.23Z"/>
  <circle class="st0" cx="97.64" cy="69.48" r="12.26"/>
  <circle class="st0" cx="48.93" cy="69.48" r="12.26"/>
</svg>