<?xml version="1.0" encoding="UTF-8"?>
<svg id="_레이어_1" data-name="레이어_1" xmlns="http://www.w3.org/2000/svg" version="1.1" viewBox="0 0 136.32 114.65">
  <!-- Generator: Adobe Illustrator 29.5.1, SVG Export Plug-In . SVG Version: 2.1.0 Build 141)  -->
  <defs>
    <style>
      .st0 {
        fill: #4180c3;
      }
    </style>
  </defs>
  <path class="st0" d="M32.28,4.66c2.11,1.51,3.95,4.81,4.97,7.17,4.21,9.8,7.21,20.69,11.38,30.57l.47.8c3.44.14,7.12-.67,10.56-.82,8.8-.37,17.63.21,26.37.83l12.39-32.73c1.95-5.02,9.01-10.53,13.45-4.74,1.89,2.46,4.35,9.5,5.53,12.69,8.57,23.2,12.51,47.28,14.68,71.75.74,8.38,3.6,17.61-8.04,19.1H11.39c-7-.55-9.74-5.21-9.29-11.84,1.84-27.02,7.65-64.24,19.43-88.76,2.15-4.48,5.92-7.47,10.74-4.03ZM57.53,67.78c0-8.21-6.66-14.87-14.87-14.87s-14.87,6.66-14.87,14.87,6.66,14.87,14.87,14.87,14.87-6.66,14.87-14.87ZM105.87,67.77c0-8.2-6.65-14.85-14.85-14.85s-14.85,6.65-14.85,14.85,6.65,14.85,14.85,14.85,14.85-6.65,14.85-14.85ZM67.08,82.47v6.94h.95v-6.94c0-.07.69,0,1.28-.45,1.62-1.25,4.46-4.04,2.42-6.08-1.08-1.09-6.79-1.05-7.96-.09-2.59,2.12,1.02,5.9,3.32,6.63Z"/>
  <circle class="st0" cx="91.98" cy="69" r="12.26"/>
  <circle class="st0" cx="43.27" cy="69" r="12.26"/>
</svg>