<?xml version="1.0" encoding="UTF-8"?><svg id="_레이어_1" xmlns="http://www.w3.org/2000/svg" viewBox="0 0 216 210.89"><defs><style>.cls-1,.cls-2{fill:#233264;}.cls-2{stroke:#fff;stroke-linecap:round;stroke-linejoin:round;}.cls-3{fill:#fff;}</style></defs><path class="cls-1" d="M33.93,5.01l12.02,38c.66,2.53-.91,5.06-3.38,5.46l-25.34,4.05c-3.13.5-5.7-2.66-4.71-5.79L25.85,4.67c1.31-4.13,6.98-3.89,8.08.34Z"/><path class="cls-1" d="M63.29,4.27l-15.78,36.59c-.91,2.45.4,5.13,2.81,5.77l24.81,6.58c3.07.81,5.94-2.07,5.27-5.29l-9.03-43.17c-.89-4.24-6.56-4.58-8.08-.48Z"/><path class="cls-1" d="M151.79,104.13c52.1,32.67,3.7,85.54-8.03,93.07-11.74,7.53-59.12,30.81-115.29-21.55C-12.58,137.4-1.6,84.05,14.2,41.67c.16-.42.31-.83.47-1.24,7.52-19.48,25.42-27.75,43.44-23.82,10.83,2.36,19.73,19.25,22.28,31.31s-.24,7.07,6.28,18.62c5.55,9.82,7.55,15.99,18.04,24.39,16.72,13.39,26.78,13.97,51.81,9.16"/><ellipse class="cls-3" cx="35" cy="40.68" rx="4.17" ry="3.04" transform="translate(-6.44 74.78) rotate(-88.75)"/><ellipse class="cls-3" cx="60.17" cy="40.41" rx="4.17" ry="3.04" transform="translate(18.45 99.68) rotate(-88.75)"/><path class="cls-1" d="M162.14,142.45s13.19-4.22,19.89-15.02c14.04-22.63,17.31-43.43.33-60.71-16.26-16.54-30.62-11.53-39.84-26.13-3.57-5.66,7.94-17.27,22.66-9.48,22.48,11.89,37.42,20.7,44.92,38.54,12.07,28.71,3.29,51.54-5.58,70.81-12.24,26.59-47.34,34.32-47.34,34.32l-17.46-5.15,22.42-27.18Z"/><path class="cls-2" d="M20.2,55.88h0c5.94-1.54,12,2.03,13.53,7.96l5.04,19.47c1.54,5.94-2.03,12-7.96,13.53h0c-5.94,1.54-12-2.03-13.53-7.96l-2.33-9"/><path class="cls-1" d="M78.88,48.56s19.16,13.91,20.64,29.33c.64,6.65-4.94,11.75-12.11,11.3-3.21-.2-6.52-.84-8.75-2.38l-14.79-15.28"/><path class="cls-2" d="M83.45,68.73l-4.46,19.82c-1.35,5.98-7.29,9.74-13.27,8.39h0c-5.98-1.35-9.74-7.29-8.39-13.27l3.72-16.52"/><path class="cls-2" d="M63.57,61.28s-.29-2.28,3.35-6.13,10.01-5.37,10.01-5.37"/><path class="cls-2" d="M93.11,86.63s-1.54,1.1-5.5-.17-7.13-5.46-7.13-5.46"/><line class="cls-2" x1="62.18" y1="89.21" x2="60.07" y2="93.72"/><line class="cls-2" x1="68.16" y1="91.29" x2="67.58" y2="97.19"/><line class="cls-2" x1="25.59" y1="91.24" x2="26.07" y2="96.19"/><line class="cls-2" x1="31.8" y1="89.99" x2="34.29" y2="95.37"/><line class="cls-2" x1="4.09" y1="84.75" x2="11.63" y2="63.56"/><line class="cls-2" x1="20.21" y1="107.93" x2="21.48" y2="95.37"/><path class="cls-3" d="M44.64,44.48l2.2,2.2c.41.41,1.07.41,1.48,0l2.2-2.2c.66-.66.19-1.79-.74-1.79h-4.41c-.93,0-1.4,1.13-.74,1.79Z"/><path class="cls-2" d="M83.81,178.18s9.21-9.94,13.38-11.97c14.23-6.9,29.44,1.69,33.47.65s-1.3-15.25,3-19.31,18.3-4.13,16.77,23.24c-1.17,20.91-18.6,25.42-18.6,25.42"/><path class="cls-1" d="M114.28,113.87s4.66-8.42,7.51-12.08c7.5-9.66,26.57-7.51,30.05-9.8s-2.76-9.76,0-14.98,15.64-11.1,23.15,8.45-9.44,30.04-9.44,30.04"/></svg>