<?xml version="1.0" encoding="UTF-8"?>
<svg id="_레이어_1" data-name=" 레이어 1" xmlns="http://www.w3.org/2000/svg" xmlns:xlink="http://www.w3.org/1999/xlink" viewBox="0 0 64 64">
  <defs>
    <style>
      .cls-1, .cls-2, .cls-3 {
        fill: none;
      }

      .cls-4, .cls-5, .cls-2, .cls-3, .cls-6 {
        stroke-linecap: round;
        stroke-linejoin: round;
      }

      .cls-4, .cls-5, .cls-2, .cls-7 {
        stroke: #c1c1c1;
      }

      .cls-4, .cls-5, .cls-8 {
        fill: #333;
      }

      .cls-4, .cls-2 {
        stroke-width: .75px;
      }

      .cls-9, .cls-6 {
        fill: #c1c1c1;
      }

      .cls-10, .cls-7 {
        fill: #3a3a3a;
      }

      .cls-11 {
        fill: #fff;
      }

      .cls-12 {
        fill: #2b2c2d;
      }

      .cls-3 {
        stroke: #fff;
      }

      .cls-7 {
        stroke-miterlimit: 10;
        stroke-width: .5px;
      }

      .cls-6 {
        stroke: #333;
      }

      .cls-13 {
        clip-path: url(#clippath);
      }
    </style>
    <clipPath id="clippath">
      <rect class="cls-1" x="3.71" y="9.96" width="56.88" height="54.04"/>
    </clipPath>
  </defs>
  <g class="cls-13">
    <g>
      <g>
        <ellipse class="cls-12" cx="30.1" cy="42.29" rx="20.83" ry="5.26"/>
        <path class="cls-8" d="M20.63,43.16l9.45-2.14,10.86,2.14c9.28,0,16.67,7.74,16.24,17.01l.85,16.5H3.55l.85-16.5c-.43-9.26,6.96-17.01,16.24-17.01Z"/>
        <path class="cls-10" d="M20.33,45.85l9.5,4.16,13.55-4.72c2.32,0,2.09-2.72,4.08-1.85,5.97,2.62,10.05,8.71,9.73,15.66l.85,16.5H3.55l.85-16.5c-.29-6.19,2.92-11.69,7.83-14.67,2.45-1.48,5.02,1.44,8.1,1.44h0Z"/>
        <path class="cls-8" d="M36.79,44.42h-14.2c-6.48,0-11.66-4.93-11.36-10.81l2.2-10.49h32.51l2.2,10.49c.3,5.89-4.87,10.81-11.36,10.81Z"/>
        <ellipse class="cls-8" cx="29.83" cy="28.34" rx="16.47" ry="10.22"/>
        <path class="cls-11" d="M31.35,36.73l-.31.29c-.7.66-1.81.63-2.47-.07l-.29-.31c-.51-.54-.11-1.43.63-1.4l1.89.06c.74.03,1.08.93.55,1.44h0Z"/>
        <path class="cls-11" d="M19.27,28.88c-.14.56-.22,1.16-.22,1.79,0,3.07,1.84,5.55,4.11,5.55s4.11-2.48,4.11-5.55c0-.63-.08-1.23-.22-1.79h-7.77Z"/>
        <path class="cls-8" d="M13.09,25.47l1.14-11.63c.31-1.57,2.03-2.41,3.46-1.69l9.89,6.24"/>
        <path class="cls-8" d="M46.49,25.67l-.79-11.67c-.26-1.58-1.96-2.47-3.41-1.8l-10.06,5.94"/>
        <path class="cls-6" d="M14.56,24.64l.9-9.23c.25-1.24,1.61-1.91,2.74-1.34l7.84,4.94"/>
        <path class="cls-6" d="M45.05,24.8l-.63-9.25c-.21-1.25-1.55-1.96-2.71-1.43l-7.98,4.71"/>
        <path class="cls-8" d="M13.36,27.77c0-5.33,7.37-9.66,16.47-9.66s16.47,4.33,16.47,9.66"/>
        <path class="cls-10" d="M26.04,50.36l-15.51-2.45c-1.6-.26-2.67-1.32-2.04-2.04l1.07-1.24c.18-.2.22-.44.14-.69l-.48-1.57c-.28-.92,1.12-1.46,2.69-1.04l17.55,7.2c1.14.3.35,1.49.35,1.49-.63.73-2.62.53-3.78.34Z"/>
        <path class="cls-10" d="M32.77,50.46l16.79-2.68c1.65-.26,2.75-1.34,2.11-2.05l-1.1-1.23c-.18-.19-.23-.44-.14-.69l.51-1.58c.3-.92-1.15-1.45-2.76-1.03l-17.61,7.46c-1.17.31-.47,1.44-.47,1.44.28.39,1.49.55,2.69.36h0Z"/>
        <path class="cls-5" d="M10.83,44.99s6.38,1.66,7.12,1.74"/>
        <path class="cls-5" d="M11.93,41.32s17.23,7.15,17.55,7.2"/>
        <path class="cls-5" d="M49.04,47.83s-8.6,2.14-9.35,2.22"/>
        <path class="cls-5" d="M49.04,41.18s-19.18,6.92-19.57,7.34"/>
        <line class="cls-3" x1="23.14" y1="49.35" x2="23.14" y2="61.48"/>
        <line class="cls-3" x1="35.29" y1="49.35" x2="35.29" y2="61.48"/>
        <path class="cls-11" d="M23.15,59.36h0c.57,0,1.04.47,1.04,1.04v1.23c0,.57-.47,1.04-1.04,1.04h0c-.57,0-1.04-.47-1.04-1.04v-1.23c0-.57.47-1.04,1.04-1.04Z"/>
        <path class="cls-11" d="M35.29,59.36h0c.57,0,1.04.47,1.04,1.04v1.23c0,.57-.47,1.04-1.04,1.04h0c-.57,0-1.04-.47-1.04-1.04v-1.23c0-.57.47-1.04,1.04-1.04Z"/>
        <ellipse class="cls-11" cx="23.14" cy="29.12" rx="3.92" ry="1.77"/>
        <ellipse class="cls-8" cx="23.27" cy="29.96" rx="2.93" ry="1.29"/>
        <path class="cls-8" d="M20.39,29.77c-.11.42-.17.86-.17,1.33,0,2.28,1.37,4.13,3.06,4.13s3.06-1.85,3.06-4.13c0-.47-.06-.92-.17-1.33h-5.78Z"/>
        <path class="cls-11" d="M32.64,28.88c-.14.56-.22,1.16-.22,1.79,0,3.07,1.84,5.55,4.11,5.55s4.11-2.48,4.11-5.55c0-.63-.08-1.23-.22-1.79h-7.77Z"/>
        <ellipse class="cls-11" cx="36.53" cy="29.12" rx="3.92" ry="1.77"/>
        <ellipse class="cls-8" cx="36.65" cy="29.96" rx="2.93" ry="1.29"/>
        <path class="cls-8" d="M33.76,29.77c-.11.42-.17.86-.17,1.33,0,2.28,1.37,4.13,3.06,4.13s3.06-1.85,3.06-4.13c0-.47-.06-.92-.17-1.33h-5.78Z"/>
      </g>
      <g>
        <path class="cls-7" d="M45.48,57.41v-4.75c0-1.16.19-2.54-.41-3.52-.95-1.55-2.47-2.25-2.71-3.98s-.08-2.6.72-3.35c1.19-1.11,2.39-1,2.64-1,.64,0,.03-2.67,1.95-3.47,2.18-.93,3.29.85,3.85.8.73,0,1.52-1.41,3.56-1.05,2.53.45,2.31,3.25,2.31,3.89s1.79-.54,2.83,1.35c1.21,2.19-.9,4.72-1.29,5.22s-.45.66-.69,1.07c-.56.96-.85,2.05-.85,3.16v5.64"/>
        <path class="cls-9" d="M50.95,40.71c-.08-.53-.32-1.02-.7-1.42-.53-.58-1.45-.64-2.06-.12-.14.11-.26.26-.34.41-.6.97-.31,2.56.6,3.25,1.5,1.08,2.79-.61,2.5-2.11h0Z"/>
        <path class="cls-9" d="M47.59,44.38c-.16-.78-.64-1.44-1.32-1.83-.59-.34-1.34-.15-1.68.44-.07.11-.11.23-.14.35-.33,1.31.78,3.32,2.23,3.08.89-.21,1.14-1.16.92-2.04Z"/>
        <path class="cls-9" d="M55.04,46.64c-.33-.41-1.04-.83-1.38-1.3-.22-.31-.22-.63-.52-.99-.46-.55-1.07-.86-1.7-.86s-1.22.29-1.67.82c-.34.41-.39.78-.64,1.14-.32.43-1,.82-1.31,1.21-1.19,1.36-.29,4.01,1.29,3.95.67-.02,1.25-.34,1.89-.49.63-.12,1.22.04,1.93.27.35.16.72.22,1.09.2,1.48-.13,2.19-2.71,1.06-3.95h-.02Z"/>
        <path class="cls-9" d="M56.78,42.43c-1.01.4-1.56,1.49-1.57,2.56-.02,1.3,1.29,1.97,2.31,1.01.44-.41.74-.94.86-1.52.29-1.16-.37-2.44-1.61-2.05h0Z"/>
        <path class="cls-9" d="M55.52,41.33c.41-1.61-.94-3.31-2.53-2.15-.86.71-1.14,2.19-.59,3.15.97,1.61,2.86.5,3.11-1.02h0v.02Z"/>
      </g>
      <path class="cls-4" d="M58.56,56.73c.17,2.24.24,8.16.24,8.16l-16.55,4.81,1.07-13.25"/>
      <path class="cls-4" d="M44.82,52.28h12.65c1.19,0,2.15.96,2.15,2.15h0c0,1.18-.96,2.15-2.15,2.15h-12.65c-1.19,0-2.15-.96-2.15-2.15h0c0-1.18.96-2.15,2.15-2.15Z"/>
      <line class="cls-2" x1="51.43" y1="56.14" x2="51.43" y2="54.39"/>
      <line class="cls-2" x1="54.75" y1="56.14" x2="54.75" y2="53.41"/>
      <line class="cls-2" x1="48.52" y1="56.15" x2="48.52" y2="53.41"/>
      <line class="cls-2" x1="45.44" y1="56.15" x2="45.44" y2="53.41"/>
    </g>
  </g>
</svg>