<?xml version="1.0" encoding="UTF-8"?>
<svg id="_레이어_1" xmlns="http://www.w3.org/2000/svg" version="1.1" viewBox="0 0 216 210.9">
  <!-- Generator: Adobe Illustrator 29.3.1, SVG Export Plug-In . SVG Version: 2.1.0 Build 151)  -->
  <defs>
    <style>
      .st0 {
        fill: #fff;
      }

      .st1, .st2 {
        stroke: #fff;
        stroke-linecap: round;
        stroke-linejoin: round;
      }

      .st1, .st3 {
        fill: #55a5ff;
      }

      .st2 {
        fill: none;
      }
    </style>
  </defs>
  <path class="st1" d="M33.9,5l12,38c.7,2.5-.9,5.1-3.4,5.5l-25.3,4c-3.1.5-5.7-2.7-4.7-5.8L25.9,4.7c1.3-4.1,7-3.9,8.1.3Z"/>
  <path class="st1" d="M63.3,4.3l-15.8,36.6c-.9,2.5.4,5.1,2.8,5.8l24.8,6.6c3.1.8,5.9-2.1,5.3-5.3l-9-43.2c-.9-4.2-6.6-4.6-8.1-.5Z"/>
  <path class="st3" d="M151.8,104.1c52.1,32.7,3.7,85.5-8,93.1-11.7,7.5-59.1,30.8-115.3-21.6C-12.6,137.4-1.6,84.1,14.2,41.7c.2-.4.3-.8.5-1.2,7.5-19.5,25.4-27.8,43.4-23.8,10.8,2.4,19.7,19.2,22.3,31.3s-.2,7.1,6.3,18.6c5.6,9.8,7.6,16,18,24.4,16.7,13.4,26.8,14,51.8,9.2"/>
  <ellipse class="st0" cx="35" cy="40.7" rx="4.2" ry="3" transform="translate(-6.4 74.8) rotate(-88.8)"/>
  <ellipse class="st0" cx="60.2" cy="40.4" rx="4.2" ry="3" transform="translate(18.5 99.7) rotate(-88.7)"/>
  <path class="st1" d="M162.1,142.4s13.2-4.2,19.9-15c14-22.6,17.3-43.4.3-60.7-16.3-16.5-30.6-11.5-39.8-26.1-3.6-5.7,7.9-17.3,22.7-9.5,22.5,11.9,37.4,20.7,44.9,38.5,12.1,28.7,3.3,51.5-5.6,70.8-12.2,26.6-47.3,34.3-47.3,34.3l-17.5-5.1,22.4-27.2h0Z"/>
  <path class="st1" d="M20.2,55.9h0c5.9-1.5,12,2,13.5,8l5,19.5c1.5,5.9-2,12-8,13.5h0c-5.9,1.5-12-2-13.5-8l-2.3-9"/>
  <path class="st3" d="M78.9,48.6s19.2,13.9,20.6,29.3c.6,6.7-4.9,11.8-12.1,11.3-3.2-.2-6.5-.8-8.8-2.4l-14.8-15.3"/>
  <path class="st1" d="M83.4,68.7l-4.5,19.8c-1.3,6-7.3,9.7-13.3,8.4h0c-6-1.3-9.7-7.3-8.4-13.3l3.7-16.5"/>
  <path class="st2" d="M63.6,61.3s-.3-2.3,3.3-6.1,10-5.4,10-5.4"/>
  <path class="st2" d="M93.1,86.6s-1.5,1.1-5.5-.2-7.1-5.5-7.1-5.5"/>
  <line class="st2" x1="62.2" y1="89.2" x2="60.1" y2="93.7"/>
  <line class="st2" x1="68.2" y1="91.3" x2="67.6" y2="97.2"/>
  <line class="st2" x1="25.6" y1="91.2" x2="26.1" y2="96.2"/>
  <line class="st2" x1="31.8" y1="90" x2="34.3" y2="95.4"/>
  <line class="st2" x1="4.1" y1="84.8" x2="11.6" y2="63.6"/>
  <line class="st2" x1="20.2" y1="107.9" x2="21.5" y2="95.4"/>
  <path class="st0" d="M44.6,44.5l2.2,2.2c.4.4,1.1.4,1.5,0l2.2-2.2c.7-.7.2-1.8-.7-1.8h-4.4c-.9,0-1.4,1.1-.7,1.8h0Z"/>
  <path class="st1" d="M83.8,178.2s9.2-9.9,13.4-12c14.2-6.9,29.4,1.7,33.5.6,4-1-1.3-15.2,3-19.3s18.3-4.1,16.8,23.2c-1.2,20.9-18.6,25.4-18.6,25.4"/>
  <path class="st1" d="M104.5,117.4s4.7-8.4,7.5-12.1c7.5-9.7,26.6-7.5,30-9.8s-2.8-9.8,0-15,15.6-11.1,23.1,8.4-9.4,30-9.4,30"/>
</svg>