<?xml version="1.0" encoding="UTF-8"?>
<svg id="_레이어_1" data-name="레이어_1" xmlns="http://www.w3.org/2000/svg" version="1.1" viewBox="0 0 1316.51 812.48">
  <!-- Generator: Adobe Illustrator 29.5.1, SVG Export Plug-In . SVG Version: 2.1.0 Build 141)  -->
  <defs>
    <style>
      .st0 {
        fill: #edf2f8;
      }
    </style>
  </defs>
  <path class="st0" d="M73.73,25.05c.84,1.21,1.2,3.31,1.29,4.77.39,6.02-.07,12.4.28,18.46l.1.52c1.81.72,3.93.99,5.79,1.56,4.77,1.47,9.36,3.45,13.91,5.43l12.8-15.11c1.99-2.31,6.8-3.91,8.07.02.54,1.67.52,5.89.55,7.82.18,14-2.28,27.59-5.75,41.05-1.19,4.61-1.41,10.08-7.9,8.67l-60.08-21.32c-3.63-1.62-4.21-4.62-2.72-8.07,6.1-14.06,16.24-32.82,27.16-43.67,1.99-1.98,4.57-2.86,6.49-.11ZM75.26,63.5c1.55-4.38-.74-9.19-5.12-10.74s-9.19.74-10.74,5.12.74,9.19,5.12,10.74,9.19-.74,10.74-5.12ZM101.04,72.65c1.55-4.37-.74-9.18-5.11-10.73s-9.18.74-10.73,5.11.74,9.18,5.11,10.73,9.18-.74,10.73-5.11ZM77.57,73.14l-1.31,3.7.5.18,1.31-3.7s.37.13.77,0c1.1-.36,3.14-1.31,2.44-2.79-.37-.78-3.43-1.84-4.23-1.56-1.78.64-.57,3.34.51,4.16Z"/>
  <circle class="st0" cx="93.4" cy="70.67" r="6.94"/>
  <circle class="st0" cx="67.42" cy="61.45" r="6.94"/>
  <path class="st0" d="M220.9,25.05c.84,1.21,1.2,3.31,1.29,4.77.39,6.02-.07,12.4.28,18.46l.1.52c1.81.72,3.93.99,5.79,1.56,4.77,1.47,9.36,3.45,13.91,5.43l12.8-15.11c1.99-2.31,6.8-3.91,8.07.02.54,1.67.52,5.89.55,7.82.18,14-2.28,27.59-5.75,41.05-1.19,4.61-1.41,10.08-7.9,8.67l-60.08-21.32c-3.63-1.62-4.21-4.62-2.72-8.07,6.1-14.06,16.24-32.82,27.16-43.67,1.99-1.98,4.57-2.86,6.49-.11ZM222.43,63.5c1.55-4.38-.74-9.19-5.12-10.74s-9.19.74-10.74,5.12.74,9.19,5.12,10.74,9.19-.74,10.74-5.12ZM248.22,72.65c1.55-4.37-.74-9.18-5.11-10.73s-9.18.74-10.73,5.11.74,9.18,5.11,10.73,9.18-.74,10.73-5.11ZM224.74,73.14l-1.31,3.7.5.18,1.31-3.7s.37.13.77,0c1.1-.36,3.14-1.31,2.44-2.79-.37-.78-3.43-1.84-4.23-1.56-1.78.64-.57,3.34.51,4.16Z"/>
  <circle class="st0" cx="240.57" cy="70.67" r="6.94"/>
  <circle class="st0" cx="214.59" cy="61.45" r="6.94"/>
  <path class="st0" d="M368.08,25.05c.84,1.21,1.2,3.31,1.29,4.77.39,6.02-.07,12.4.28,18.46l.1.52c1.81.72,3.93.99,5.79,1.56,4.77,1.47,9.36,3.45,13.91,5.43l12.8-15.11c1.99-2.31,6.8-3.91,8.07.02.54,1.67.52,5.89.55,7.82.18,14-2.28,27.59-5.75,41.05-1.19,4.61-1.41,10.08-7.9,8.67l-60.08-21.32c-3.63-1.62-4.21-4.62-2.72-8.07,6.1-14.06,16.24-32.82,27.16-43.67,1.99-1.98,4.57-2.86,6.49-.11ZM369.6,63.5c1.55-4.38-.74-9.19-5.12-10.74s-9.19.74-10.74,5.12.74,9.19,5.12,10.74,9.19-.74,10.74-5.12ZM395.39,72.65c1.55-4.37-.74-9.18-5.11-10.73s-9.18.74-10.73,5.11c-1.55,4.37.74,9.18,5.11,10.73,4.37,1.55,9.18-.74,10.73-5.11ZM371.92,73.14l-1.31,3.7.5.18,1.31-3.7s.37.13.77,0c1.1-.36,3.14-1.31,2.44-2.79-.37-.78-3.43-1.84-4.23-1.56-1.78.64-.57,3.34.51,4.16Z"/>
  <circle class="st0" cx="387.75" cy="70.67" r="6.94"/>
  <circle class="st0" cx="361.77" cy="61.45" r="6.94"/>
  <path class="st0" d="M515.25,25.05c.84,1.21,1.2,3.31,1.29,4.77.39,6.02-.07,12.4.28,18.46l.1.52c1.81.72,3.93.99,5.79,1.56,4.77,1.47,9.36,3.45,13.91,5.43l12.8-15.11c1.99-2.31,6.8-3.91,8.07.02.54,1.67.52,5.89.55,7.82.18,14-2.28,27.59-5.75,41.05-1.19,4.61-1.41,10.08-7.9,8.67l-60.08-21.32c-3.63-1.62-4.21-4.62-2.72-8.07,6.1-14.06,16.24-32.82,27.16-43.67,1.99-1.98,4.57-2.86,6.49-.11ZM516.78,63.5c1.55-4.38-.74-9.19-5.12-10.74s-9.19.74-10.74,5.12.74,9.19,5.12,10.74,9.19-.74,10.74-5.12ZM542.56,72.65c1.55-4.37-.74-9.18-5.11-10.73s-9.18.74-10.73,5.11c-1.55,4.37.74,9.18,5.11,10.73,4.37,1.55,9.18-.74,10.73-5.11ZM519.09,73.14l-1.31,3.7.5.18,1.31-3.7s.37.13.77,0c1.1-.36,3.14-1.31,2.44-2.79-.37-.78-3.43-1.84-4.23-1.56-1.78.64-.57,3.34.51,4.16Z"/>
  <circle class="st0" cx="534.92" cy="70.67" r="6.94"/>
  <circle class="st0" cx="508.94" cy="61.45" r="6.94"/>
  <path class="st0" d="M662.42,25.05c.84,1.21,1.2,3.31,1.29,4.77.39,6.02-.07,12.4.28,18.46l.1.52c1.81.72,3.93.99,5.79,1.56,4.77,1.47,9.36,3.45,13.91,5.43l12.8-15.11c1.99-2.31,6.8-3.91,8.07.02.54,1.67.52,5.89.55,7.82.18,14-2.28,27.59-5.75,41.05-1.19,4.61-1.41,10.08-7.9,8.67l-60.08-21.32c-3.63-1.62-4.21-4.62-2.72-8.07,6.1-14.06,16.24-32.82,27.16-43.67,1.99-1.98,4.57-2.86,6.49-.11ZM663.95,63.5c1.55-4.38-.74-9.19-5.12-10.74s-9.19.74-10.74,5.12.74,9.19,5.12,10.74,9.19-.74,10.74-5.12ZM689.74,72.65c1.55-4.37-.74-9.18-5.11-10.73s-9.18.74-10.73,5.11c-1.55,4.37.74,9.18,5.11,10.73,4.37,1.55,9.18-.74,10.73-5.11ZM666.26,73.14l-1.31,3.7.5.18,1.31-3.7s.37.13.77,0c1.1-.36,3.14-1.31,2.44-2.79-.37-.78-3.43-1.84-4.23-1.56-1.78.64-.57,3.34.51,4.16Z"/>
  <circle class="st0" cx="682.09" cy="70.67" r="6.94"/>
  <circle class="st0" cx="656.11" cy="61.45" r="6.94"/>
  <path class="st0" d="M809.6,25.05c.84,1.21,1.2,3.31,1.29,4.77.39,6.02-.07,12.4.28,18.46l.1.52c1.81.72,3.93.99,5.79,1.56,4.77,1.47,9.36,3.45,13.91,5.43l12.8-15.11c1.99-2.31,6.8-3.91,8.07.02.54,1.67.52,5.89.55,7.82.18,14-2.28,27.59-5.75,41.05-1.19,4.61-1.41,10.08-7.9,8.67l-60.08-21.32c-3.63-1.62-4.21-4.62-2.72-8.07,6.1-14.06,16.24-32.82,27.16-43.67,1.99-1.98,4.57-2.86,6.49-.11ZM811.12,63.5c1.55-4.38-.74-9.19-5.12-10.74s-9.19.74-10.74,5.12.74,9.19,5.12,10.74,9.19-.74,10.74-5.12ZM836.91,72.65c1.55-4.37-.74-9.18-5.11-10.73s-9.18.74-10.73,5.11c-1.55,4.37.74,9.18,5.11,10.73,4.37,1.55,9.18-.74,10.73-5.11ZM813.44,73.14l-1.31,3.7.5.18,1.31-3.7s.37.13.77,0c1.1-.36,3.14-1.31,2.44-2.79-.37-.78-3.43-1.84-4.23-1.56-1.78.64-.57,3.34.51,4.16Z"/>
  <circle class="st0" cx="829.27" cy="70.67" r="6.94"/>
  <circle class="st0" cx="803.29" cy="61.45" r="6.94"/>
  <path class="st0" d="M956.77,25.05c.84,1.21,1.2,3.31,1.29,4.77.39,6.02-.07,12.4.28,18.46l.1.52c1.81.72,3.93.99,5.79,1.56,4.77,1.47,9.36,3.45,13.91,5.43l12.8-15.11c1.99-2.31,6.8-3.91,8.07.02.54,1.67.52,5.89.55,7.82.18,14-2.28,27.59-5.75,41.05-1.19,4.61-1.41,10.08-7.9,8.67l-60.08-21.32c-3.63-1.62-4.21-4.62-2.72-8.07,6.1-14.06,16.24-32.82,27.16-43.67,1.99-1.98,4.57-2.86,6.49-.11ZM958.3,63.5c1.55-4.38-.74-9.19-5.12-10.74s-9.19.74-10.74,5.12.74,9.19,5.12,10.74,9.19-.74,10.74-5.12ZM984.08,72.65c1.55-4.37-.74-9.18-5.11-10.73s-9.18.74-10.73,5.11c-1.55,4.37.74,9.18,5.11,10.73,4.37,1.55,9.18-.74,10.73-5.11ZM960.61,73.14l-1.31,3.7.5.18,1.31-3.7s.37.13.77,0c1.1-.36,3.14-1.31,2.44-2.79-.37-.78-3.43-1.84-4.23-1.56-1.78.64-.57,3.34.51,4.16Z"/>
  <circle class="st0" cx="976.44" cy="70.67" r="6.94"/>
  <circle class="st0" cx="950.46" cy="61.45" r="6.94"/>
  <path class="st0" d="M1103.94,25.05c.84,1.21,1.2,3.31,1.29,4.77.39,6.02-.07,12.4.28,18.46l.1.52c1.81.72,3.93.99,5.79,1.56,4.77,1.47,9.36,3.45,13.91,5.43l12.8-15.11c1.99-2.31,6.8-3.91,8.07.02.54,1.67.52,5.89.55,7.82.18,14-2.28,27.59-5.75,41.05-1.19,4.61-1.41,10.08-7.9,8.67l-60.08-21.32c-3.63-1.62-4.21-4.62-2.72-8.07,6.1-14.06,16.24-32.82,27.16-43.67,1.99-1.98,4.57-2.86,6.49-.11ZM1105.47,63.5c1.55-4.38-.74-9.19-5.12-10.74s-9.19.74-10.74,5.12.74,9.19,5.12,10.74,9.19-.74,10.74-5.12ZM1131.26,72.65c1.55-4.37-.74-9.18-5.11-10.73s-9.18.74-10.73,5.11c-1.55,4.37.74,9.18,5.11,10.73,4.37,1.55,9.18-.74,10.73-5.11ZM1107.78,73.14l-1.31,3.7.5.18,1.31-3.7s.37.13.77,0c1.1-.36,3.14-1.31,2.44-2.79-.37-.78-3.43-1.84-4.23-1.56-1.78.64-.57,3.34.51,4.16Z"/>
  <circle class="st0" cx="1123.61" cy="70.67" r="6.94"/>
  <circle class="st0" cx="1097.63" cy="61.45" r="6.94"/>
  <path class="st0" d="M1251.12,25.05c.84,1.21,1.2,3.31,1.29,4.77.39,6.02-.07,12.4.28,18.46l.1.52c1.81.72,3.93.99,5.79,1.56,4.77,1.47,9.36,3.45,13.91,5.43l12.8-15.11c1.99-2.31,6.8-3.91,8.07.02.54,1.67.52,5.89.55,7.82.18,14-2.28,27.59-5.75,41.05-1.19,4.61-1.41,10.08-7.9,8.67l-60.08-21.32c-3.63-1.62-4.21-4.62-2.72-8.07,6.1-14.06,16.24-32.82,27.16-43.67,1.99-1.98,4.57-2.86,6.49-.11ZM1252.64,63.5c1.55-4.38-.74-9.19-5.12-10.74s-9.19.74-10.74,5.12.74,9.19,5.12,10.74,9.19-.74,10.74-5.12ZM1278.43,72.65c1.55-4.37-.74-9.18-5.11-10.73s-9.18.74-10.73,5.11c-1.55,4.37.74,9.18,5.11,10.73,4.37,1.55,9.18-.74,10.73-5.11ZM1254.96,73.14l-1.31,3.7.5.18,1.31-3.7s.37.13.77,0c1.1-.36,3.14-1.31,2.44-2.79-.37-.78-3.43-1.84-4.23-1.56-1.78.64-.57,3.34.51,4.16Z"/>
  <circle class="st0" cx="1270.79" cy="70.67" r="6.94"/>
  <circle class="st0" cx="1244.81" cy="61.45" r="6.94"/>
  <path class="st0" d="M123.17,141.03l-4.15,2.6c-3.07,1.93-3.36,6.29-.56,8.6l3.78,3.12c4.25,3.51,8.95,6.49,13.99,8.85l.79.37c3.02,1.42,6.52-.65,6.74-3.98l1.43-21.97c.22-3.33-2.99-5.83-6.16-4.82l-.83.26c-5.3,1.69-10.35,4.03-15.02,6.96Z"/>
  <path class="st0" d="M133.7,151.44c5.33-.58,10.71-.86,16.06-.37,4.78.44,9.31,1.57,13.66,3.61,4.1,1.92,8.03,4.21,11.58,7.02,1.35,1.07,2.62,2.2,3.72,3.38.5.54.97,1.09,1.41,1.67.19.25.38.51.56.77.08.12.17.25.25.38.03.05.07.11.1.16.15.24-.06-.11.02.04.28.51.53,1.03.73,1.58.02.06.04.12.06.19.06.18-.07-.37-.02-.06.02.12.05.23.07.35s.03.23.04.34c.03.23-.03.29,0,0-.03.19-.06.41-.07.6.02-.25.09-.28,0-.05-.03.09-.09.17-.12.26.13-.38.11-.16-.02-.01-.05.05-.28.29-.08.1.25-.23-.7.44-.15.12-.7.4-1.13,1.17-.78,1.97.29.68,1.26,1.19,1.97.78,5.77-3.3-.84-10.52-3.77-13.19-3.38-3.08-7.29-5.57-11.33-7.69-2.34-1.23-4.74-2.39-7.25-3.24s-4.99-1.4-7.55-1.77c-6.46-.93-13.07-.64-19.54.07-1.92.21-1.48,3.18.44,2.97h0Z"/>
  <path class="st0" d="M184.76,168.23c-1.16-.34-3.1,1.07-3.1,1.07-.72.15-4.35,5.19-5.06,7.13-1.56,4.3-.93,7.33-.96,8.47,0,.12.09.21.2.21,1.26,0,6.96.86,9.47-6.04.6-1.65-.17-4.02-.17-4.02.2-.27.53.6,2.05,1.98,1.85,1.68,8.35,2.27,10.73,2.11.39-.03.64-.43.49-.8-.77-1.91-3.73-7.19-13.67-10.12Z"/>
  <path class="st0" d="M154.05,165.51c-.68-.08-1.23-.62-1.31-1.33l-1.63-15.52,12.01-10.7c.62-.55,1.57-.5,2.12.12.55.62.5,1.57-.12,2.12l-10.86,9.68,1.47,13.99c.09.82-.51,1.56-1.34,1.65-.12.01-.23.01-.34,0Z"/>
  <path class="st0" d="M165.07,166.88c-.64-.08-1.18-.56-1.3-1.23l-2.3-13.17,11.62-8.24c.68-.48,1.61-.32,2.09.36.48.68.32,1.61-.36,2.09l-10.08,7.14,1.97,11.31c.14.82-.4,1.59-1.22,1.74-.15.03-.3.03-.44.01Z"/>
  <path class="st0" d="M173.5,171.04c-.77-.09-1.35-.77-1.31-1.56l.52-10.65,10.47-4.37c.77-.32,1.64.04,1.96.81.32.77-.04,1.64-.81,1.96l-8.72,3.64-.43,8.76c-.04.83-.74,1.47-1.57,1.42-.04,0-.07,0-.11,0Z"/>
  <path class="st0" d="M279.53,141.03l-4.15,2.6c-3.07,1.93-3.36,6.29-.56,8.6l3.78,3.12c4.25,3.51,8.95,6.49,13.99,8.85l.79.37c3.02,1.42,6.52-.65,6.74-3.98l1.43-21.97c.22-3.33-2.99-5.83-6.16-4.82l-.83.26c-5.3,1.69-10.35,4.03-15.02,6.96Z"/>
  <path class="st0" d="M290.06,151.44c5.33-.58,10.71-.86,16.06-.37,4.78.44,9.31,1.57,13.66,3.61,4.1,1.92,8.03,4.21,11.58,7.02,1.35,1.07,2.62,2.2,3.72,3.38.5.54.97,1.09,1.41,1.67.19.25.38.51.56.77.08.12.17.25.25.38.03.05.07.11.1.16.15.24-.06-.11.02.04.28.51.53,1.03.73,1.58.02.06.04.12.06.19.06.18-.07-.37-.02-.06.02.12.05.23.07.35s.03.23.04.34c.03.23-.03.29,0,0-.03.19-.06.41-.07.6.02-.25.09-.28,0-.05-.03.09-.09.17-.12.26.13-.38.11-.16-.02-.01-.05.05-.28.29-.08.1.25-.23-.7.44-.15.12-.7.4-1.13,1.17-.78,1.97.29.68,1.26,1.19,1.97.78,5.77-3.3-.84-10.52-3.77-13.19-3.38-3.08-7.29-5.57-11.33-7.69-2.34-1.23-4.74-2.39-7.25-3.24s-4.99-1.4-7.55-1.77c-6.46-.93-13.07-.64-19.54.07-1.92.21-1.48,3.18.44,2.97h0Z"/>
  <path class="st0" d="M341.11,168.23c-1.16-.34-3.1,1.07-3.1,1.07-.72.15-4.35,5.19-5.06,7.13-1.56,4.3-.93,7.33-.96,8.47,0,.12.09.21.2.21,1.26,0,6.96.86,9.47-6.04.6-1.65-.17-4.02-.17-4.02.2-.27.53.6,2.05,1.98,1.85,1.68,8.35,2.27,10.73,2.11.39-.03.64-.43.49-.8-.77-1.91-3.73-7.19-13.67-10.12Z"/>
  <path class="st0" d="M310.41,165.51c-.68-.08-1.23-.62-1.31-1.33l-1.63-15.52,12.01-10.7c.62-.55,1.57-.5,2.12.12.55.62.5,1.57-.12,2.12l-10.86,9.68,1.47,13.99c.09.82-.51,1.56-1.34,1.65-.12.01-.23.01-.34,0Z"/>
  <path class="st0" d="M321.43,166.88c-.64-.08-1.18-.56-1.3-1.23l-2.3-13.17,11.62-8.24c.68-.48,1.61-.32,2.09.36.48.68.32,1.61-.36,2.09l-10.08,7.14,1.97,11.31c.14.82-.4,1.59-1.22,1.74-.15.03-.3.03-.44.01Z"/>
  <path class="st0" d="M329.86,171.04c-.77-.09-1.35-.77-1.31-1.56l.52-10.65,10.47-4.37c.77-.32,1.64.04,1.96.81.32.77-.04,1.64-.81,1.96l-8.72,3.64-.43,8.76c-.04.83-.74,1.47-1.57,1.42-.04,0-.07,0-.11,0Z"/>
  <path class="st0" d="M433.65,141.03l-4.15,2.6c-3.07,1.93-3.36,6.29-.56,8.6l3.78,3.12c4.25,3.51,8.95,6.49,13.99,8.85l.79.37c3.02,1.42,6.52-.65,6.74-3.98l1.43-21.97c.22-3.33-2.99-5.83-6.16-4.82l-.83.26c-5.3,1.69-10.35,4.03-15.02,6.96Z"/>
  <path class="st0" d="M444.17,151.44c5.33-.58,10.71-.86,16.06-.37,4.78.44,9.31,1.57,13.66,3.61,4.1,1.92,8.03,4.21,11.58,7.02,1.35,1.07,2.62,2.2,3.72,3.38.5.54.97,1.09,1.41,1.67.19.25.38.51.56.77.08.12.17.25.25.38.03.05.07.11.1.16.15.24-.06-.11.02.04.28.51.53,1.03.73,1.58.02.06.04.12.06.19.06.18-.07-.37-.02-.06.02.12.05.23.07.35s.03.23.04.34c.03.23-.03.29,0,0-.03.19-.06.41-.07.6.02-.25.09-.28,0-.05-.03.09-.09.17-.12.26.13-.38.11-.16-.02-.01-.05.05-.28.29-.08.1.25-.23-.7.44-.15.12-.7.4-1.13,1.17-.78,1.97.29.68,1.26,1.19,1.97.78,5.77-3.3-.84-10.52-3.77-13.19-3.38-3.08-7.29-5.57-11.33-7.69-2.34-1.23-4.74-2.39-7.25-3.24s-4.99-1.4-7.55-1.77c-6.46-.93-13.07-.64-19.54.07-1.92.21-1.48,3.18.44,2.97h0Z"/>
  <path class="st0" d="M495.23,168.23c-1.16-.34-3.1,1.07-3.1,1.07-.72.15-4.35,5.19-5.06,7.13-1.56,4.3-.93,7.33-.96,8.47,0,.12.09.21.2.21,1.26,0,6.96.86,9.47-6.04.6-1.65-.17-4.02-.17-4.02.2-.27.53.6,2.05,1.98,1.85,1.68,8.35,2.27,10.73,2.11.39-.03.64-.43.49-.8-.77-1.91-3.73-7.19-13.67-10.12Z"/>
  <path class="st0" d="M464.53,165.51c-.68-.08-1.23-.62-1.31-1.33l-1.63-15.52,12.01-10.7c.62-.55,1.57-.5,2.12.12.55.62.5,1.57-.12,2.12l-10.86,9.68,1.47,13.99c.09.82-.51,1.56-1.34,1.65-.12.01-.23.01-.34,0Z"/>
  <path class="st0" d="M475.55,166.88c-.64-.08-1.18-.56-1.3-1.23l-2.3-13.17,11.62-8.24c.68-.48,1.61-.32,2.09.36.48.68.32,1.61-.36,2.09l-10.08,7.14,1.97,11.31c.14.82-.4,1.59-1.22,1.74-.15.03-.3.03-.44.01Z"/>
  <path class="st0" d="M483.98,171.04c-.77-.09-1.35-.77-1.31-1.56l.52-10.65,10.47-4.37c.77-.32,1.64.04,1.96.81.32.77-.04,1.64-.81,1.96l-8.72,3.64-.43,8.76c-.04.83-.74,1.47-1.57,1.42-.04,0-.07,0-.11,0Z"/>
  <path class="st0" d="M587.76,141.03l-4.15,2.6c-3.07,1.93-3.36,6.29-.56,8.6l3.78,3.12c4.25,3.51,8.95,6.49,13.99,8.85l.79.37c3.02,1.42,6.52-.65,6.74-3.98l1.43-21.97c.22-3.33-2.99-5.83-6.16-4.82l-.83.26c-5.3,1.69-10.35,4.03-15.02,6.96Z"/>
  <path class="st0" d="M598.29,151.44c5.33-.58,10.71-.86,16.06-.37,4.78.44,9.31,1.57,13.66,3.61,4.1,1.92,8.03,4.21,11.58,7.02,1.35,1.07,2.62,2.2,3.72,3.38.5.54.97,1.09,1.41,1.67.19.25.38.51.56.77.08.12.17.25.25.38.03.05.07.11.1.16.15.24-.06-.11.02.04.28.51.53,1.03.73,1.58.02.06.04.12.06.19.06.18-.07-.37-.02-.06.02.12.05.23.07.35s.03.23.04.34c.03.23-.03.29,0,0-.03.19-.06.41-.07.6.02-.25.09-.28,0-.05-.03.09-.09.17-.12.26.13-.38.11-.16-.02-.01-.05.05-.28.29-.08.1.25-.23-.7.44-.15.12-.7.4-1.13,1.17-.78,1.97.29.68,1.26,1.19,1.97.78,5.77-3.3-.84-10.52-3.77-13.19-3.38-3.08-7.29-5.57-11.33-7.69-2.34-1.23-4.74-2.39-7.25-3.24s-4.99-1.4-7.55-1.77c-6.46-.93-13.07-.64-19.54.07-1.92.21-1.48,3.18.44,2.97h0Z"/>
  <path class="st0" d="M649.34,168.23c-1.16-.34-3.1,1.07-3.1,1.07-.72.15-4.35,5.19-5.06,7.13-1.56,4.3-.93,7.33-.96,8.47,0,.12.09.21.2.21,1.26,0,6.96.86,9.47-6.04.6-1.65-.17-4.02-.17-4.02.2-.27.53.6,2.05,1.98,1.85,1.68,8.35,2.27,10.73,2.11.39-.03.64-.43.49-.8-.77-1.91-3.73-7.19-13.67-10.12Z"/>
  <path class="st0" d="M618.64,165.51c-.68-.08-1.23-.62-1.31-1.33l-1.63-15.52,12.01-10.7c.62-.55,1.57-.5,2.12.12.55.62.5,1.57-.12,2.12l-10.86,9.68,1.47,13.99c.09.82-.51,1.56-1.34,1.65-.12.01-.23.01-.34,0Z"/>
  <path class="st0" d="M629.66,166.88c-.64-.08-1.18-.56-1.3-1.23l-2.3-13.17,11.62-8.24c.68-.48,1.61-.32,2.09.36.48.68.32,1.61-.36,2.09l-10.08,7.14,1.97,11.31c.14.82-.4,1.59-1.22,1.74-.15.03-.3.03-.44.01Z"/>
  <path class="st0" d="M638.09,171.04c-.77-.09-1.35-.77-1.31-1.56l.52-10.65,10.47-4.37c.77-.32,1.64.04,1.96.81.32.77-.04,1.64-.81,1.96l-8.72,3.64-.43,8.76c-.04.83-.74,1.47-1.57,1.42-.04,0-.07,0-.11,0Z"/>
  <path class="st0" d="M741.88,141.03l-4.15,2.6c-3.07,1.93-3.36,6.29-.56,8.6l3.78,3.12c4.25,3.51,8.95,6.49,13.99,8.85l.79.37c3.02,1.42,6.52-.65,6.74-3.98l1.43-21.97c.22-3.33-2.99-5.83-6.16-4.82l-.83.26c-5.3,1.69-10.35,4.03-15.02,6.96Z"/>
  <path class="st0" d="M752.4,151.44c5.33-.58,10.71-.86,16.06-.37,4.78.44,9.31,1.57,13.66,3.61,4.1,1.92,8.03,4.21,11.58,7.02,1.35,1.07,2.62,2.2,3.72,3.38.5.54.97,1.09,1.41,1.67.19.25.38.51.56.77.08.12.17.25.25.38.03.05.07.11.1.16.15.24-.06-.11.02.04.28.51.53,1.03.73,1.58.02.06.04.12.06.19.06.18-.07-.37-.02-.06.02.12.05.23.07.35s.03.23.04.34c.03.23-.03.29,0,0-.03.19-.06.41-.07.6.02-.25.09-.28,0-.05-.03.09-.09.17-.12.26.13-.38.11-.16-.02-.01-.05.05-.28.29-.08.1.25-.23-.7.44-.15.12-.7.4-1.13,1.17-.78,1.97.29.68,1.26,1.19,1.97.78,5.77-3.3-.84-10.52-3.77-13.19-3.38-3.08-7.29-5.57-11.33-7.69-2.34-1.23-4.74-2.39-7.25-3.24s-4.99-1.4-7.55-1.77c-6.46-.93-13.07-.64-19.54.07-1.92.21-1.48,3.18.44,2.97h0Z"/>
  <path class="st0" d="M803.46,168.23c-1.16-.34-3.1,1.07-3.1,1.07-.72.15-4.35,5.19-5.06,7.13-1.56,4.3-.93,7.33-.96,8.47,0,.12.09.21.2.21,1.26,0,6.96.86,9.47-6.04.6-1.65-.17-4.02-.17-4.02.2-.27.53.6,2.05,1.98,1.85,1.68,8.35,2.27,10.73,2.11.39-.03.64-.43.49-.8-.77-1.91-3.73-7.19-13.67-10.12Z"/>
  <path class="st0" d="M772.76,165.51c-.68-.08-1.23-.62-1.31-1.33l-1.63-15.52,12.01-10.7c.62-.55,1.57-.5,2.12.12.55.62.5,1.57-.12,2.12l-10.86,9.68,1.47,13.99c.09.82-.51,1.56-1.34,1.65-.12.01-.23.01-.34,0Z"/>
  <path class="st0" d="M783.78,166.88c-.64-.08-1.18-.56-1.3-1.23l-2.3-13.17,11.62-8.24c.68-.48,1.61-.32,2.09.36.48.68.32,1.61-.36,2.09l-10.08,7.14,1.97,11.31c.14.82-.4,1.59-1.22,1.74-.15.03-.3.03-.44.01Z"/>
  <path class="st0" d="M792.21,171.04c-.77-.09-1.35-.77-1.31-1.56l.52-10.65,10.47-4.37c.77-.32,1.64.04,1.96.81.32.77-.04,1.64-.81,1.96l-8.72,3.64-.43,8.76c-.04.83-.74,1.47-1.57,1.42-.04,0-.07,0-.11,0Z"/>
  <path class="st0" d="M895.99,141.03l-4.15,2.6c-3.07,1.93-3.36,6.29-.56,8.6l3.78,3.12c4.25,3.51,8.95,6.49,13.99,8.85l.79.37c3.02,1.42,6.52-.65,6.74-3.98l1.43-21.97c.22-3.33-2.99-5.83-6.16-4.82l-.83.26c-5.3,1.69-10.35,4.03-15.02,6.96Z"/>
  <path class="st0" d="M906.51,151.44c5.33-.58,10.71-.86,16.06-.37,4.78.44,9.31,1.57,13.66,3.61,4.1,1.92,8.03,4.21,11.58,7.02,1.35,1.07,2.62,2.2,3.72,3.38.5.54.97,1.09,1.41,1.67.19.25.38.51.56.77.08.12.17.25.25.38.03.05.07.11.1.16.15.24-.06-.11.02.04.28.51.53,1.03.73,1.58.02.06.04.12.06.19.06.18-.07-.37-.02-.06.02.12.05.23.07.35s.03.23.04.34c.03.23-.03.29,0,0-.03.19-.06.41-.07.6.02-.25.09-.28,0-.05-.03.09-.09.17-.12.26.13-.38.11-.16-.02-.01-.05.05-.28.29-.08.1.25-.23-.7.44-.15.12-.7.4-1.13,1.17-.78,1.97.29.68,1.26,1.19,1.97.78,5.77-3.3-.84-10.52-3.77-13.19-3.38-3.08-7.29-5.57-11.33-7.69-2.34-1.23-4.74-2.39-7.25-3.24s-4.99-1.4-7.55-1.77c-6.46-.93-13.07-.64-19.54.07-1.92.21-1.48,3.18.44,2.97h0Z"/>
  <path class="st0" d="M957.57,168.23c-1.16-.34-3.1,1.07-3.1,1.07-.72.15-4.35,5.19-5.06,7.13-1.56,4.3-.93,7.33-.96,8.47,0,.12.09.21.2.21,1.26,0,6.96.86,9.47-6.04.6-1.65-.17-4.02-.17-4.02.2-.27.53.6,2.05,1.98,1.85,1.68,8.35,2.27,10.73,2.11.39-.03.64-.43.49-.8-.77-1.91-3.73-7.19-13.67-10.12Z"/>
  <path class="st0" d="M926.87,165.51c-.68-.08-1.23-.62-1.31-1.33l-1.63-15.52,12.01-10.7c.62-.55,1.57-.5,2.12.12.55.62.5,1.57-.12,2.12l-10.86,9.68,1.47,13.99c.09.82-.51,1.56-1.34,1.65-.12.01-.23.01-.34,0Z"/>
  <path class="st0" d="M937.89,166.88c-.64-.08-1.18-.56-1.3-1.23l-2.3-13.17,11.62-8.24c.68-.48,1.61-.32,2.09.36.48.68.32,1.61-.36,2.09l-10.08,7.14,1.97,11.31c.14.82-.4,1.59-1.22,1.74-.15.03-.3.03-.44.01Z"/>
  <path class="st0" d="M946.32,171.04c-.77-.09-1.35-.77-1.31-1.56l.52-10.65,10.47-4.37c.77-.32,1.64.04,1.96.81.32.77-.04,1.64-.81,1.96l-8.72,3.64-.43,8.76c-.04.83-.74,1.47-1.57,1.42-.04,0-.07,0-.11,0Z"/>
  <path class="st0" d="M1050.1,141.03l-4.15,2.6c-3.07,1.93-3.36,6.29-.56,8.6l3.78,3.12c4.25,3.51,8.95,6.49,13.99,8.85l.79.37c3.02,1.42,6.52-.65,6.74-3.98l1.43-21.97c.22-3.33-2.99-5.83-6.16-4.82l-.83.26c-5.3,1.69-10.35,4.03-15.02,6.96Z"/>
  <path class="st0" d="M1060.63,151.44c5.33-.58,10.71-.86,16.06-.37,4.78.44,9.31,1.57,13.66,3.61,4.1,1.92,8.03,4.21,11.58,7.02,1.35,1.07,2.62,2.2,3.72,3.38.5.54.97,1.09,1.41,1.67.19.25.38.51.56.77.08.12.17.25.25.38.03.05.07.11.1.16.15.24-.06-.11.02.04.28.51.53,1.03.73,1.58.02.06.04.12.06.19.06.18-.07-.37-.02-.06.02.12.05.23.07.35s.03.23.04.34c.03.23-.03.29,0,0-.03.19-.06.41-.07.6.02-.25.09-.28,0-.05-.03.09-.09.17-.12.26.13-.38.11-.16-.02-.01-.05.05-.28.29-.08.1.25-.23-.7.44-.15.12-.7.4-1.13,1.17-.78,1.97.29.68,1.26,1.19,1.97.78,5.77-3.3-.84-10.52-3.77-13.19-3.38-3.08-7.29-5.57-11.33-7.69-2.34-1.23-4.74-2.39-7.25-3.24s-4.99-1.4-7.55-1.77c-6.46-.93-13.07-.64-19.54.07-1.92.21-1.48,3.18.44,2.97h0Z"/>
  <path class="st0" d="M1111.69,168.23c-1.16-.34-3.1,1.07-3.1,1.07-.72.15-4.35,5.19-5.06,7.13-1.56,4.3-.93,7.33-.96,8.47,0,.12.09.21.2.21,1.26,0,6.96.86,9.47-6.04.6-1.65-.17-4.02-.17-4.02.2-.27.53.6,2.05,1.98,1.85,1.68,8.35,2.27,10.73,2.11.39-.03.64-.43.49-.8-.77-1.91-3.73-7.19-13.67-10.12Z"/>
  <path class="st0" d="M1080.99,165.51c-.68-.08-1.23-.62-1.31-1.33l-1.63-15.52,12.01-10.7c.62-.55,1.57-.5,2.12.12.55.62.5,1.57-.12,2.12l-10.86,9.68,1.47,13.99c.09.82-.51,1.56-1.34,1.65-.12.01-.23.01-.34,0Z"/>
  <path class="st0" d="M1092.01,166.88c-.64-.08-1.18-.56-1.3-1.23l-2.3-13.17,11.62-8.24c.68-.48,1.61-.32,2.09.36.48.68.32,1.61-.36,2.09l-10.08,7.14,1.97,11.31c.14.82-.4,1.59-1.22,1.74-.15.03-.3.03-.44.01Z"/>
  <path class="st0" d="M1100.44,171.04c-.77-.09-1.35-.77-1.31-1.56l.52-10.65,10.47-4.37c.77-.32,1.64.04,1.96.81.32.77-.04,1.64-.81,1.96l-8.72,3.64-.43,8.76c-.04.83-.74,1.47-1.57,1.42-.04,0-.07,0-.11,0Z"/>
  <path class="st0" d="M1204.22,141.03l-4.15,2.6c-3.07,1.93-3.36,6.29-.56,8.6l3.78,3.12c4.25,3.51,8.95,6.49,13.99,8.85l.79.37c3.02,1.42,6.52-.65,6.74-3.98l1.43-21.97c.22-3.33-2.99-5.83-6.16-4.82l-.83.26c-5.3,1.69-10.35,4.03-15.02,6.96Z"/>
  <path class="st0" d="M1214.74,151.44c5.33-.58,10.71-.86,16.06-.37,4.78.44,9.31,1.57,13.66,3.61,4.1,1.92,8.03,4.21,11.58,7.02,1.35,1.07,2.62,2.2,3.72,3.38.5.54.97,1.09,1.41,1.67.19.25.38.51.56.77.08.12.17.25.25.38.03.05.07.11.1.16.15.24-.06-.11.02.04.28.51.53,1.03.73,1.58.02.06.04.12.06.19.06.18-.07-.37-.02-.06.02.12.05.23.07.35s.03.23.04.34c.03.23-.03.29,0,0-.03.19-.06.41-.07.6.02-.25.09-.28,0-.05-.03.09-.09.17-.12.26.13-.38.11-.16-.02-.01-.05.05-.28.29-.08.1.25-.23-.7.44-.15.12-.7.4-1.13,1.17-.78,1.97.29.68,1.26,1.19,1.97.78,5.77-3.3-.84-10.52-3.77-13.19-3.38-3.08-7.29-5.57-11.33-7.69-2.34-1.23-4.74-2.39-7.25-3.24s-4.99-1.4-7.55-1.77c-6.46-.93-13.07-.64-19.54.07-1.92.21-1.48,3.18.44,2.97h0Z"/>
  <path class="st0" d="M1265.8,168.23c-1.16-.34-3.1,1.07-3.1,1.07-.72.15-4.35,5.19-5.06,7.13-1.56,4.3-.93,7.33-.96,8.47,0,.12.09.21.2.21,1.26,0,6.96.86,9.47-6.04.6-1.65-.17-4.02-.17-4.02.2-.27.53.6,2.05,1.98,1.85,1.68,8.35,2.27,10.73,2.11.39-.03.64-.43.49-.8-.77-1.91-3.73-7.19-13.67-10.12Z"/>
  <path class="st0" d="M1235.1,165.51c-.68-.08-1.23-.62-1.31-1.33l-1.63-15.52,12.01-10.7c.62-.55,1.57-.5,2.12.12.55.62.5,1.57-.12,2.12l-10.86,9.68,1.47,13.99c.09.82-.51,1.56-1.34,1.65-.12.01-.23.01-.34,0Z"/>
  <path class="st0" d="M1246.12,166.88c-.64-.08-1.18-.56-1.3-1.23l-2.3-13.17,11.62-8.24c.68-.48,1.61-.32,2.09.36.48.68.32,1.61-.36,2.09l-10.08,7.14,1.97,11.31c.14.82-.4,1.59-1.22,1.74-.15.03-.3.03-.44.01Z"/>
  <path class="st0" d="M1254.55,171.04c-.77-.09-1.35-.77-1.31-1.56l.52-10.65,10.47-4.37c.77-.32,1.64.04,1.96.81.32.77-.04,1.64-.81,1.96l-8.72,3.64-.43,8.76c-.04.83-.74,1.47-1.57,1.42-.04,0-.07,0-.11,0Z"/>
  <path class="st0" d="M73.73,225.53c.84,1.21,1.2,3.31,1.29,4.77.39,6.02-.07,12.4.28,18.46l.1.52c1.81.72,3.93.99,5.79,1.56,4.77,1.47,9.36,3.45,13.91,5.43l12.8-15.11c1.99-2.31,6.8-3.91,8.07.02.54,1.67.52,5.89.55,7.82.18,14-2.28,27.59-5.75,41.05-1.19,4.61-1.41,10.08-7.9,8.67l-60.08-21.32c-3.63-1.62-4.21-4.62-2.72-8.07,6.1-14.06,16.24-32.82,27.16-43.67,1.99-1.98,4.57-2.86,6.49-.11ZM75.26,263.98c1.55-4.38-.74-9.19-5.12-10.74s-9.19.74-10.74,5.12.74,9.19,5.12,10.74,9.19-.74,10.74-5.12ZM101.04,273.12c1.55-4.37-.74-9.18-5.11-10.73s-9.18.74-10.73,5.11.74,9.18,5.11,10.73,9.18-.74,10.73-5.11ZM77.57,273.62l-1.31,3.7.5.18,1.31-3.7s.37.13.77,0c1.1-.36,3.14-1.31,2.44-2.79-.37-.78-3.43-1.84-4.23-1.56-1.78.64-.57,3.34.51,4.16Z"/>
  <circle class="st0" cx="93.4" cy="271.15" r="6.94"/>
  <circle class="st0" cx="67.42" cy="261.93" r="6.94"/>
  <path class="st0" d="M220.9,225.53c.84,1.21,1.2,3.31,1.29,4.77.39,6.02-.07,12.4.28,18.46l.1.52c1.81.72,3.93.99,5.79,1.56,4.77,1.47,9.36,3.45,13.91,5.43l12.8-15.11c1.99-2.31,6.8-3.91,8.07.02.54,1.67.52,5.89.55,7.82.18,14-2.28,27.59-5.75,41.05-1.19,4.61-1.41,10.08-7.9,8.67l-60.08-21.32c-3.63-1.62-4.21-4.62-2.72-8.07,6.1-14.06,16.24-32.82,27.16-43.67,1.99-1.98,4.57-2.86,6.49-.11ZM222.43,263.98c1.55-4.38-.74-9.19-5.12-10.74s-9.19.74-10.74,5.12.74,9.19,5.12,10.74,9.19-.74,10.74-5.12ZM248.22,273.12c1.55-4.37-.74-9.18-5.11-10.73s-9.18.74-10.73,5.11.74,9.18,5.11,10.73,9.18-.74,10.73-5.11ZM224.74,273.62l-1.31,3.7.5.18,1.31-3.7s.37.13.77,0c1.1-.36,3.14-1.31,2.44-2.79-.37-.78-3.43-1.84-4.23-1.56-1.78.64-.57,3.34.51,4.16Z"/>
  <circle class="st0" cx="240.57" cy="271.15" r="6.94"/>
  <circle class="st0" cx="214.59" cy="261.93" r="6.94"/>
  <path class="st0" d="M368.08,225.53c.84,1.21,1.2,3.31,1.29,4.77.39,6.02-.07,12.4.28,18.46l.1.52c1.81.72,3.93.99,5.79,1.56,4.77,1.47,9.36,3.45,13.91,5.43l12.8-15.11c1.99-2.31,6.8-3.91,8.07.02.54,1.67.52,5.89.55,7.82.18,14-2.28,27.59-5.75,41.05-1.19,4.61-1.41,10.08-7.9,8.67l-60.08-21.32c-3.63-1.62-4.21-4.62-2.72-8.07,6.1-14.06,16.24-32.82,27.16-43.67,1.99-1.98,4.57-2.86,6.49-.11ZM369.6,263.98c1.55-4.38-.74-9.19-5.12-10.74s-9.19.74-10.74,5.12.74,9.19,5.12,10.74,9.19-.74,10.74-5.12ZM395.39,273.12c1.55-4.37-.74-9.18-5.11-10.73s-9.18.74-10.73,5.11c-1.55,4.37.74,9.18,5.11,10.73,4.37,1.55,9.18-.74,10.73-5.11ZM371.92,273.62l-1.31,3.7.5.18,1.31-3.7s.37.13.77,0c1.1-.36,3.14-1.31,2.44-2.79-.37-.78-3.43-1.84-4.23-1.56-1.78.64-.57,3.34.51,4.16Z"/>
  <circle class="st0" cx="387.75" cy="271.15" r="6.94"/>
  <circle class="st0" cx="361.77" cy="261.93" r="6.94"/>
  <path class="st0" d="M515.25,225.53c.84,1.21,1.2,3.31,1.29,4.77.39,6.02-.07,12.4.28,18.46l.1.52c1.81.72,3.93.99,5.79,1.56,4.77,1.47,9.36,3.45,13.91,5.43l12.8-15.11c1.99-2.31,6.8-3.91,8.07.02.54,1.67.52,5.89.55,7.82.18,14-2.28,27.59-5.75,41.05-1.19,4.61-1.41,10.08-7.9,8.67l-60.08-21.32c-3.63-1.62-4.21-4.62-2.72-8.07,6.1-14.06,16.24-32.82,27.16-43.67,1.99-1.98,4.57-2.86,6.49-.11ZM516.78,263.98c1.55-4.38-.74-9.19-5.12-10.74s-9.19.74-10.74,5.12.74,9.19,5.12,10.74,9.19-.74,10.74-5.12ZM542.56,273.12c1.55-4.37-.74-9.18-5.11-10.73s-9.18.74-10.73,5.11c-1.55,4.37.74,9.18,5.11,10.73,4.37,1.55,9.18-.74,10.73-5.11ZM519.09,273.62l-1.31,3.7.5.18,1.31-3.7s.37.13.77,0c1.1-.36,3.14-1.31,2.44-2.79-.37-.78-3.43-1.84-4.23-1.56-1.78.64-.57,3.34.51,4.16Z"/>
  <circle class="st0" cx="534.92" cy="271.15" r="6.94"/>
  <circle class="st0" cx="508.94" cy="261.93" r="6.94"/>
  <path class="st0" d="M662.42,225.53c.84,1.21,1.2,3.31,1.29,4.77.39,6.02-.07,12.4.28,18.46l.1.52c1.81.72,3.93.99,5.79,1.56,4.77,1.47,9.36,3.45,13.91,5.43l12.8-15.11c1.99-2.31,6.8-3.91,8.07.02.54,1.67.52,5.89.55,7.82.18,14-2.28,27.59-5.75,41.05-1.19,4.61-1.41,10.08-7.9,8.67l-60.08-21.32c-3.63-1.62-4.21-4.62-2.72-8.07,6.1-14.06,16.24-32.82,27.16-43.67,1.99-1.98,4.57-2.86,6.49-.11ZM663.95,263.98c1.55-4.38-.74-9.19-5.12-10.74s-9.19.74-10.74,5.12.74,9.19,5.12,10.74,9.19-.74,10.74-5.12ZM689.74,273.12c1.55-4.37-.74-9.18-5.11-10.73s-9.18.74-10.73,5.11c-1.55,4.37.74,9.18,5.11,10.73,4.37,1.55,9.18-.74,10.73-5.11ZM666.26,273.62l-1.31,3.7.5.18,1.31-3.7s.37.13.77,0c1.1-.36,3.14-1.31,2.44-2.79-.37-.78-3.43-1.84-4.23-1.56-1.78.64-.57,3.34.51,4.16Z"/>
  <circle class="st0" cx="682.09" cy="271.15" r="6.94"/>
  <circle class="st0" cx="656.11" cy="261.93" r="6.94"/>
  <path class="st0" d="M809.6,225.53c.84,1.21,1.2,3.31,1.29,4.77.39,6.02-.07,12.4.28,18.46l.1.52c1.81.72,3.93.99,5.79,1.56,4.77,1.47,9.36,3.45,13.91,5.43l12.8-15.11c1.99-2.31,6.8-3.91,8.07.02.54,1.67.52,5.89.55,7.82.18,14-2.28,27.59-5.75,41.05-1.19,4.61-1.41,10.08-7.9,8.67l-60.08-21.32c-3.63-1.62-4.21-4.62-2.72-8.07,6.1-14.06,16.24-32.82,27.16-43.67,1.99-1.98,4.57-2.86,6.49-.11ZM811.12,263.98c1.55-4.38-.74-9.19-5.12-10.74s-9.19.74-10.74,5.12.74,9.19,5.12,10.74,9.19-.74,10.74-5.12ZM836.91,273.12c1.55-4.37-.74-9.18-5.11-10.73s-9.18.74-10.73,5.11c-1.55,4.37.74,9.18,5.11,10.73,4.37,1.55,9.18-.74,10.73-5.11ZM813.44,273.62l-1.31,3.7.5.18,1.31-3.7s.37.13.77,0c1.1-.36,3.14-1.31,2.44-2.79-.37-.78-3.43-1.84-4.23-1.56-1.78.64-.57,3.34.51,4.16Z"/>
  <circle class="st0" cx="829.27" cy="271.15" r="6.94"/>
  <circle class="st0" cx="803.29" cy="261.93" r="6.94"/>
  <path class="st0" d="M956.77,225.53c.84,1.21,1.2,3.31,1.29,4.77.39,6.02-.07,12.4.28,18.46l.1.52c1.81.72,3.93.99,5.79,1.56,4.77,1.47,9.36,3.45,13.91,5.43l12.8-15.11c1.99-2.31,6.8-3.91,8.07.02.54,1.67.52,5.89.55,7.82.18,14-2.28,27.59-5.75,41.05-1.19,4.61-1.41,10.08-7.9,8.67l-60.08-21.32c-3.63-1.62-4.21-4.62-2.72-8.07,6.1-14.06,16.24-32.82,27.16-43.67,1.99-1.98,4.57-2.86,6.49-.11ZM958.3,263.98c1.55-4.38-.74-9.19-5.12-10.74s-9.19.74-10.74,5.12.74,9.19,5.12,10.74,9.19-.74,10.74-5.12ZM984.08,273.12c1.55-4.37-.74-9.18-5.11-10.73s-9.18.74-10.73,5.11c-1.55,4.37.74,9.18,5.11,10.73,4.37,1.55,9.18-.74,10.73-5.11ZM960.61,273.62l-1.31,3.7.5.18,1.31-3.7s.37.13.77,0c1.1-.36,3.14-1.31,2.44-2.79-.37-.78-3.43-1.84-4.23-1.56-1.78.64-.57,3.34.51,4.16Z"/>
  <circle class="st0" cx="976.44" cy="271.15" r="6.94"/>
  <circle class="st0" cx="950.46" cy="261.93" r="6.94"/>
  <path class="st0" d="M1103.94,225.53c.84,1.21,1.2,3.31,1.29,4.77.39,6.02-.07,12.4.28,18.46l.1.52c1.81.72,3.93.99,5.79,1.56,4.77,1.47,9.36,3.45,13.91,5.43l12.8-15.11c1.99-2.31,6.8-3.91,8.07.02.54,1.67.52,5.89.55,7.82.18,14-2.28,27.59-5.75,41.05-1.19,4.61-1.41,10.08-7.9,8.67l-60.08-21.32c-3.63-1.62-4.21-4.62-2.72-8.07,6.1-14.06,16.24-32.82,27.16-43.67,1.99-1.98,4.57-2.86,6.49-.11ZM1105.47,263.98c1.55-4.38-.74-9.19-5.12-10.74s-9.19.74-10.74,5.12.74,9.19,5.12,10.74,9.19-.74,10.74-5.12ZM1131.26,273.12c1.55-4.37-.74-9.18-5.11-10.73s-9.18.74-10.73,5.11c-1.55,4.37.74,9.18,5.11,10.73,4.37,1.55,9.18-.74,10.73-5.11ZM1107.78,273.62l-1.31,3.7.5.18,1.31-3.7s.37.13.77,0c1.1-.36,3.14-1.31,2.44-2.79-.37-.78-3.43-1.84-4.23-1.56-1.78.64-.57,3.34.51,4.16Z"/>
  <circle class="st0" cx="1123.61" cy="271.15" r="6.94"/>
  <circle class="st0" cx="1097.63" cy="261.93" r="6.94"/>
  <path class="st0" d="M1251.12,225.53c.84,1.21,1.2,3.31,1.29,4.77.39,6.02-.07,12.4.28,18.46l.1.52c1.81.72,3.93.99,5.79,1.56,4.77,1.47,9.36,3.45,13.91,5.43l12.8-15.11c1.99-2.31,6.8-3.91,8.07.02.54,1.67.52,5.89.55,7.82.18,14-2.28,27.59-5.75,41.05-1.19,4.61-1.41,10.08-7.9,8.67l-60.08-21.32c-3.63-1.62-4.21-4.62-2.72-8.07,6.1-14.06,16.24-32.82,27.16-43.67,1.99-1.98,4.57-2.86,6.49-.11ZM1252.64,263.98c1.55-4.38-.74-9.19-5.12-10.74s-9.19.74-10.74,5.12.74,9.19,5.12,10.74,9.19-.74,10.74-5.12ZM1278.43,273.12c1.55-4.37-.74-9.18-5.11-10.73s-9.18.74-10.73,5.11c-1.55,4.37.74,9.18,5.11,10.73,4.37,1.55,9.18-.74,10.73-5.11ZM1254.96,273.62l-1.31,3.7.5.18,1.31-3.7s.37.13.77,0c1.1-.36,3.14-1.31,2.44-2.79-.37-.78-3.43-1.84-4.23-1.56-1.78.64-.57,3.34.51,4.16Z"/>
  <circle class="st0" cx="1270.79" cy="271.15" r="6.94"/>
  <circle class="st0" cx="1244.81" cy="261.93" r="6.94"/>
  <path class="st0" d="M123.17,341.5l-4.15,2.6c-3.07,1.93-3.36,6.29-.56,8.6l3.78,3.12c4.25,3.51,8.95,6.49,13.99,8.85l.79.37c3.02,1.42,6.52-.65,6.74-3.98l1.43-21.97c.22-3.33-2.99-5.83-6.16-4.82l-.83.26c-5.3,1.69-10.35,4.03-15.02,6.96Z"/>
  <path class="st0" d="M133.7,351.91c5.33-.58,10.71-.86,16.06-.37,4.78.44,9.31,1.57,13.66,3.61,4.1,1.92,8.03,4.21,11.58,7.02,1.35,1.07,2.62,2.2,3.72,3.38.5.54.97,1.09,1.41,1.67.19.25.38.51.56.77.08.12.17.25.25.38.03.05.07.11.1.16.15.24-.06-.11.02.04.28.51.53,1.03.73,1.58.02.06.04.12.06.19.06.18-.07-.37-.02-.06.02.12.05.23.07.35s.03.23.04.34c.03.23-.03.29,0,0-.03.19-.06.41-.07.6.02-.25.09-.28,0-.05-.03.09-.09.17-.12.26.13-.38.11-.16-.02-.01-.05.05-.28.29-.08.1.25-.23-.7.44-.15.12-.7.4-1.13,1.17-.78,1.97.29.68,1.26,1.19,1.97.78,5.77-3.3-.84-10.52-3.77-13.19-3.38-3.08-7.29-5.57-11.33-7.69-2.34-1.23-4.74-2.39-7.25-3.24s-4.99-1.4-7.55-1.77c-6.46-.93-13.07-.64-19.54.07-1.92.21-1.48,3.18.44,2.97h0Z"/>
  <path class="st0" d="M184.76,368.7c-1.16-.34-3.1,1.07-3.1,1.07-.72.15-4.35,5.19-5.06,7.13-1.56,4.3-.93,7.33-.96,8.47,0,.12.09.21.2.21,1.26,0,6.96.86,9.47-6.04.6-1.65-.17-4.02-.17-4.02.2-.27.53.6,2.05,1.98,1.85,1.68,8.35,2.27,10.73,2.11.39-.03.64-.43.49-.8-.77-1.91-3.73-7.19-13.67-10.12Z"/>
  <path class="st0" d="M154.05,365.98c-.68-.08-1.23-.62-1.31-1.33l-1.63-15.52,12.01-10.7c.62-.55,1.57-.5,2.12.12.55.62.5,1.57-.12,2.12l-10.86,9.68,1.47,13.99c.09.82-.51,1.56-1.34,1.65-.12.01-.23.01-.34,0Z"/>
  <path class="st0" d="M165.07,367.36c-.64-.08-1.18-.56-1.3-1.23l-2.3-13.17,11.62-8.24c.68-.48,1.61-.32,2.09.36.48.68.32,1.61-.36,2.09l-10.08,7.14,1.97,11.31c.14.82-.4,1.59-1.22,1.74-.15.03-.3.03-.44.01Z"/>
  <path class="st0" d="M173.5,371.51c-.77-.09-1.35-.77-1.31-1.56l.52-10.65,10.47-4.37c.77-.32,1.64.04,1.96.81.32.77-.04,1.64-.81,1.96l-8.72,3.64-.43,8.76c-.04.83-.74,1.47-1.57,1.42-.04,0-.07,0-.11,0Z"/>
  <path class="st0" d="M279.53,341.5l-4.15,2.6c-3.07,1.93-3.36,6.29-.56,8.6l3.78,3.12c4.25,3.51,8.95,6.49,13.99,8.85l.79.37c3.02,1.42,6.52-.65,6.74-3.98l1.43-21.97c.22-3.33-2.99-5.83-6.16-4.82l-.83.26c-5.3,1.69-10.35,4.03-15.02,6.96Z"/>
  <path class="st0" d="M290.06,351.91c5.33-.58,10.71-.86,16.06-.37,4.78.44,9.31,1.57,13.66,3.61,4.1,1.92,8.03,4.21,11.58,7.02,1.35,1.07,2.62,2.2,3.72,3.38.5.54.97,1.09,1.41,1.67.19.25.38.51.56.77.08.12.17.25.25.38.03.05.07.11.1.16.15.24-.06-.11.02.04.28.51.53,1.03.73,1.58.02.06.04.12.06.19.06.18-.07-.37-.02-.06.02.12.05.23.07.35s.03.23.04.34c.03.23-.03.29,0,0-.03.19-.06.41-.07.6.02-.25.09-.28,0-.05-.03.09-.09.17-.12.26.13-.38.11-.16-.02-.01-.05.05-.28.29-.08.1.25-.23-.7.44-.15.12-.7.4-1.13,1.17-.78,1.97.29.68,1.26,1.19,1.97.78,5.77-3.3-.84-10.52-3.77-13.19-3.38-3.08-7.29-5.57-11.33-7.69-2.34-1.23-4.74-2.39-7.25-3.24s-4.99-1.4-7.55-1.77c-6.46-.93-13.07-.64-19.54.07-1.92.21-1.48,3.18.44,2.97h0Z"/>
  <path class="st0" d="M341.11,368.7c-1.16-.34-3.1,1.07-3.1,1.07-.72.15-4.35,5.19-5.06,7.13-1.56,4.3-.93,7.33-.96,8.47,0,.12.09.21.2.21,1.26,0,6.96.86,9.47-6.04.6-1.65-.17-4.02-.17-4.02.2-.27.53.6,2.05,1.98,1.85,1.68,8.35,2.27,10.73,2.11.39-.03.64-.43.49-.8-.77-1.91-3.73-7.19-13.67-10.12Z"/>
  <path class="st0" d="M310.41,365.98c-.68-.08-1.23-.62-1.31-1.33l-1.63-15.52,12.01-10.7c.62-.55,1.57-.5,2.12.12.55.62.5,1.57-.12,2.12l-10.86,9.68,1.47,13.99c.09.82-.51,1.56-1.34,1.65-.12.01-.23.01-.34,0Z"/>
  <path class="st0" d="M321.43,367.36c-.64-.08-1.18-.56-1.3-1.23l-2.3-13.17,11.62-8.24c.68-.48,1.61-.32,2.09.36.48.68.32,1.61-.36,2.09l-10.08,7.14,1.97,11.31c.14.82-.4,1.59-1.22,1.74-.15.03-.3.03-.44.01Z"/>
  <path class="st0" d="M329.86,371.51c-.77-.09-1.35-.77-1.31-1.56l.52-10.65,10.47-4.37c.77-.32,1.64.04,1.96.81.32.77-.04,1.64-.81,1.96l-8.72,3.64-.43,8.76c-.04.83-.74,1.47-1.57,1.42-.04,0-.07,0-.11,0Z"/>
  <path class="st0" d="M433.65,341.5l-4.15,2.6c-3.07,1.93-3.36,6.29-.56,8.6l3.78,3.12c4.25,3.51,8.95,6.49,13.99,8.85l.79.37c3.02,1.42,6.52-.65,6.74-3.98l1.43-21.97c.22-3.33-2.99-5.83-6.16-4.82l-.83.26c-5.3,1.69-10.35,4.03-15.02,6.96Z"/>
  <path class="st0" d="M444.17,351.91c5.33-.58,10.71-.86,16.06-.37,4.78.44,9.31,1.57,13.66,3.61,4.1,1.92,8.03,4.21,11.58,7.02,1.35,1.07,2.62,2.2,3.72,3.38.5.54.97,1.09,1.41,1.67.19.25.38.51.56.77.08.12.17.25.25.38.03.05.07.11.1.16.15.24-.06-.11.02.04.28.51.53,1.03.73,1.58.02.06.04.12.06.19.06.18-.07-.37-.02-.06.02.12.05.23.07.35s.03.23.04.34c.03.23-.03.29,0,0-.03.19-.06.41-.07.6.02-.25.09-.28,0-.05-.03.09-.09.17-.12.26.13-.38.11-.16-.02-.01-.05.05-.28.29-.08.1.25-.23-.7.44-.15.12-.7.4-1.13,1.17-.78,1.97.29.68,1.26,1.19,1.97.78,5.77-3.3-.84-10.52-3.77-13.19-3.38-3.08-7.29-5.57-11.33-7.69-2.34-1.23-4.74-2.39-7.25-3.24s-4.99-1.4-7.55-1.77c-6.46-.93-13.07-.64-19.54.07-1.92.21-1.48,3.18.44,2.97h0Z"/>
  <path class="st0" d="M495.23,368.7c-1.16-.34-3.1,1.07-3.1,1.07-.72.15-4.35,5.19-5.06,7.13-1.56,4.3-.93,7.33-.96,8.47,0,.12.09.21.2.21,1.26,0,6.96.86,9.47-6.04.6-1.65-.17-4.02-.17-4.02.2-.27.53.6,2.05,1.98,1.85,1.68,8.35,2.27,10.73,2.11.39-.03.64-.43.49-.8-.77-1.91-3.73-7.19-13.67-10.12Z"/>
  <path class="st0" d="M464.53,365.98c-.68-.08-1.23-.62-1.31-1.33l-1.63-15.52,12.01-10.7c.62-.55,1.57-.5,2.12.12.55.62.5,1.57-.12,2.12l-10.86,9.68,1.47,13.99c.09.82-.51,1.56-1.34,1.65-.12.01-.23.01-.34,0Z"/>
  <path class="st0" d="M475.55,367.36c-.64-.08-1.18-.56-1.3-1.23l-2.3-13.17,11.62-8.24c.68-.48,1.61-.32,2.09.36.48.68.32,1.61-.36,2.09l-10.08,7.14,1.97,11.31c.14.82-.4,1.59-1.22,1.74-.15.03-.3.03-.44.01Z"/>
  <path class="st0" d="M483.98,371.51c-.77-.09-1.35-.77-1.31-1.56l.52-10.65,10.47-4.37c.77-.32,1.64.04,1.96.81.32.77-.04,1.64-.81,1.96l-8.72,3.64-.43,8.76c-.04.83-.74,1.47-1.57,1.42-.04,0-.07,0-.11,0Z"/>
  <path class="st0" d="M587.76,341.5l-4.15,2.6c-3.07,1.93-3.36,6.29-.56,8.6l3.78,3.12c4.25,3.51,8.95,6.49,13.99,8.85l.79.37c3.02,1.42,6.52-.65,6.74-3.98l1.43-21.97c.22-3.33-2.99-5.83-6.16-4.82l-.83.26c-5.3,1.69-10.35,4.03-15.02,6.96Z"/>
  <path class="st0" d="M598.29,351.91c5.33-.58,10.71-.86,16.06-.37,4.78.44,9.31,1.57,13.66,3.61,4.1,1.92,8.03,4.21,11.58,7.02,1.35,1.07,2.62,2.2,3.72,3.38.5.54.97,1.09,1.41,1.67.19.25.38.51.56.77.08.12.17.25.25.38.03.05.07.11.1.16.15.24-.06-.11.02.04.28.51.53,1.03.73,1.58.02.06.04.12.06.19.06.18-.07-.37-.02-.06.02.12.05.23.07.35s.03.23.04.34c.03.23-.03.29,0,0-.03.19-.06.41-.07.6.02-.25.09-.28,0-.05-.03.09-.09.17-.12.26.13-.38.11-.16-.02-.01-.05.05-.28.29-.08.1.25-.23-.7.44-.15.12-.7.4-1.13,1.17-.78,1.97.29.68,1.26,1.19,1.97.78,5.77-3.3-.84-10.52-3.77-13.19-3.38-3.08-7.29-5.57-11.33-7.69-2.34-1.23-4.74-2.39-7.25-3.24s-4.99-1.4-7.55-1.77c-6.46-.93-13.07-.64-19.54.07-1.92.21-1.48,3.18.44,2.97h0Z"/>
  <path class="st0" d="M649.34,368.7c-1.16-.34-3.1,1.07-3.1,1.07-.72.15-4.35,5.19-5.06,7.13-1.56,4.3-.93,7.33-.96,8.47,0,.12.09.21.2.21,1.26,0,6.96.86,9.47-6.04.6-1.65-.17-4.02-.17-4.02.2-.27.53.6,2.05,1.98,1.85,1.68,8.35,2.27,10.73,2.11.39-.03.64-.43.49-.8-.77-1.91-3.73-7.19-13.67-10.12Z"/>
  <path class="st0" d="M618.64,365.98c-.68-.08-1.23-.62-1.31-1.33l-1.63-15.52,12.01-10.7c.62-.55,1.57-.5,2.12.12.55.62.5,1.57-.12,2.12l-10.86,9.68,1.47,13.99c.09.82-.51,1.56-1.34,1.65-.12.01-.23.01-.34,0Z"/>
  <path class="st0" d="M629.66,367.36c-.64-.08-1.18-.56-1.3-1.23l-2.3-13.17,11.62-8.24c.68-.48,1.61-.32,2.09.36.48.68.32,1.61-.36,2.09l-10.08,7.14,1.97,11.31c.14.82-.4,1.59-1.22,1.74-.15.03-.3.03-.44.01Z"/>
  <path class="st0" d="M638.09,371.51c-.77-.09-1.35-.77-1.31-1.56l.52-10.65,10.47-4.37c.77-.32,1.64.04,1.96.81.32.77-.04,1.64-.81,1.96l-8.72,3.64-.43,8.76c-.04.83-.74,1.47-1.57,1.42-.04,0-.07,0-.11,0Z"/>
  <path class="st0" d="M741.88,341.5l-4.15,2.6c-3.07,1.93-3.36,6.29-.56,8.6l3.78,3.12c4.25,3.51,8.95,6.49,13.99,8.85l.79.37c3.02,1.42,6.52-.65,6.74-3.98l1.43-21.97c.22-3.33-2.99-5.83-6.16-4.82l-.83.26c-5.3,1.69-10.35,4.03-15.02,6.96Z"/>
  <path class="st0" d="M752.4,351.91c5.33-.58,10.71-.86,16.06-.37,4.78.44,9.31,1.57,13.66,3.61,4.1,1.92,8.03,4.21,11.58,7.02,1.35,1.07,2.62,2.2,3.72,3.38.5.54.97,1.09,1.41,1.67.19.25.38.51.56.77.08.12.17.25.25.38.03.05.07.11.1.16.15.24-.06-.11.02.04.28.51.53,1.03.73,1.58.02.06.04.12.06.19.06.18-.07-.37-.02-.06.02.12.05.23.07.35s.03.23.04.34c.03.23-.03.29,0,0-.03.19-.06.41-.07.6.02-.25.09-.28,0-.05-.03.09-.09.17-.12.26.13-.38.11-.16-.02-.01-.05.05-.28.29-.08.1.25-.23-.7.44-.15.12-.7.4-1.13,1.17-.78,1.97.29.68,1.26,1.19,1.97.78,5.77-3.3-.84-10.52-3.77-13.19-3.38-3.08-7.29-5.57-11.33-7.69-2.34-1.23-4.74-2.39-7.25-3.24s-4.99-1.4-7.55-1.77c-6.46-.93-13.07-.64-19.54.07-1.92.21-1.48,3.18.44,2.97h0Z"/>
  <path class="st0" d="M803.46,368.7c-1.16-.34-3.1,1.07-3.1,1.07-.72.15-4.35,5.19-5.06,7.13-1.56,4.3-.93,7.33-.96,8.47,0,.12.09.21.2.21,1.26,0,6.96.86,9.47-6.04.6-1.65-.17-4.02-.17-4.02.2-.27.53.6,2.05,1.98,1.85,1.68,8.35,2.27,10.73,2.11.39-.03.64-.43.49-.8-.77-1.91-3.73-7.19-13.67-10.12Z"/>
  <path class="st0" d="M772.76,365.98c-.68-.08-1.23-.62-1.31-1.33l-1.63-15.52,12.01-10.7c.62-.55,1.57-.5,2.12.12.55.62.5,1.57-.12,2.12l-10.86,9.68,1.47,13.99c.09.82-.51,1.56-1.34,1.65-.12.01-.23.01-.34,0Z"/>
  <path class="st0" d="M783.78,367.36c-.64-.08-1.18-.56-1.3-1.23l-2.3-13.17,11.62-8.24c.68-.48,1.61-.32,2.09.36.48.68.32,1.61-.36,2.09l-10.08,7.14,1.97,11.31c.14.82-.4,1.59-1.22,1.74-.15.03-.3.03-.44.01Z"/>
  <path class="st0" d="M792.21,371.51c-.77-.09-1.35-.77-1.31-1.56l.52-10.65,10.47-4.37c.77-.32,1.64.04,1.96.81.32.77-.04,1.64-.81,1.96l-8.72,3.64-.43,8.76c-.04.83-.74,1.47-1.57,1.42-.04,0-.07,0-.11,0Z"/>
  <path class="st0" d="M895.99,341.5l-4.15,2.6c-3.07,1.93-3.36,6.29-.56,8.6l3.78,3.12c4.25,3.51,8.95,6.49,13.99,8.85l.79.37c3.02,1.42,6.52-.65,6.74-3.98l1.43-21.97c.22-3.33-2.99-5.83-6.16-4.82l-.83.26c-5.3,1.69-10.35,4.03-15.02,6.96Z"/>
  <path class="st0" d="M906.51,351.91c5.33-.58,10.71-.86,16.06-.37,4.78.44,9.31,1.57,13.66,3.61,4.1,1.92,8.03,4.21,11.58,7.02,1.35,1.07,2.62,2.2,3.72,3.38.5.54.97,1.09,1.41,1.67.19.25.38.51.56.77.08.12.17.25.25.38.03.05.07.11.1.16.15.24-.06-.11.02.04.28.51.53,1.03.73,1.58.02.06.04.12.06.19.06.18-.07-.37-.02-.06.02.12.05.23.07.35s.03.23.04.34c.03.23-.03.29,0,0-.03.19-.06.41-.07.6.02-.25.09-.28,0-.05-.03.09-.09.17-.12.26.13-.38.11-.16-.02-.01-.05.05-.28.29-.08.1.25-.23-.7.44-.15.12-.7.4-1.13,1.17-.78,1.97.29.68,1.26,1.19,1.97.78,5.77-3.3-.84-10.52-3.77-13.19-3.38-3.08-7.29-5.57-11.33-7.69-2.34-1.23-4.74-2.39-7.25-3.24s-4.99-1.4-7.55-1.77c-6.46-.93-13.07-.64-19.54.07-1.92.21-1.48,3.18.44,2.97h0Z"/>
  <path class="st0" d="M957.57,368.7c-1.16-.34-3.1,1.07-3.1,1.07-.72.15-4.35,5.19-5.06,7.13-1.56,4.3-.93,7.33-.96,8.47,0,.12.09.21.2.21,1.26,0,6.96.86,9.47-6.04.6-1.65-.17-4.02-.17-4.02.2-.27.53.6,2.05,1.98,1.85,1.68,8.35,2.27,10.73,2.11.39-.03.64-.43.49-.8-.77-1.91-3.73-7.19-13.67-10.12Z"/>
  <path class="st0" d="M926.87,365.98c-.68-.08-1.23-.62-1.31-1.33l-1.63-15.52,12.01-10.7c.62-.55,1.57-.5,2.12.12.55.62.5,1.57-.12,2.12l-10.86,9.68,1.47,13.99c.09.82-.51,1.56-1.34,1.65-.12.01-.23.01-.34,0Z"/>
  <path class="st0" d="M937.89,367.36c-.64-.08-1.18-.56-1.3-1.23l-2.3-13.17,11.62-8.24c.68-.48,1.61-.32,2.09.36.48.68.32,1.61-.36,2.09l-10.08,7.14,1.97,11.31c.14.82-.4,1.59-1.22,1.74-.15.03-.3.03-.44.01Z"/>
  <path class="st0" d="M946.32,371.51c-.77-.09-1.35-.77-1.31-1.56l.52-10.65,10.47-4.37c.77-.32,1.64.04,1.96.81.32.77-.04,1.64-.81,1.96l-8.72,3.64-.43,8.76c-.04.83-.74,1.47-1.57,1.42-.04,0-.07,0-.11,0Z"/>
  <path class="st0" d="M1050.1,341.5l-4.15,2.6c-3.07,1.93-3.36,6.29-.56,8.6l3.78,3.12c4.25,3.51,8.95,6.49,13.99,8.85l.79.37c3.02,1.42,6.52-.65,6.74-3.98l1.43-21.97c.22-3.33-2.99-5.83-6.16-4.82l-.83.26c-5.3,1.69-10.35,4.03-15.02,6.96Z"/>
  <path class="st0" d="M1060.63,351.91c5.33-.58,10.71-.86,16.06-.37,4.78.44,9.31,1.57,13.66,3.61,4.1,1.92,8.03,4.21,11.58,7.02,1.35,1.07,2.62,2.2,3.72,3.38.5.54.97,1.09,1.41,1.67.19.25.38.51.56.77.08.12.17.25.25.38.03.05.07.11.1.16.15.24-.06-.11.02.04.28.51.53,1.03.73,1.58.02.06.04.12.06.19.06.18-.07-.37-.02-.06.02.12.05.23.07.35s.03.23.04.34c.03.23-.03.29,0,0-.03.19-.06.41-.07.6.02-.25.09-.28,0-.05-.03.09-.09.17-.12.26.13-.38.11-.16-.02-.01-.05.05-.28.29-.08.1.25-.23-.7.44-.15.12-.7.4-1.13,1.17-.78,1.97.29.68,1.26,1.19,1.97.78,5.77-3.3-.84-10.52-3.77-13.19-3.38-3.08-7.29-5.57-11.33-7.69-2.34-1.23-4.74-2.39-7.25-3.24s-4.99-1.4-7.55-1.77c-6.46-.93-13.07-.64-19.54.07-1.92.21-1.48,3.18.44,2.97h0Z"/>
  <path class="st0" d="M1111.69,368.7c-1.16-.34-3.1,1.07-3.1,1.07-.72.15-4.35,5.19-5.06,7.13-1.56,4.3-.93,7.33-.96,8.47,0,.12.09.21.2.21,1.26,0,6.96.86,9.47-6.04.6-1.65-.17-4.02-.17-4.02.2-.27.53.6,2.05,1.98,1.85,1.68,8.35,2.27,10.73,2.11.39-.03.64-.43.49-.8-.77-1.91-3.73-7.19-13.67-10.12Z"/>
  <path class="st0" d="M1080.99,365.98c-.68-.08-1.23-.62-1.31-1.33l-1.63-15.52,12.01-10.7c.62-.55,1.57-.5,2.12.12.55.62.5,1.57-.12,2.12l-10.86,9.68,1.47,13.99c.09.82-.51,1.56-1.34,1.65-.12.01-.23.01-.34,0Z"/>
  <path class="st0" d="M1092.01,367.36c-.64-.08-1.18-.56-1.3-1.23l-2.3-13.17,11.62-8.24c.68-.48,1.61-.32,2.09.36.48.68.32,1.61-.36,2.09l-10.08,7.14,1.97,11.31c.14.82-.4,1.59-1.22,1.74-.15.03-.3.03-.44.01Z"/>
  <path class="st0" d="M1100.44,371.51c-.77-.09-1.35-.77-1.31-1.56l.52-10.65,10.47-4.37c.77-.32,1.64.04,1.96.81.32.77-.04,1.64-.81,1.96l-8.72,3.64-.43,8.76c-.04.83-.74,1.47-1.57,1.42-.04,0-.07,0-.11,0Z"/>
  <path class="st0" d="M1204.22,341.5l-4.15,2.6c-3.07,1.93-3.36,6.29-.56,8.6l3.78,3.12c4.25,3.51,8.95,6.49,13.99,8.85l.79.37c3.02,1.42,6.52-.65,6.74-3.98l1.43-21.97c.22-3.33-2.99-5.83-6.16-4.82l-.83.26c-5.3,1.69-10.35,4.03-15.02,6.96Z"/>
  <path class="st0" d="M1214.74,351.91c5.33-.58,10.71-.86,16.06-.37,4.78.44,9.31,1.57,13.66,3.61,4.1,1.92,8.03,4.21,11.58,7.02,1.35,1.07,2.62,2.2,3.72,3.38.5.54.97,1.09,1.41,1.67.19.25.38.51.56.77.08.12.17.25.25.38.03.05.07.11.1.16.15.24-.06-.11.02.04.28.51.53,1.03.73,1.58.02.06.04.12.06.19.06.18-.07-.37-.02-.06.02.12.05.23.07.35s.03.23.04.34c.03.23-.03.29,0,0-.03.19-.06.41-.07.6.02-.25.09-.28,0-.05-.03.09-.09.17-.12.26.13-.38.11-.16-.02-.01-.05.05-.28.29-.08.1.25-.23-.7.44-.15.12-.7.4-1.13,1.17-.78,1.97.29.68,1.26,1.19,1.97.78,5.77-3.3-.84-10.52-3.77-13.19-3.38-3.08-7.29-5.57-11.33-7.69-2.34-1.23-4.74-2.39-7.25-3.24s-4.99-1.4-7.55-1.77c-6.46-.93-13.07-.64-19.54.07-1.92.21-1.48,3.18.44,2.97h0Z"/>
  <path class="st0" d="M1265.8,368.7c-1.16-.34-3.1,1.07-3.1,1.07-.72.15-4.35,5.19-5.06,7.13-1.56,4.3-.93,7.33-.96,8.47,0,.12.09.21.2.21,1.26,0,6.96.86,9.47-6.04.6-1.65-.17-4.02-.17-4.02.2-.27.53.6,2.05,1.98,1.85,1.68,8.35,2.27,10.73,2.11.39-.03.64-.43.49-.8-.77-1.91-3.73-7.19-13.67-10.12Z"/>
  <path class="st0" d="M1235.1,365.98c-.68-.08-1.23-.62-1.31-1.33l-1.63-15.52,12.01-10.7c.62-.55,1.57-.5,2.12.12.55.62.5,1.57-.12,2.12l-10.86,9.68,1.47,13.99c.09.82-.51,1.56-1.34,1.65-.12.01-.23.01-.34,0Z"/>
  <path class="st0" d="M1246.12,367.36c-.64-.08-1.18-.56-1.3-1.23l-2.3-13.17,11.62-8.24c.68-.48,1.61-.32,2.09.36.48.68.32,1.61-.36,2.09l-10.08,7.14,1.97,11.31c.14.82-.4,1.59-1.22,1.74-.15.03-.3.03-.44.01Z"/>
  <path class="st0" d="M1254.55,371.51c-.77-.09-1.35-.77-1.31-1.56l.52-10.65,10.47-4.37c.77-.32,1.64.04,1.96.81.32.77-.04,1.64-.81,1.96l-8.72,3.64-.43,8.76c-.04.83-.74,1.47-1.57,1.42-.04,0-.07,0-.11,0Z"/>
  <path class="st0" d="M73.73,426c.84,1.21,1.2,3.31,1.29,4.77.39,6.02-.07,12.4.28,18.46l.1.52c1.81.72,3.93.99,5.79,1.56,4.77,1.47,9.36,3.45,13.91,5.43l12.8-15.11c1.99-2.31,6.8-3.91,8.07.02.54,1.67.52,5.89.55,7.82.18,14-2.28,27.59-5.75,41.05-1.19,4.61-1.41,10.08-7.9,8.67l-60.08-21.32c-3.63-1.62-4.21-4.62-2.72-8.07,6.1-14.06,16.24-32.82,27.16-43.67,1.99-1.98,4.57-2.86,6.49-.11ZM75.26,464.45c1.55-4.38-.74-9.19-5.12-10.74s-9.19.74-10.74,5.12.74,9.19,5.12,10.74,9.19-.74,10.74-5.12ZM101.04,473.6c1.55-4.37-.74-9.18-5.11-10.73s-9.18.74-10.73,5.11.74,9.18,5.11,10.73,9.18-.74,10.73-5.11ZM77.57,474.09l-1.31,3.7.5.18,1.31-3.7s.37.13.77,0c1.1-.36,3.14-1.31,2.44-2.79-.37-.78-3.43-1.84-4.23-1.56-1.78.64-.57,3.34.51,4.16Z"/>
  <circle class="st0" cx="93.4" cy="471.62" r="6.94"/>
  <circle class="st0" cx="67.42" cy="462.4" r="6.94"/>
  <path class="st0" d="M220.9,426c.84,1.21,1.2,3.31,1.29,4.77.39,6.02-.07,12.4.28,18.46l.1.52c1.81.72,3.93.99,5.79,1.56,4.77,1.47,9.36,3.45,13.91,5.43l12.8-15.11c1.99-2.31,6.8-3.91,8.07.02.54,1.67.52,5.89.55,7.82.18,14-2.28,27.59-5.75,41.05-1.19,4.61-1.41,10.08-7.9,8.67l-60.08-21.32c-3.63-1.62-4.21-4.62-2.72-8.07,6.1-14.06,16.24-32.82,27.16-43.67,1.99-1.98,4.57-2.86,6.49-.11ZM222.43,464.45c1.55-4.38-.74-9.19-5.12-10.74s-9.19.74-10.74,5.12.74,9.19,5.12,10.74,9.19-.74,10.74-5.12ZM248.22,473.6c1.55-4.37-.74-9.18-5.11-10.73s-9.18.74-10.73,5.11.74,9.18,5.11,10.73,9.18-.74,10.73-5.11ZM224.74,474.09l-1.31,3.7.5.18,1.31-3.7s.37.13.77,0c1.1-.36,3.14-1.31,2.44-2.79-.37-.78-3.43-1.84-4.23-1.56-1.78.64-.57,3.34.51,4.16Z"/>
  <circle class="st0" cx="240.57" cy="471.62" r="6.94"/>
  <circle class="st0" cx="214.59" cy="462.4" r="6.94"/>
  <path class="st0" d="M368.08,426c.84,1.21,1.2,3.31,1.29,4.77.39,6.02-.07,12.4.28,18.46l.1.52c1.81.72,3.93.99,5.79,1.56,4.77,1.47,9.36,3.45,13.91,5.43l12.8-15.11c1.99-2.31,6.8-3.91,8.07.02.54,1.67.52,5.89.55,7.82.18,14-2.28,27.59-5.75,41.05-1.19,4.61-1.41,10.08-7.9,8.67l-60.08-21.32c-3.63-1.62-4.21-4.62-2.72-8.07,6.1-14.06,16.24-32.82,27.16-43.67,1.99-1.98,4.57-2.86,6.49-.11ZM369.6,464.45c1.55-4.38-.74-9.19-5.12-10.74s-9.19.74-10.74,5.12.74,9.19,5.12,10.74,9.19-.74,10.74-5.12ZM395.39,473.6c1.55-4.37-.74-9.18-5.11-10.73s-9.18.74-10.73,5.11c-1.55,4.37.74,9.18,5.11,10.73s9.18-.74,10.73-5.11ZM371.92,474.09l-1.31,3.7.5.18,1.31-3.7s.37.13.77,0c1.1-.36,3.14-1.31,2.44-2.79-.37-.78-3.43-1.84-4.23-1.56-1.78.64-.57,3.34.51,4.16Z"/>
  <circle class="st0" cx="387.75" cy="471.62" r="6.94"/>
  <circle class="st0" cx="361.77" cy="462.4" r="6.94"/>
  <path class="st0" d="M515.25,426c.84,1.21,1.2,3.31,1.29,4.77.39,6.02-.07,12.4.28,18.46l.1.52c1.81.72,3.93.99,5.79,1.56,4.77,1.47,9.36,3.45,13.91,5.43l12.8-15.11c1.99-2.31,6.8-3.91,8.07.02.54,1.67.52,5.89.55,7.82.18,14-2.28,27.59-5.75,41.05-1.19,4.61-1.41,10.08-7.9,8.67l-60.08-21.32c-3.63-1.62-4.21-4.62-2.72-8.07,6.1-14.06,16.24-32.82,27.16-43.67,1.99-1.98,4.57-2.86,6.49-.11ZM516.78,464.45c1.55-4.38-.74-9.19-5.12-10.74s-9.19.74-10.74,5.12.74,9.19,5.12,10.74,9.19-.74,10.74-5.12ZM542.56,473.6c1.55-4.37-.74-9.18-5.11-10.73s-9.18.74-10.73,5.11c-1.55,4.37.74,9.18,5.11,10.73s9.18-.74,10.73-5.11ZM519.09,474.09l-1.31,3.7.5.18,1.31-3.7s.37.13.77,0c1.1-.36,3.14-1.31,2.44-2.79-.37-.78-3.43-1.84-4.23-1.56-1.78.64-.57,3.34.51,4.16Z"/>
  <circle class="st0" cx="534.92" cy="471.62" r="6.94"/>
  <circle class="st0" cx="508.94" cy="462.4" r="6.94"/>
  <path class="st0" d="M662.42,426c.84,1.21,1.2,3.31,1.29,4.77.39,6.02-.07,12.4.28,18.46l.1.52c1.81.72,3.93.99,5.79,1.56,4.77,1.47,9.36,3.45,13.91,5.43l12.8-15.11c1.99-2.31,6.8-3.91,8.07.02.54,1.67.52,5.89.55,7.82.18,14-2.28,27.59-5.75,41.05-1.19,4.61-1.41,10.08-7.9,8.67l-60.08-21.32c-3.63-1.62-4.21-4.62-2.72-8.07,6.1-14.06,16.24-32.82,27.16-43.67,1.99-1.98,4.57-2.86,6.49-.11ZM663.95,464.45c1.55-4.38-.74-9.19-5.12-10.74s-9.19.74-10.74,5.12.74,9.19,5.12,10.74,9.19-.74,10.74-5.12ZM689.74,473.6c1.55-4.37-.74-9.18-5.11-10.73s-9.18.74-10.73,5.11c-1.55,4.37.74,9.18,5.11,10.73s9.18-.74,10.73-5.11ZM666.26,474.09l-1.31,3.7.5.18,1.31-3.7s.37.13.77,0c1.1-.36,3.14-1.31,2.44-2.79-.37-.78-3.43-1.84-4.23-1.56-1.78.64-.57,3.34.51,4.16Z"/>
  <circle class="st0" cx="682.09" cy="471.62" r="6.94"/>
  <circle class="st0" cx="656.11" cy="462.4" r="6.94"/>
  <path class="st0" d="M809.6,426c.84,1.21,1.2,3.31,1.29,4.77.39,6.02-.07,12.4.28,18.46l.1.52c1.81.72,3.93.99,5.79,1.56,4.77,1.47,9.36,3.45,13.91,5.43l12.8-15.11c1.99-2.31,6.8-3.91,8.07.02.54,1.67.52,5.89.55,7.82.18,14-2.28,27.59-5.75,41.05-1.19,4.61-1.41,10.08-7.9,8.67l-60.08-21.32c-3.63-1.62-4.21-4.62-2.72-8.07,6.1-14.06,16.24-32.82,27.16-43.67,1.99-1.98,4.57-2.86,6.49-.11ZM811.12,464.45c1.55-4.38-.74-9.19-5.12-10.74s-9.19.74-10.74,5.12.74,9.19,5.12,10.74,9.19-.74,10.74-5.12ZM836.91,473.6c1.55-4.37-.74-9.18-5.11-10.73s-9.18.74-10.73,5.11c-1.55,4.37.74,9.18,5.11,10.73s9.18-.74,10.73-5.11ZM813.44,474.09l-1.31,3.7.5.18,1.31-3.7s.37.13.77,0c1.1-.36,3.14-1.31,2.44-2.79-.37-.78-3.43-1.84-4.23-1.56-1.78.64-.57,3.34.51,4.16Z"/>
  <circle class="st0" cx="829.27" cy="471.62" r="6.94"/>
  <circle class="st0" cx="803.29" cy="462.4" r="6.94"/>
  <path class="st0" d="M956.77,426c.84,1.21,1.2,3.31,1.29,4.77.39,6.02-.07,12.4.28,18.46l.1.52c1.81.72,3.93.99,5.79,1.56,4.77,1.47,9.36,3.45,13.91,5.43l12.8-15.11c1.99-2.31,6.8-3.91,8.07.02.54,1.67.52,5.89.55,7.82.18,14-2.28,27.59-5.75,41.05-1.19,4.61-1.41,10.08-7.9,8.67l-60.08-21.32c-3.63-1.62-4.21-4.62-2.72-8.07,6.1-14.06,16.24-32.82,27.16-43.67,1.99-1.98,4.57-2.86,6.49-.11ZM958.3,464.45c1.55-4.38-.74-9.19-5.12-10.74s-9.19.74-10.74,5.12.74,9.19,5.12,10.74,9.19-.74,10.74-5.12ZM984.08,473.6c1.55-4.37-.74-9.18-5.11-10.73s-9.18.74-10.73,5.11c-1.55,4.37.74,9.18,5.11,10.73s9.18-.74,10.73-5.11ZM960.61,474.09l-1.31,3.7.5.18,1.31-3.7s.37.13.77,0c1.1-.36,3.14-1.31,2.44-2.79-.37-.78-3.43-1.84-4.23-1.56-1.78.64-.57,3.34.51,4.16Z"/>
  <circle class="st0" cx="976.44" cy="471.62" r="6.94"/>
  <circle class="st0" cx="950.46" cy="462.4" r="6.94"/>
  <path class="st0" d="M1103.94,426c.84,1.21,1.2,3.31,1.29,4.77.39,6.02-.07,12.4.28,18.46l.1.52c1.81.72,3.93.99,5.79,1.56,4.77,1.47,9.36,3.45,13.91,5.43l12.8-15.11c1.99-2.31,6.8-3.91,8.07.02.54,1.67.52,5.89.55,7.82.18,14-2.28,27.59-5.75,41.05-1.19,4.61-1.41,10.08-7.9,8.67l-60.08-21.32c-3.63-1.62-4.21-4.62-2.72-8.07,6.1-14.06,16.24-32.82,27.16-43.67,1.99-1.98,4.57-2.86,6.49-.11ZM1105.47,464.45c1.55-4.38-.74-9.19-5.12-10.74s-9.19.74-10.74,5.12.74,9.19,5.12,10.74,9.19-.74,10.74-5.12ZM1131.26,473.6c1.55-4.37-.74-9.18-5.11-10.73s-9.18.74-10.73,5.11c-1.55,4.37.74,9.18,5.11,10.73s9.18-.74,10.73-5.11ZM1107.78,474.09l-1.31,3.7.5.18,1.31-3.7s.37.13.77,0c1.1-.36,3.14-1.31,2.44-2.79-.37-.78-3.43-1.84-4.23-1.56-1.78.64-.57,3.34.51,4.16Z"/>
  <circle class="st0" cx="1123.61" cy="471.62" r="6.94"/>
  <circle class="st0" cx="1097.63" cy="462.4" r="6.94"/>
  <path class="st0" d="M1251.12,426c.84,1.21,1.2,3.31,1.29,4.77.39,6.02-.07,12.4.28,18.46l.1.52c1.81.72,3.93.99,5.79,1.56,4.77,1.47,9.36,3.45,13.91,5.43l12.8-15.11c1.99-2.31,6.8-3.91,8.07.02.54,1.67.52,5.89.55,7.82.18,14-2.28,27.59-5.75,41.05-1.19,4.61-1.41,10.08-7.9,8.67l-60.08-21.32c-3.63-1.62-4.21-4.62-2.72-8.07,6.1-14.06,16.24-32.82,27.16-43.67,1.99-1.98,4.57-2.86,6.49-.11ZM1252.64,464.45c1.55-4.38-.74-9.19-5.12-10.74s-9.19.74-10.74,5.12.74,9.19,5.12,10.74,9.19-.74,10.74-5.12ZM1278.43,473.6c1.55-4.37-.74-9.18-5.11-10.73s-9.18.74-10.73,5.11c-1.55,4.37.74,9.18,5.11,10.73s9.18-.74,10.73-5.11ZM1254.96,474.09l-1.31,3.7.5.18,1.31-3.7s.37.13.77,0c1.1-.36,3.14-1.31,2.44-2.79-.37-.78-3.43-1.84-4.23-1.56-1.78.64-.57,3.34.51,4.16Z"/>
  <circle class="st0" cx="1270.79" cy="471.62" r="6.94"/>
  <circle class="st0" cx="1244.81" cy="462.4" r="6.94"/>
  <path class="st0" d="M123.17,541.98l-4.15,2.6c-3.07,1.93-3.36,6.29-.56,8.6l3.78,3.12c4.25,3.51,8.95,6.49,13.99,8.85l.79.37c3.02,1.42,6.52-.65,6.74-3.98l1.43-21.97c.22-3.33-2.99-5.83-6.16-4.82l-.83.26c-5.3,1.69-10.35,4.03-15.02,6.96Z"/>
  <path class="st0" d="M133.7,552.39c5.33-.58,10.71-.86,16.06-.37,4.78.44,9.31,1.57,13.66,3.61,4.1,1.92,8.03,4.21,11.58,7.02,1.35,1.07,2.62,2.2,3.72,3.38.5.54.97,1.09,1.41,1.67.19.25.38.51.56.77.08.12.17.25.25.38.03.05.07.11.1.16.15.24-.06-.11.02.04.28.51.53,1.03.73,1.58.02.06.04.12.06.19.06.18-.07-.37-.02-.06.02.12.05.23.07.35s.03.23.04.34c.03.23-.03.29,0,0-.03.19-.06.41-.07.6.02-.25.09-.28,0-.05-.03.09-.09.17-.12.26.13-.38.11-.16-.02-.01-.05.05-.28.29-.08.1.25-.23-.7.44-.15.12-.7.4-1.13,1.17-.78,1.97.29.68,1.26,1.19,1.97.78,5.77-3.3-.84-10.52-3.77-13.19-3.38-3.08-7.29-5.57-11.33-7.69-2.34-1.23-4.74-2.39-7.25-3.24s-4.99-1.4-7.55-1.77c-6.46-.93-13.07-.64-19.54.07-1.92.21-1.48,3.18.44,2.97h0Z"/>
  <path class="st0" d="M184.76,569.18c-1.16-.34-3.1,1.07-3.1,1.07-.72.15-4.35,5.19-5.06,7.13-1.56,4.3-.93,7.33-.96,8.47,0,.12.09.21.2.21,1.26,0,6.96.86,9.47-6.04.6-1.65-.17-4.02-.17-4.02.2-.27.53.6,2.05,1.98,1.85,1.68,8.35,2.27,10.73,2.11.39-.03.64-.43.49-.8-.77-1.91-3.73-7.19-13.67-10.12Z"/>
  <path class="st0" d="M154.05,566.46c-.68-.08-1.23-.62-1.31-1.33l-1.63-15.52,12.01-10.7c.62-.55,1.57-.5,2.12.12.55.62.5,1.57-.12,2.12l-10.86,9.68,1.47,13.99c.09.82-.51,1.56-1.34,1.65-.12.01-.23.01-.34,0Z"/>
  <path class="st0" d="M165.07,567.83c-.64-.08-1.18-.56-1.3-1.23l-2.3-13.17,11.62-8.24c.68-.48,1.61-.32,2.09.36.48.68.32,1.61-.36,2.09l-10.08,7.14,1.97,11.31c.14.82-.4,1.59-1.22,1.74-.15.03-.3.03-.44.01Z"/>
  <path class="st0" d="M173.5,571.99c-.77-.09-1.35-.77-1.31-1.56l.52-10.65,10.47-4.37c.77-.32,1.64.04,1.96.81.32.77-.04,1.64-.81,1.96l-8.72,3.64-.43,8.76c-.04.83-.74,1.47-1.57,1.42-.04,0-.07,0-.11,0Z"/>
  <path class="st0" d="M279.53,541.98l-4.15,2.6c-3.07,1.93-3.36,6.29-.56,8.6l3.78,3.12c4.25,3.51,8.95,6.49,13.99,8.85l.79.37c3.02,1.42,6.52-.65,6.74-3.98l1.43-21.97c.22-3.33-2.99-5.83-6.16-4.82l-.83.26c-5.3,1.69-10.35,4.03-15.02,6.96Z"/>
  <path class="st0" d="M290.06,552.39c5.33-.58,10.71-.86,16.06-.37,4.78.44,9.31,1.57,13.66,3.61,4.1,1.92,8.03,4.21,11.58,7.02,1.35,1.07,2.62,2.2,3.72,3.38.5.54.97,1.09,1.41,1.67.19.25.38.51.56.77.08.12.17.25.25.38.03.05.07.11.1.16.15.24-.06-.11.02.04.28.51.53,1.03.73,1.58.02.06.04.12.06.19.06.18-.07-.37-.02-.06.02.12.05.23.07.35s.03.23.04.34c.03.23-.03.29,0,0-.03.19-.06.41-.07.6.02-.25.09-.28,0-.05-.03.09-.09.17-.12.26.13-.38.11-.16-.02-.01-.05.05-.28.29-.08.1.25-.23-.7.44-.15.12-.7.4-1.13,1.17-.78,1.97.29.68,1.26,1.19,1.97.78,5.77-3.3-.84-10.52-3.77-13.19-3.38-3.08-7.29-5.57-11.33-7.69-2.34-1.23-4.74-2.39-7.25-3.24s-4.99-1.4-7.55-1.77c-6.46-.93-13.07-.64-19.54.07-1.92.21-1.48,3.18.44,2.97h0Z"/>
  <path class="st0" d="M341.11,569.18c-1.16-.34-3.1,1.07-3.1,1.07-.72.15-4.35,5.19-5.06,7.13-1.56,4.3-.93,7.33-.96,8.47,0,.12.09.21.2.21,1.26,0,6.96.86,9.47-6.04.6-1.65-.17-4.02-.17-4.02.2-.27.53.6,2.05,1.98,1.85,1.68,8.35,2.27,10.73,2.11.39-.03.64-.43.49-.8-.77-1.91-3.73-7.19-13.67-10.12Z"/>
  <path class="st0" d="M310.41,566.46c-.68-.08-1.23-.62-1.31-1.33l-1.63-15.52,12.01-10.7c.62-.55,1.57-.5,2.12.12.55.62.5,1.57-.12,2.12l-10.86,9.68,1.47,13.99c.09.82-.51,1.56-1.34,1.65-.12.01-.23.01-.34,0Z"/>
  <path class="st0" d="M321.43,567.83c-.64-.08-1.18-.56-1.3-1.23l-2.3-13.17,11.62-8.24c.68-.48,1.61-.32,2.09.36.48.68.32,1.61-.36,2.09l-10.08,7.14,1.97,11.31c.14.82-.4,1.59-1.22,1.74-.15.03-.3.03-.44.01Z"/>
  <path class="st0" d="M329.86,571.99c-.77-.09-1.35-.77-1.31-1.56l.52-10.65,10.47-4.37c.77-.32,1.64.04,1.96.81.32.77-.04,1.64-.81,1.96l-8.72,3.64-.43,8.76c-.04.83-.74,1.47-1.57,1.42-.04,0-.07,0-.11,0Z"/>
  <path class="st0" d="M433.65,541.98l-4.15,2.6c-3.07,1.93-3.36,6.29-.56,8.6l3.78,3.12c4.25,3.51,8.95,6.49,13.99,8.85l.79.37c3.02,1.42,6.52-.65,6.74-3.98l1.43-21.97c.22-3.33-2.99-5.83-6.16-4.82l-.83.26c-5.3,1.69-10.35,4.03-15.02,6.96Z"/>
  <path class="st0" d="M444.17,552.39c5.33-.58,10.71-.86,16.06-.37,4.78.44,9.31,1.57,13.66,3.61,4.1,1.92,8.03,4.21,11.58,7.02,1.35,1.07,2.62,2.2,3.72,3.38.5.54.97,1.09,1.41,1.67.19.25.38.51.56.77.08.12.17.25.25.38.03.05.07.11.1.16.15.24-.06-.11.02.04.28.51.53,1.03.73,1.58.02.06.04.12.06.19.06.18-.07-.37-.02-.06.02.12.05.23.07.35s.03.23.04.34c.03.23-.03.29,0,0-.03.19-.06.41-.07.6.02-.25.09-.28,0-.05-.03.09-.09.17-.12.26.13-.38.11-.16-.02-.01-.05.05-.28.29-.08.1.25-.23-.7.44-.15.12-.7.4-1.13,1.17-.78,1.97.29.68,1.26,1.19,1.97.78,5.77-3.3-.84-10.52-3.77-13.19-3.38-3.08-7.29-5.57-11.33-7.69-2.34-1.23-4.74-2.39-7.25-3.24s-4.99-1.4-7.55-1.77c-6.46-.93-13.07-.64-19.54.07-1.92.21-1.48,3.18.44,2.97h0Z"/>
  <path class="st0" d="M495.23,569.18c-1.16-.34-3.1,1.07-3.1,1.07-.72.15-4.35,5.19-5.06,7.13-1.56,4.3-.93,7.33-.96,8.47,0,.12.09.21.2.21,1.26,0,6.96.86,9.47-6.04.6-1.65-.17-4.02-.17-4.02.2-.27.53.6,2.05,1.98,1.85,1.68,8.35,2.27,10.73,2.11.39-.03.64-.43.49-.8-.77-1.91-3.73-7.19-13.67-10.12Z"/>
  <path class="st0" d="M464.53,566.46c-.68-.08-1.23-.62-1.31-1.33l-1.63-15.52,12.01-10.7c.62-.55,1.57-.5,2.12.12.55.62.5,1.57-.12,2.12l-10.86,9.68,1.47,13.99c.09.82-.51,1.56-1.34,1.65-.12.01-.23.01-.34,0Z"/>
  <path class="st0" d="M475.55,567.83c-.64-.08-1.18-.56-1.3-1.23l-2.3-13.17,11.62-8.24c.68-.48,1.61-.32,2.09.36.48.68.32,1.61-.36,2.09l-10.08,7.14,1.97,11.31c.14.82-.4,1.59-1.22,1.74-.15.03-.3.03-.44.01Z"/>
  <path class="st0" d="M483.98,571.99c-.77-.09-1.35-.77-1.31-1.56l.52-10.65,10.47-4.37c.77-.32,1.64.04,1.96.81.32.77-.04,1.64-.81,1.96l-8.72,3.64-.43,8.76c-.04.83-.74,1.47-1.57,1.42-.04,0-.07,0-.11,0Z"/>
  <path class="st0" d="M587.76,541.98l-4.15,2.6c-3.07,1.93-3.36,6.29-.56,8.6l3.78,3.12c4.25,3.51,8.95,6.49,13.99,8.85l.79.37c3.02,1.42,6.52-.65,6.74-3.98l1.43-21.97c.22-3.33-2.99-5.83-6.16-4.82l-.83.26c-5.3,1.69-10.35,4.03-15.02,6.96Z"/>
  <path class="st0" d="M598.29,552.39c5.33-.58,10.71-.86,16.06-.37,4.78.44,9.31,1.57,13.66,3.61,4.1,1.92,8.03,4.21,11.58,7.02,1.35,1.07,2.62,2.2,3.72,3.38.5.54.97,1.09,1.41,1.67.19.25.38.51.56.77.08.12.17.25.25.38.03.05.07.11.1.16.15.24-.06-.11.02.04.28.51.53,1.03.73,1.58.02.06.04.12.06.19.06.18-.07-.37-.02-.06.02.12.05.23.07.35s.03.23.04.34c.03.23-.03.29,0,0-.03.19-.06.41-.07.6.02-.25.09-.28,0-.05-.03.09-.09.17-.12.26.13-.38.11-.16-.02-.01-.05.05-.28.29-.08.1.25-.23-.7.44-.15.12-.7.4-1.13,1.17-.78,1.97.29.68,1.26,1.19,1.97.78,5.77-3.3-.84-10.52-3.77-13.19-3.38-3.08-7.29-5.57-11.33-7.69-2.34-1.23-4.74-2.39-7.25-3.24s-4.99-1.4-7.55-1.77c-6.46-.93-13.07-.64-19.54.07-1.92.21-1.48,3.18.44,2.97h0Z"/>
  <path class="st0" d="M649.34,569.18c-1.16-.34-3.1,1.07-3.1,1.07-.72.15-4.35,5.19-5.06,7.13-1.56,4.3-.93,7.33-.96,8.47,0,.12.09.21.2.21,1.26,0,6.96.86,9.47-6.04.6-1.65-.17-4.02-.17-4.02.2-.27.53.6,2.05,1.98,1.85,1.68,8.35,2.27,10.73,2.11.39-.03.64-.43.49-.8-.77-1.91-3.73-7.19-13.67-10.12Z"/>
  <path class="st0" d="M618.64,566.46c-.68-.08-1.23-.62-1.31-1.33l-1.63-15.52,12.01-10.7c.62-.55,1.57-.5,2.12.12.55.62.5,1.57-.12,2.12l-10.86,9.68,1.47,13.99c.09.82-.51,1.56-1.34,1.65-.12.01-.23.01-.34,0Z"/>
  <path class="st0" d="M629.66,567.83c-.64-.08-1.18-.56-1.3-1.23l-2.3-13.17,11.62-8.24c.68-.48,1.61-.32,2.09.36.48.68.32,1.61-.36,2.09l-10.08,7.14,1.97,11.31c.14.82-.4,1.59-1.22,1.74-.15.03-.3.03-.44.01Z"/>
  <path class="st0" d="M638.09,571.99c-.77-.09-1.35-.77-1.31-1.56l.52-10.65,10.47-4.37c.77-.32,1.64.04,1.96.81.32.77-.04,1.64-.81,1.96l-8.72,3.64-.43,8.76c-.04.83-.74,1.47-1.57,1.42-.04,0-.07,0-.11,0Z"/>
  <path class="st0" d="M741.88,541.98l-4.15,2.6c-3.07,1.93-3.36,6.29-.56,8.6l3.78,3.12c4.25,3.51,8.95,6.49,13.99,8.85l.79.37c3.02,1.42,6.52-.65,6.74-3.98l1.43-21.97c.22-3.33-2.99-5.83-6.16-4.82l-.83.26c-5.3,1.69-10.35,4.03-15.02,6.96Z"/>
  <path class="st0" d="M752.4,552.39c5.33-.58,10.71-.86,16.06-.37,4.78.44,9.31,1.57,13.66,3.61,4.1,1.92,8.03,4.21,11.58,7.02,1.35,1.07,2.62,2.2,3.72,3.38.5.54.97,1.09,1.41,1.67.19.25.38.51.56.77.08.12.17.25.25.38.03.05.07.11.1.16.15.24-.06-.11.02.04.28.51.53,1.03.73,1.58.02.06.04.12.06.19.06.18-.07-.37-.02-.06.02.12.05.23.07.35s.03.23.04.34c.03.23-.03.29,0,0-.03.19-.06.41-.07.6.02-.25.09-.28,0-.05-.03.09-.09.17-.12.26.13-.38.11-.16-.02-.01-.05.05-.28.29-.08.1.25-.23-.7.44-.15.12-.7.4-1.13,1.17-.78,1.97.29.68,1.26,1.19,1.97.78,5.77-3.3-.84-10.52-3.77-13.19-3.38-3.08-7.29-5.57-11.33-7.69-2.34-1.23-4.74-2.39-7.25-3.24s-4.99-1.4-7.55-1.77c-6.46-.93-13.07-.64-19.54.07-1.92.21-1.48,3.18.44,2.97h0Z"/>
  <path class="st0" d="M803.46,569.18c-1.16-.34-3.1,1.07-3.1,1.07-.72.15-4.35,5.19-5.06,7.13-1.56,4.3-.93,7.33-.96,8.47,0,.12.09.21.2.21,1.26,0,6.96.86,9.47-6.04.6-1.65-.17-4.02-.17-4.02.2-.27.53.6,2.05,1.98,1.85,1.68,8.35,2.27,10.73,2.11.39-.03.64-.43.49-.8-.77-1.91-3.73-7.19-13.67-10.12Z"/>
  <path class="st0" d="M772.76,566.46c-.68-.08-1.23-.62-1.31-1.33l-1.63-15.52,12.01-10.7c.62-.55,1.57-.5,2.12.12.55.62.5,1.57-.12,2.12l-10.86,9.68,1.47,13.99c.09.82-.51,1.56-1.34,1.65-.12.01-.23.01-.34,0Z"/>
  <path class="st0" d="M783.78,567.83c-.64-.08-1.18-.56-1.3-1.23l-2.3-13.17,11.62-8.24c.68-.48,1.61-.32,2.09.36.48.68.32,1.61-.36,2.09l-10.08,7.14,1.97,11.31c.14.82-.4,1.59-1.22,1.74-.15.03-.3.03-.44.01Z"/>
  <path class="st0" d="M792.21,571.99c-.77-.09-1.35-.77-1.31-1.56l.52-10.65,10.47-4.37c.77-.32,1.64.04,1.96.81.32.77-.04,1.64-.81,1.96l-8.72,3.64-.43,8.76c-.04.83-.74,1.47-1.57,1.42-.04,0-.07,0-.11,0Z"/>
  <path class="st0" d="M895.99,541.98l-4.15,2.6c-3.07,1.93-3.36,6.29-.56,8.6l3.78,3.12c4.25,3.51,8.95,6.49,13.99,8.85l.79.37c3.02,1.42,6.52-.65,6.74-3.98l1.43-21.97c.22-3.33-2.99-5.83-6.16-4.82l-.83.26c-5.3,1.69-10.35,4.03-15.02,6.96Z"/>
  <path class="st0" d="M906.51,552.39c5.33-.58,10.71-.86,16.06-.37,4.78.44,9.31,1.57,13.66,3.61,4.1,1.92,8.03,4.21,11.58,7.02,1.35,1.07,2.62,2.2,3.72,3.38.5.54.97,1.09,1.41,1.67.19.25.38.51.56.77.08.12.17.25.25.38.03.05.07.11.1.16.15.24-.06-.11.02.04.28.51.53,1.03.73,1.58.02.06.04.12.06.19.06.18-.07-.37-.02-.06.02.12.05.23.07.35s.03.23.04.34c.03.23-.03.29,0,0-.03.19-.06.41-.07.6.02-.25.09-.28,0-.05-.03.09-.09.17-.12.26.13-.38.11-.16-.02-.01-.05.05-.28.29-.08.1.25-.23-.7.44-.15.12-.7.4-1.13,1.17-.78,1.97.29.68,1.26,1.19,1.97.78,5.77-3.3-.84-10.52-3.77-13.19-3.38-3.08-7.29-5.57-11.33-7.69-2.34-1.23-4.74-2.39-7.25-3.24s-4.99-1.4-7.55-1.77c-6.46-.93-13.07-.64-19.54.07-1.92.21-1.48,3.18.44,2.97h0Z"/>
  <path class="st0" d="M957.57,569.18c-1.16-.34-3.1,1.07-3.1,1.07-.72.15-4.35,5.19-5.06,7.13-1.56,4.3-.93,7.33-.96,8.47,0,.12.09.21.2.21,1.26,0,6.96.86,9.47-6.04.6-1.65-.17-4.02-.17-4.02.2-.27.53.6,2.05,1.98,1.85,1.68,8.35,2.27,10.73,2.11.39-.03.64-.43.49-.8-.77-1.91-3.73-7.19-13.67-10.12Z"/>
  <path class="st0" d="M926.87,566.46c-.68-.08-1.23-.62-1.31-1.33l-1.63-15.52,12.01-10.7c.62-.55,1.57-.5,2.12.12.55.62.5,1.57-.12,2.12l-10.86,9.68,1.47,13.99c.09.82-.51,1.56-1.34,1.65-.12.01-.23.01-.34,0Z"/>
  <path class="st0" d="M937.89,567.83c-.64-.08-1.18-.56-1.3-1.23l-2.3-13.17,11.62-8.24c.68-.48,1.61-.32,2.09.36.48.68.32,1.61-.36,2.09l-10.08,7.14,1.97,11.31c.14.82-.4,1.59-1.22,1.74-.15.03-.3.03-.44.01Z"/>
  <path class="st0" d="M946.32,571.99c-.77-.09-1.35-.77-1.31-1.56l.52-10.65,10.47-4.37c.77-.32,1.64.04,1.96.81.32.77-.04,1.64-.81,1.96l-8.72,3.64-.43,8.76c-.04.83-.74,1.47-1.57,1.42-.04,0-.07,0-.11,0Z"/>
  <path class="st0" d="M1050.1,541.98l-4.15,2.6c-3.07,1.93-3.36,6.29-.56,8.6l3.78,3.12c4.25,3.51,8.95,6.49,13.99,8.85l.79.37c3.02,1.42,6.52-.65,6.74-3.98l1.43-21.97c.22-3.33-2.99-5.83-6.16-4.82l-.83.26c-5.3,1.69-10.35,4.03-15.02,6.96Z"/>
  <path class="st0" d="M1060.63,552.39c5.33-.58,10.71-.86,16.06-.37,4.78.44,9.31,1.57,13.66,3.61,4.1,1.92,8.03,4.21,11.58,7.02,1.35,1.07,2.62,2.2,3.72,3.38.5.54.97,1.09,1.41,1.67.19.25.38.51.56.77.08.12.17.25.25.38.03.05.07.11.1.16.15.24-.06-.11.02.04.28.51.53,1.03.73,1.58.02.06.04.12.06.19.06.18-.07-.37-.02-.06.02.12.05.23.07.35s.03.23.04.34c.03.23-.03.29,0,0-.03.19-.06.41-.07.6.02-.25.09-.28,0-.05-.03.09-.09.17-.12.26.13-.38.11-.16-.02-.01-.05.05-.28.29-.08.1.25-.23-.7.44-.15.12-.7.4-1.13,1.17-.78,1.97.29.68,1.26,1.19,1.97.78,5.77-3.3-.84-10.52-3.77-13.19-3.38-3.08-7.29-5.57-11.33-7.69-2.34-1.23-4.74-2.39-7.25-3.24s-4.99-1.4-7.55-1.77c-6.46-.93-13.07-.64-19.54.07-1.92.21-1.48,3.18.44,2.97h0Z"/>
  <path class="st0" d="M1111.69,569.18c-1.16-.34-3.1,1.07-3.1,1.07-.72.15-4.35,5.19-5.06,7.13-1.56,4.3-.93,7.33-.96,8.47,0,.12.09.21.2.21,1.26,0,6.96.86,9.47-6.04.6-1.65-.17-4.02-.17-4.02.2-.27.53.6,2.05,1.98,1.85,1.68,8.35,2.27,10.73,2.11.39-.03.64-.43.49-.8-.77-1.91-3.73-7.19-13.67-10.12Z"/>
  <path class="st0" d="M1080.99,566.46c-.68-.08-1.23-.62-1.31-1.33l-1.63-15.52,12.01-10.7c.62-.55,1.57-.5,2.12.12.55.62.5,1.57-.12,2.12l-10.86,9.68,1.47,13.99c.09.82-.51,1.56-1.34,1.65-.12.01-.23.01-.34,0Z"/>
  <path class="st0" d="M1092.01,567.83c-.64-.08-1.18-.56-1.3-1.23l-2.3-13.17,11.62-8.24c.68-.48,1.61-.32,2.09.36.48.68.32,1.61-.36,2.09l-10.08,7.14,1.97,11.31c.14.82-.4,1.59-1.22,1.74-.15.03-.3.03-.44.01Z"/>
  <path class="st0" d="M1100.44,571.99c-.77-.09-1.35-.77-1.31-1.56l.52-10.65,10.47-4.37c.77-.32,1.64.04,1.96.81.32.77-.04,1.64-.81,1.96l-8.72,3.64-.43,8.76c-.04.83-.74,1.47-1.57,1.42-.04,0-.07,0-.11,0Z"/>
  <path class="st0" d="M1204.22,541.98l-4.15,2.6c-3.07,1.93-3.36,6.29-.56,8.6l3.78,3.12c4.25,3.51,8.95,6.49,13.99,8.85l.79.37c3.02,1.42,6.52-.65,6.74-3.98l1.43-21.97c.22-3.33-2.99-5.83-6.16-4.82l-.83.26c-5.3,1.69-10.35,4.03-15.02,6.96Z"/>
  <path class="st0" d="M1214.74,552.39c5.33-.58,10.71-.86,16.06-.37,4.78.44,9.31,1.57,13.66,3.61,4.1,1.92,8.03,4.21,11.58,7.02,1.35,1.07,2.62,2.2,3.72,3.38.5.54.97,1.09,1.41,1.67.19.25.38.51.56.77.08.12.17.25.25.38.03.05.07.11.1.16.15.24-.06-.11.02.04.28.51.53,1.03.73,1.58.02.06.04.12.06.19.06.18-.07-.37-.02-.06.02.12.05.23.07.35s.03.23.04.34c.03.23-.03.29,0,0-.03.19-.06.41-.07.6.02-.25.09-.28,0-.05-.03.09-.09.17-.12.26.13-.38.11-.16-.02-.01-.05.05-.28.29-.08.1.25-.23-.7.44-.15.12-.7.4-1.13,1.17-.78,1.97.29.68,1.26,1.19,1.97.78,5.77-3.3-.84-10.52-3.77-13.19-3.38-3.08-7.29-5.57-11.33-7.69-2.34-1.23-4.74-2.39-7.25-3.24-2.45-.82-4.99-1.4-7.55-1.77-6.46-.93-13.07-.64-19.54.07-1.92.21-1.48,3.18.44,2.97h0Z"/>
  <path class="st0" d="M1265.8,569.18c-1.16-.34-3.1,1.07-3.1,1.07-.72.15-4.35,5.19-5.06,7.13-1.56,4.3-.93,7.33-.96,8.47,0,.12.09.21.2.21,1.26,0,6.96.86,9.47-6.04.6-1.65-.17-4.02-.17-4.02.2-.27.53.6,2.05,1.98,1.85,1.68,8.35,2.27,10.73,2.11.39-.03.64-.43.49-.8-.77-1.91-3.73-7.19-13.67-10.12Z"/>
  <path class="st0" d="M1235.1,566.46c-.68-.08-1.23-.62-1.31-1.33l-1.63-15.52,12.01-10.7c.62-.55,1.57-.5,2.12.12.55.62.5,1.57-.12,2.12l-10.86,9.68,1.47,13.99c.09.82-.51,1.56-1.34,1.65-.12.01-.23.01-.34,0Z"/>
  <path class="st0" d="M1246.12,567.83c-.64-.08-1.18-.56-1.3-1.23l-2.3-13.17,11.62-8.24c.68-.48,1.61-.32,2.09.36.48.68.32,1.61-.36,2.09l-10.08,7.14,1.97,11.31c.14.82-.4,1.59-1.22,1.74-.15.03-.3.03-.44.01Z"/>
  <path class="st0" d="M1254.55,571.99c-.77-.09-1.35-.77-1.31-1.56l.52-10.65,10.47-4.37c.77-.32,1.64.04,1.96.81.32.77-.04,1.64-.81,1.96l-8.72,3.64-.43,8.76c-.04.83-.74,1.47-1.57,1.42-.04,0-.07,0-.11,0Z"/>
  <path class="st0" d="M73.73,626.48c.84,1.21,1.2,3.31,1.29,4.77.39,6.02-.07,12.4.28,18.46l.1.52c1.81.72,3.93.99,5.79,1.56,4.77,1.47,9.36,3.45,13.91,5.43l12.8-15.11c1.99-2.31,6.8-3.91,8.07.02.54,1.67.52,5.89.55,7.82.18,14-2.28,27.59-5.75,41.05-1.19,4.61-1.41,10.08-7.9,8.67l-60.08-21.32c-3.63-1.62-4.21-4.62-2.72-8.07,6.1-14.06,16.24-32.82,27.16-43.67,1.99-1.98,4.57-2.86,6.49-.11ZM75.26,664.93c1.55-4.38-.74-9.19-5.12-10.74-4.38-1.55-9.19.74-10.74,5.12s.74,9.19,5.12,10.74,9.19-.74,10.74-5.12ZM101.04,674.07c1.55-4.37-.74-9.18-5.11-10.73-4.37-1.55-9.18.74-10.73,5.11s.74,9.18,5.11,10.73c4.37,1.55,9.18-.74,10.73-5.11ZM77.57,674.57l-1.31,3.7.5.18,1.31-3.7s.37.13.77,0c1.1-.36,3.14-1.31,2.44-2.79-.37-.78-3.43-1.84-4.23-1.56-1.78.64-.57,3.34.51,4.16Z"/>
  <circle class="st0" cx="93.4" cy="672.1" r="6.94"/>
  <circle class="st0" cx="67.42" cy="662.88" r="6.94"/>
  <path class="st0" d="M220.9,626.48c.84,1.21,1.2,3.31,1.29,4.77.39,6.02-.07,12.4.28,18.46l.1.52c1.81.72,3.93.99,5.79,1.56,4.77,1.47,9.36,3.45,13.91,5.43l12.8-15.11c1.99-2.31,6.8-3.91,8.07.02.54,1.67.52,5.89.55,7.82.18,14-2.28,27.59-5.75,41.05-1.19,4.61-1.41,10.08-7.9,8.67l-60.08-21.32c-3.63-1.62-4.21-4.62-2.72-8.07,6.1-14.06,16.24-32.82,27.16-43.67,1.99-1.98,4.57-2.86,6.49-.11ZM222.43,664.93c1.55-4.38-.74-9.19-5.12-10.74-4.38-1.55-9.19.74-10.74,5.12s.74,9.19,5.12,10.74,9.19-.74,10.74-5.12ZM248.22,674.07c1.55-4.37-.74-9.18-5.11-10.73-4.37-1.55-9.18.74-10.73,5.11s.74,9.18,5.11,10.73c4.37,1.55,9.18-.74,10.73-5.11ZM224.74,674.57l-1.31,3.7.5.18,1.31-3.7s.37.13.77,0c1.1-.36,3.14-1.31,2.44-2.79-.37-.78-3.43-1.84-4.23-1.56-1.78.64-.57,3.34.51,4.16Z"/>
  <circle class="st0" cx="240.57" cy="672.1" r="6.94"/>
  <circle class="st0" cx="214.59" cy="662.88" r="6.94"/>
  <path class="st0" d="M368.08,626.48c.84,1.21,1.2,3.31,1.29,4.77.39,6.02-.07,12.4.28,18.46l.1.52c1.81.72,3.93.99,5.79,1.56,4.77,1.47,9.36,3.45,13.91,5.43l12.8-15.11c1.99-2.31,6.8-3.91,8.07.02.54,1.67.52,5.89.55,7.82.18,14-2.28,27.59-5.75,41.05-1.19,4.61-1.41,10.08-7.9,8.67l-60.08-21.32c-3.63-1.62-4.21-4.62-2.72-8.07,6.1-14.06,16.24-32.82,27.16-43.67,1.99-1.98,4.57-2.86,6.49-.11ZM369.6,664.93c1.55-4.38-.74-9.19-5.12-10.74-4.38-1.55-9.19.74-10.74,5.12s.74,9.19,5.12,10.74,9.19-.74,10.74-5.12ZM395.39,674.07c1.55-4.37-.74-9.18-5.11-10.73-4.37-1.55-9.18.74-10.73,5.11-1.55,4.37.74,9.18,5.11,10.73,4.37,1.55,9.18-.74,10.73-5.11ZM371.92,674.57l-1.31,3.7.5.18,1.31-3.7s.37.13.77,0c1.1-.36,3.14-1.31,2.44-2.79-.37-.78-3.43-1.84-4.23-1.56-1.78.64-.57,3.34.51,4.16Z"/>
  <circle class="st0" cx="387.75" cy="672.1" r="6.94"/>
  <circle class="st0" cx="361.77" cy="662.88" r="6.94"/>
  <path class="st0" d="M515.25,626.48c.84,1.21,1.2,3.31,1.29,4.77.39,6.02-.07,12.4.28,18.46l.1.52c1.81.72,3.93.99,5.79,1.56,4.77,1.47,9.36,3.45,13.91,5.43l12.8-15.11c1.99-2.31,6.8-3.91,8.07.02.54,1.67.52,5.89.55,7.82.18,14-2.28,27.59-5.75,41.05-1.19,4.61-1.41,10.08-7.9,8.67l-60.08-21.32c-3.63-1.62-4.21-4.62-2.72-8.07,6.1-14.06,16.24-32.82,27.16-43.67,1.99-1.98,4.57-2.86,6.49-.11ZM516.78,664.93c1.55-4.38-.74-9.19-5.12-10.74-4.38-1.55-9.19.74-10.74,5.12s.74,9.19,5.12,10.74,9.19-.74,10.74-5.12ZM542.56,674.07c1.55-4.37-.74-9.18-5.11-10.73-4.37-1.55-9.18.74-10.73,5.11-1.55,4.37.74,9.18,5.11,10.73,4.37,1.55,9.18-.74,10.73-5.11ZM519.09,674.57l-1.31,3.7.5.18,1.31-3.7s.37.13.77,0c1.1-.36,3.14-1.31,2.44-2.79-.37-.78-3.43-1.84-4.23-1.56-1.78.64-.57,3.34.51,4.16Z"/>
  <circle class="st0" cx="534.92" cy="672.1" r="6.94"/>
  <circle class="st0" cx="508.94" cy="662.88" r="6.94"/>
  <path class="st0" d="M662.42,626.48c.84,1.21,1.2,3.31,1.29,4.77.39,6.02-.07,12.4.28,18.46l.1.52c1.81.72,3.93.99,5.79,1.56,4.77,1.47,9.36,3.45,13.91,5.43l12.8-15.11c1.99-2.31,6.8-3.91,8.07.02.54,1.67.52,5.89.55,7.82.18,14-2.28,27.59-5.75,41.05-1.19,4.61-1.41,10.08-7.9,8.67l-60.08-21.32c-3.63-1.62-4.21-4.62-2.72-8.07,6.1-14.06,16.24-32.82,27.16-43.67,1.99-1.98,4.57-2.86,6.49-.11ZM663.95,664.93c1.55-4.38-.74-9.19-5.12-10.74-4.38-1.55-9.19.74-10.74,5.12s.74,9.19,5.12,10.74,9.19-.74,10.74-5.12ZM689.74,674.07c1.55-4.37-.74-9.18-5.11-10.73-4.37-1.55-9.18.74-10.73,5.11-1.55,4.37.74,9.18,5.11,10.73,4.37,1.55,9.18-.74,10.73-5.11ZM666.26,674.57l-1.31,3.7.5.18,1.31-3.7s.37.13.77,0c1.1-.36,3.14-1.31,2.44-2.79-.37-.78-3.43-1.84-4.23-1.56-1.78.64-.57,3.34.51,4.16Z"/>
  <circle class="st0" cx="682.09" cy="672.1" r="6.94"/>
  <circle class="st0" cx="656.11" cy="662.88" r="6.94"/>
  <path class="st0" d="M809.6,626.48c.84,1.21,1.2,3.31,1.29,4.77.39,6.02-.07,12.4.28,18.46l.1.52c1.81.72,3.93.99,5.79,1.56,4.77,1.47,9.36,3.45,13.91,5.43l12.8-15.11c1.99-2.31,6.8-3.91,8.07.02.54,1.67.52,5.89.55,7.82.18,14-2.28,27.59-5.75,41.05-1.19,4.61-1.41,10.08-7.9,8.67l-60.08-21.32c-3.63-1.62-4.21-4.62-2.72-8.07,6.1-14.06,16.24-32.82,27.16-43.67,1.99-1.98,4.57-2.86,6.49-.11ZM811.12,664.93c1.55-4.38-.74-9.19-5.12-10.74-4.38-1.55-9.19.74-10.74,5.12s.74,9.19,5.12,10.74,9.19-.74,10.74-5.12ZM836.91,674.07c1.55-4.37-.74-9.18-5.11-10.73-4.37-1.55-9.18.74-10.73,5.11-1.55,4.37.74,9.18,5.11,10.73,4.37,1.55,9.18-.74,10.73-5.11ZM813.44,674.57l-1.31,3.7.5.18,1.31-3.7s.37.13.77,0c1.1-.36,3.14-1.31,2.44-2.79-.37-.78-3.43-1.84-4.23-1.56-1.78.64-.57,3.34.51,4.16Z"/>
  <circle class="st0" cx="829.27" cy="672.1" r="6.94"/>
  <circle class="st0" cx="803.29" cy="662.88" r="6.94"/>
  <path class="st0" d="M956.77,626.48c.84,1.21,1.2,3.31,1.29,4.77.39,6.02-.07,12.4.28,18.46l.1.52c1.81.72,3.93.99,5.79,1.56,4.77,1.47,9.36,3.45,13.91,5.43l12.8-15.11c1.99-2.31,6.8-3.91,8.07.02.54,1.67.52,5.89.55,7.82.18,14-2.28,27.59-5.75,41.05-1.19,4.61-1.41,10.08-7.9,8.67l-60.08-21.32c-3.63-1.62-4.21-4.62-2.72-8.07,6.1-14.06,16.24-32.82,27.16-43.67,1.99-1.98,4.57-2.86,6.49-.11ZM958.3,664.93c1.55-4.38-.74-9.19-5.12-10.74-4.38-1.55-9.19.74-10.74,5.12s.74,9.19,5.12,10.74,9.19-.74,10.74-5.12ZM984.08,674.07c1.55-4.37-.74-9.18-5.11-10.73-4.37-1.55-9.18.74-10.73,5.11-1.55,4.37.74,9.18,5.11,10.73,4.37,1.55,9.18-.74,10.73-5.11ZM960.61,674.57l-1.31,3.7.5.18,1.31-3.7s.37.13.77,0c1.1-.36,3.14-1.31,2.44-2.79-.37-.78-3.43-1.84-4.23-1.56-1.78.64-.57,3.34.51,4.16Z"/>
  <circle class="st0" cx="976.44" cy="672.1" r="6.94"/>
  <circle class="st0" cx="950.46" cy="662.88" r="6.94"/>
  <path class="st0" d="M1103.94,626.48c.84,1.21,1.2,3.31,1.29,4.77.39,6.02-.07,12.4.28,18.46l.1.52c1.81.72,3.93.99,5.79,1.56,4.77,1.47,9.36,3.45,13.91,5.43l12.8-15.11c1.99-2.31,6.8-3.91,8.07.02.54,1.67.52,5.89.55,7.82.18,14-2.28,27.59-5.75,41.05-1.19,4.61-1.41,10.08-7.9,8.67l-60.08-21.32c-3.63-1.62-4.21-4.62-2.72-8.07,6.1-14.06,16.24-32.82,27.16-43.67,1.99-1.98,4.57-2.86,6.49-.11ZM1105.47,664.93c1.55-4.38-.74-9.19-5.12-10.74-4.38-1.55-9.19.74-10.74,5.12s.74,9.19,5.12,10.74,9.19-.74,10.74-5.12ZM1131.26,674.07c1.55-4.37-.74-9.18-5.11-10.73-4.37-1.55-9.18.74-10.73,5.11-1.55,4.37.74,9.18,5.11,10.73,4.37,1.55,9.18-.74,10.73-5.11ZM1107.78,674.57l-1.31,3.7.5.18,1.31-3.7s.37.13.77,0c1.1-.36,3.14-1.31,2.44-2.79-.37-.78-3.43-1.84-4.23-1.56-1.78.64-.57,3.34.51,4.16Z"/>
  <circle class="st0" cx="1123.61" cy="672.1" r="6.94"/>
  <circle class="st0" cx="1097.63" cy="662.88" r="6.94"/>
  <path class="st0" d="M1251.12,626.48c.84,1.21,1.2,3.31,1.29,4.77.39,6.02-.07,12.4.28,18.46l.1.52c1.81.72,3.93.99,5.79,1.56,4.77,1.47,9.36,3.45,13.91,5.43l12.8-15.11c1.99-2.31,6.8-3.91,8.07.02.54,1.67.52,5.89.55,7.82.18,14-2.28,27.59-5.75,41.05-1.19,4.61-1.41,10.08-7.9,8.67l-60.08-21.32c-3.63-1.62-4.21-4.62-2.72-8.07,6.1-14.06,16.24-32.82,27.16-43.67,1.99-1.98,4.57-2.86,6.49-.11ZM1252.64,664.93c1.55-4.38-.74-9.19-5.12-10.74-4.38-1.55-9.19.74-10.74,5.12s.74,9.19,5.12,10.74,9.19-.74,10.74-5.12ZM1278.43,674.07c1.55-4.37-.74-9.18-5.11-10.73-4.37-1.55-9.18.74-10.73,5.11-1.55,4.37.74,9.18,5.11,10.73,4.37,1.55,9.18-.74,10.73-5.11ZM1254.96,674.57l-1.31,3.7.5.18,1.31-3.7s.37.13.77,0c1.1-.36,3.14-1.31,2.44-2.79-.37-.78-3.43-1.84-4.23-1.56-1.78.64-.57,3.34.51,4.16Z"/>
  <circle class="st0" cx="1270.79" cy="672.1" r="6.94"/>
  <circle class="st0" cx="1244.81" cy="662.88" r="6.94"/>
  <path class="st0" d="M123.17,742.45l-4.15,2.6c-3.07,1.93-3.36,6.29-.56,8.6l3.78,3.12c4.25,3.51,8.95,6.49,13.99,8.85l.79.37c3.02,1.42,6.52-.65,6.74-3.98l1.43-21.97c.22-3.33-2.99-5.83-6.16-4.82l-.83.26c-5.3,1.69-10.35,4.03-15.02,6.96Z"/>
  <path class="st0" d="M133.7,752.86c5.33-.58,10.71-.86,16.06-.37,4.78.44,9.31,1.57,13.66,3.61,4.1,1.92,8.03,4.21,11.58,7.02,1.35,1.07,2.62,2.2,3.72,3.38.5.54.97,1.09,1.41,1.67.19.25.38.51.56.77.08.12.17.25.25.38.03.05.07.11.1.16.15.24-.06-.11.02.04.28.51.53,1.03.73,1.58.02.06.04.12.06.19.06.18-.07-.37-.02-.06.02.12.05.23.07.35s.03.23.04.34c.03.23-.03.29,0,0-.03.19-.06.41-.07.6.02-.25.09-.28,0-.05-.03.09-.09.17-.12.26.13-.38.11-.16-.02-.01-.05.05-.28.29-.08.1.25-.23-.7.44-.15.12-.7.4-1.13,1.17-.78,1.97.29.68,1.26,1.19,1.97.78,5.77-3.3-.84-10.52-3.77-13.19-3.38-3.08-7.29-5.57-11.33-7.69-2.34-1.23-4.74-2.39-7.25-3.24s-4.99-1.4-7.55-1.77c-6.46-.93-13.07-.64-19.54.07-1.92.21-1.48,3.18.44,2.97h0Z"/>
  <path class="st0" d="M184.76,769.66c-1.16-.34-3.1,1.07-3.1,1.07-.72.15-4.35,5.19-5.06,7.13-1.56,4.3-.93,7.33-.96,8.47,0,.12.09.21.2.21,1.26,0,6.96.86,9.47-6.04.6-1.65-.17-4.02-.17-4.02.2-.27.53.6,2.05,1.98,1.85,1.68,8.35,2.27,10.73,2.11.39-.03.64-.43.49-.8-.77-1.91-3.73-7.19-13.67-10.12Z"/>
  <path class="st0" d="M154.05,766.93c-.68-.08-1.23-.62-1.31-1.33l-1.63-15.52,12.01-10.7c.62-.55,1.57-.5,2.12.12.55.62.5,1.57-.12,2.12l-10.86,9.68,1.47,13.99c.09.82-.51,1.56-1.34,1.65-.12.01-.23.01-.34,0Z"/>
  <path class="st0" d="M165.07,768.31c-.64-.08-1.18-.56-1.3-1.23l-2.3-13.17,11.62-8.24c.68-.48,1.61-.32,2.09.36.48.68.32,1.61-.36,2.09l-10.08,7.14,1.97,11.31c.14.82-.4,1.59-1.22,1.74-.15.03-.3.03-.44.01Z"/>
  <path class="st0" d="M173.5,772.46c-.77-.09-1.35-.77-1.31-1.56l.52-10.65,10.47-4.37c.77-.32,1.64.04,1.96.81.32.77-.04,1.64-.81,1.96l-8.72,3.64-.43,8.76c-.04.83-.74,1.47-1.57,1.42-.04,0-.07,0-.11,0Z"/>
  <path class="st0" d="M279.53,742.45l-4.15,2.6c-3.07,1.93-3.36,6.29-.56,8.6l3.78,3.12c4.25,3.51,8.95,6.49,13.99,8.85l.79.37c3.02,1.42,6.52-.65,6.74-3.98l1.43-21.97c.22-3.33-2.99-5.83-6.16-4.82l-.83.26c-5.3,1.69-10.35,4.03-15.02,6.96Z"/>
  <path class="st0" d="M290.06,752.86c5.33-.58,10.71-.86,16.06-.37,4.78.44,9.31,1.57,13.66,3.61,4.1,1.92,8.03,4.21,11.58,7.02,1.35,1.07,2.62,2.2,3.72,3.38.5.54.97,1.09,1.41,1.67.19.25.38.51.56.77.08.12.17.25.25.38.03.05.07.11.1.16.15.24-.06-.11.02.04.28.51.53,1.03.73,1.58.02.06.04.12.06.19.06.18-.07-.37-.02-.06.02.12.05.23.07.35s.03.23.04.34c.03.23-.03.29,0,0-.03.19-.06.41-.07.6.02-.25.09-.28,0-.05-.03.09-.09.17-.12.26.13-.38.11-.16-.02-.01-.05.05-.28.29-.08.1.25-.23-.7.44-.15.12-.7.4-1.13,1.17-.78,1.97.29.68,1.26,1.19,1.97.78,5.77-3.3-.84-10.52-3.77-13.19-3.38-3.08-7.29-5.57-11.33-7.69-2.34-1.23-4.74-2.39-7.25-3.24s-4.99-1.4-7.55-1.77c-6.46-.93-13.07-.64-19.54.07-1.92.21-1.48,3.18.44,2.97h0Z"/>
  <path class="st0" d="M341.11,769.66c-1.16-.34-3.1,1.07-3.1,1.07-.72.15-4.35,5.19-5.06,7.13-1.56,4.3-.93,7.33-.96,8.47,0,.12.09.21.2.21,1.26,0,6.96.86,9.47-6.04.6-1.65-.17-4.02-.17-4.02.2-.27.53.6,2.05,1.98,1.85,1.68,8.35,2.27,10.73,2.11.39-.03.64-.43.49-.8-.77-1.91-3.73-7.19-13.67-10.12Z"/>
  <path class="st0" d="M310.41,766.93c-.68-.08-1.23-.62-1.31-1.33l-1.63-15.52,12.01-10.7c.62-.55,1.57-.5,2.12.12.55.62.5,1.57-.12,2.12l-10.86,9.68,1.47,13.99c.09.82-.51,1.56-1.34,1.65-.12.01-.23.01-.34,0Z"/>
  <path class="st0" d="M321.43,768.31c-.64-.08-1.18-.56-1.3-1.23l-2.3-13.17,11.62-8.24c.68-.48,1.61-.32,2.09.36.48.68.32,1.61-.36,2.09l-10.08,7.14,1.97,11.31c.14.82-.4,1.59-1.22,1.74-.15.03-.3.03-.44.01Z"/>
  <path class="st0" d="M329.86,772.46c-.77-.09-1.35-.77-1.31-1.56l.52-10.65,10.47-4.37c.77-.32,1.64.04,1.96.81.32.77-.04,1.64-.81,1.96l-8.72,3.64-.43,8.76c-.04.83-.74,1.47-1.57,1.42-.04,0-.07,0-.11,0Z"/>
  <path class="st0" d="M433.65,742.45l-4.15,2.6c-3.07,1.93-3.36,6.29-.56,8.6l3.78,3.12c4.25,3.51,8.95,6.49,13.99,8.85l.79.37c3.02,1.42,6.52-.65,6.74-3.98l1.43-21.97c.22-3.33-2.99-5.83-6.16-4.82l-.83.26c-5.3,1.69-10.35,4.03-15.02,6.96Z"/>
  <path class="st0" d="M444.17,752.86c5.33-.58,10.71-.86,16.06-.37,4.78.44,9.31,1.57,13.66,3.61,4.1,1.92,8.03,4.21,11.58,7.02,1.35,1.07,2.62,2.2,3.72,3.38.5.54.97,1.09,1.41,1.67.19.25.38.51.56.77.08.12.17.25.25.38.03.05.07.11.1.16.15.24-.06-.11.02.04.28.51.53,1.03.73,1.58.02.06.04.12.06.19.06.18-.07-.37-.02-.06.02.12.05.23.07.35s.03.23.04.34c.03.23-.03.29,0,0-.03.19-.06.41-.07.6.02-.25.09-.28,0-.05-.03.09-.09.17-.12.26.13-.38.11-.16-.02-.01-.05.05-.28.29-.08.1.25-.23-.7.44-.15.12-.7.4-1.13,1.17-.78,1.97.29.68,1.26,1.19,1.97.78,5.77-3.3-.84-10.52-3.77-13.19-3.38-3.08-7.29-5.57-11.33-7.69-2.34-1.23-4.74-2.39-7.25-3.24s-4.99-1.4-7.55-1.77c-6.46-.93-13.07-.64-19.54.07-1.92.21-1.48,3.18.44,2.97h0Z"/>
  <path class="st0" d="M495.23,769.66c-1.16-.34-3.1,1.07-3.1,1.07-.72.15-4.35,5.19-5.06,7.13-1.56,4.3-.93,7.33-.96,8.47,0,.12.09.21.2.21,1.26,0,6.96.86,9.47-6.04.6-1.65-.17-4.02-.17-4.02.2-.27.53.6,2.05,1.98,1.85,1.68,8.35,2.27,10.73,2.11.39-.03.64-.43.49-.8-.77-1.91-3.73-7.19-13.67-10.12Z"/>
  <path class="st0" d="M464.53,766.93c-.68-.08-1.23-.62-1.31-1.33l-1.63-15.52,12.01-10.7c.62-.55,1.57-.5,2.12.12.55.62.5,1.57-.12,2.12l-10.86,9.68,1.47,13.99c.09.82-.51,1.56-1.34,1.65-.12.01-.23.01-.34,0Z"/>
  <path class="st0" d="M475.55,768.31c-.64-.08-1.18-.56-1.3-1.23l-2.3-13.17,11.62-8.24c.68-.48,1.61-.32,2.09.36.48.68.32,1.61-.36,2.09l-10.08,7.14,1.97,11.31c.14.82-.4,1.59-1.22,1.74-.15.03-.3.03-.44.01Z"/>
  <path class="st0" d="M483.98,772.46c-.77-.09-1.35-.77-1.31-1.56l.52-10.65,10.47-4.37c.77-.32,1.64.04,1.96.81.32.77-.04,1.64-.81,1.96l-8.72,3.64-.43,8.76c-.04.83-.74,1.47-1.57,1.42-.04,0-.07,0-.11,0Z"/>
  <path class="st0" d="M587.76,742.45l-4.15,2.6c-3.07,1.93-3.36,6.29-.56,8.6l3.78,3.12c4.25,3.51,8.95,6.49,13.99,8.85l.79.37c3.02,1.42,6.52-.65,6.74-3.98l1.43-21.97c.22-3.33-2.99-5.83-6.16-4.82l-.83.26c-5.3,1.69-10.35,4.03-15.02,6.96Z"/>
  <path class="st0" d="M598.29,752.86c5.33-.58,10.71-.86,16.06-.37,4.78.44,9.31,1.57,13.66,3.61,4.1,1.92,8.03,4.21,11.58,7.02,1.35,1.07,2.62,2.2,3.72,3.38.5.54.97,1.09,1.41,1.67.19.25.38.51.56.77.08.12.17.25.25.38.03.05.07.11.1.16.15.24-.06-.11.02.04.28.51.53,1.03.73,1.58.02.06.04.12.06.19.06.18-.07-.37-.02-.06.02.12.05.23.07.35s.03.23.04.34c.03.23-.03.29,0,0-.03.19-.06.41-.07.6.02-.25.09-.28,0-.05-.03.09-.09.17-.12.26.13-.38.11-.16-.02-.01-.05.05-.28.29-.08.1.25-.23-.7.44-.15.12-.7.4-1.13,1.17-.78,1.97.29.68,1.26,1.19,1.97.78,5.77-3.3-.84-10.52-3.77-13.19-3.38-3.08-7.29-5.57-11.33-7.69-2.34-1.23-4.74-2.39-7.25-3.24s-4.99-1.4-7.55-1.77c-6.46-.93-13.07-.64-19.54.07-1.92.21-1.48,3.18.44,2.97h0Z"/>
  <path class="st0" d="M649.34,769.66c-1.16-.34-3.1,1.07-3.1,1.07-.72.15-4.35,5.19-5.06,7.13-1.56,4.3-.93,7.33-.96,8.47,0,.12.09.21.2.21,1.26,0,6.96.86,9.47-6.04.6-1.65-.17-4.02-.17-4.02.2-.27.53.6,2.05,1.98,1.85,1.68,8.35,2.27,10.73,2.11.39-.03.64-.43.49-.8-.77-1.91-3.73-7.19-13.67-10.12Z"/>
  <path class="st0" d="M618.64,766.93c-.68-.08-1.23-.62-1.31-1.33l-1.63-15.52,12.01-10.7c.62-.55,1.57-.5,2.12.12.55.62.5,1.57-.12,2.12l-10.86,9.68,1.47,13.99c.09.82-.51,1.56-1.34,1.65-.12.01-.23.01-.34,0Z"/>
  <path class="st0" d="M629.66,768.31c-.64-.08-1.18-.56-1.3-1.23l-2.3-13.17,11.62-8.24c.68-.48,1.61-.32,2.09.36.48.68.32,1.61-.36,2.09l-10.08,7.14,1.97,11.31c.14.82-.4,1.59-1.22,1.74-.15.03-.3.03-.44.01Z"/>
  <path class="st0" d="M638.09,772.46c-.77-.09-1.35-.77-1.31-1.56l.52-10.65,10.47-4.37c.77-.32,1.64.04,1.96.81.32.77-.04,1.64-.81,1.96l-8.72,3.64-.43,8.76c-.04.83-.74,1.47-1.57,1.42-.04,0-.07,0-.11,0Z"/>
  <path class="st0" d="M741.88,742.45l-4.15,2.6c-3.07,1.93-3.36,6.29-.56,8.6l3.78,3.12c4.25,3.51,8.95,6.49,13.99,8.85l.79.37c3.02,1.42,6.52-.65,6.74-3.98l1.43-21.97c.22-3.33-2.99-5.83-6.16-4.82l-.83.26c-5.3,1.69-10.35,4.03-15.02,6.96Z"/>
  <path class="st0" d="M752.4,752.86c5.33-.58,10.71-.86,16.06-.37,4.78.44,9.31,1.57,13.66,3.61,4.1,1.92,8.03,4.21,11.58,7.02,1.35,1.07,2.62,2.2,3.72,3.38.5.54.97,1.09,1.41,1.67.19.25.38.51.56.77.08.12.17.25.25.38.03.05.07.11.1.16.15.24-.06-.11.02.04.28.51.53,1.03.73,1.58.02.06.04.12.06.19.06.18-.07-.37-.02-.06.02.12.05.23.07.35s.03.23.04.34c.03.23-.03.29,0,0-.03.19-.06.41-.07.6.02-.25.09-.28,0-.05-.03.09-.09.17-.12.26.13-.38.11-.16-.02-.01-.05.05-.28.29-.08.1.25-.23-.7.44-.15.12-.7.4-1.13,1.17-.78,1.97.29.68,1.26,1.19,1.97.78,5.77-3.3-.84-10.52-3.77-13.19-3.38-3.08-7.29-5.57-11.33-7.69-2.34-1.23-4.74-2.39-7.25-3.24s-4.99-1.4-7.55-1.77c-6.46-.93-13.07-.64-19.54.07-1.92.21-1.48,3.18.44,2.97h0Z"/>
  <path class="st0" d="M803.46,769.66c-1.16-.34-3.1,1.07-3.1,1.07-.72.15-4.35,5.19-5.06,7.13-1.56,4.3-.93,7.33-.96,8.47,0,.12.09.21.2.21,1.26,0,6.96.86,9.47-6.04.6-1.65-.17-4.02-.17-4.02.2-.27.53.6,2.05,1.98,1.85,1.68,8.35,2.27,10.73,2.11.39-.03.64-.43.49-.8-.77-1.91-3.73-7.19-13.67-10.12Z"/>
  <path class="st0" d="M772.76,766.93c-.68-.08-1.23-.62-1.31-1.33l-1.63-15.52,12.01-10.7c.62-.55,1.57-.5,2.12.12.55.62.5,1.57-.12,2.12l-10.86,9.68,1.47,13.99c.09.82-.51,1.56-1.34,1.65-.12.01-.23.01-.34,0Z"/>
  <path class="st0" d="M783.78,768.31c-.64-.08-1.18-.56-1.3-1.23l-2.3-13.17,11.62-8.24c.68-.48,1.61-.32,2.09.36.48.68.32,1.61-.36,2.09l-10.08,7.14,1.97,11.31c.14.82-.4,1.59-1.22,1.74-.15.03-.3.03-.44.01Z"/>
  <path class="st0" d="M792.21,772.46c-.77-.09-1.35-.77-1.31-1.56l.52-10.65,10.47-4.37c.77-.32,1.64.04,1.96.81.32.77-.04,1.64-.81,1.96l-8.72,3.64-.43,8.76c-.04.83-.74,1.47-1.57,1.42-.04,0-.07,0-.11,0Z"/>
  <path class="st0" d="M895.99,742.45l-4.15,2.6c-3.07,1.93-3.36,6.29-.56,8.6l3.78,3.12c4.25,3.51,8.95,6.49,13.99,8.85l.79.37c3.02,1.42,6.52-.65,6.74-3.98l1.43-21.97c.22-3.33-2.99-5.83-6.16-4.82l-.83.26c-5.3,1.69-10.35,4.03-15.02,6.96Z"/>
  <path class="st0" d="M906.51,752.86c5.33-.58,10.71-.86,16.06-.37,4.78.44,9.31,1.57,13.66,3.61,4.1,1.92,8.03,4.21,11.58,7.02,1.35,1.07,2.62,2.2,3.72,3.38.5.54.97,1.09,1.41,1.67.19.25.38.51.56.77.08.12.17.25.25.38.03.05.07.11.1.16.15.24-.06-.11.02.04.28.51.53,1.03.73,1.58.02.06.04.12.06.19.06.18-.07-.37-.02-.06.02.12.05.23.07.35s.03.23.04.34c.03.23-.03.29,0,0-.03.19-.06.41-.07.6.02-.25.09-.28,0-.05-.03.09-.09.17-.12.26.13-.38.11-.16-.02-.01-.05.05-.28.29-.08.1.25-.23-.7.44-.15.12-.7.4-1.13,1.17-.78,1.97.29.68,1.26,1.19,1.97.78,5.77-3.3-.84-10.52-3.77-13.19-3.38-3.08-7.29-5.57-11.33-7.69-2.34-1.23-4.74-2.39-7.25-3.24s-4.99-1.4-7.55-1.77c-6.46-.93-13.07-.64-19.54.07-1.92.21-1.48,3.18.44,2.97h0Z"/>
  <path class="st0" d="M957.57,769.66c-1.16-.34-3.1,1.07-3.1,1.07-.72.15-4.35,5.19-5.06,7.13-1.56,4.3-.93,7.33-.96,8.47,0,.12.09.21.2.21,1.26,0,6.96.86,9.47-6.04.6-1.65-.17-4.02-.17-4.02.2-.27.53.6,2.05,1.98,1.85,1.68,8.35,2.27,10.73,2.11.39-.03.64-.43.49-.8-.77-1.91-3.73-7.19-13.67-10.12Z"/>
  <path class="st0" d="M926.87,766.93c-.68-.08-1.23-.62-1.31-1.33l-1.63-15.52,12.01-10.7c.62-.55,1.57-.5,2.12.12.55.62.5,1.57-.12,2.12l-10.86,9.68,1.47,13.99c.09.82-.51,1.56-1.34,1.65-.12.01-.23.01-.34,0Z"/>
  <path class="st0" d="M937.89,768.31c-.64-.08-1.18-.56-1.3-1.23l-2.3-13.17,11.62-8.24c.68-.48,1.61-.32,2.09.36.48.68.32,1.61-.36,2.09l-10.08,7.14,1.97,11.31c.14.82-.4,1.59-1.22,1.74-.15.03-.3.03-.44.01Z"/>
  <path class="st0" d="M946.32,772.46c-.77-.09-1.35-.77-1.31-1.56l.52-10.65,10.47-4.37c.77-.32,1.64.04,1.96.81.32.77-.04,1.64-.81,1.96l-8.72,3.64-.43,8.76c-.04.83-.74,1.47-1.57,1.42-.04,0-.07,0-.11,0Z"/>
  <path class="st0" d="M1050.1,742.45l-4.15,2.6c-3.07,1.93-3.36,6.29-.56,8.6l3.78,3.12c4.25,3.51,8.95,6.49,13.99,8.85l.79.37c3.02,1.42,6.52-.65,6.74-3.98l1.43-21.97c.22-3.33-2.99-5.83-6.16-4.82l-.83.26c-5.3,1.69-10.35,4.03-15.02,6.96Z"/>
  <path class="st0" d="M1060.63,752.86c5.33-.58,10.71-.86,16.06-.37,4.78.44,9.31,1.57,13.66,3.61,4.1,1.92,8.03,4.21,11.58,7.02,1.35,1.07,2.62,2.2,3.72,3.38.5.54.97,1.09,1.41,1.67.19.25.38.51.56.77.08.12.17.25.25.38.03.05.07.11.1.16.15.24-.06-.11.02.04.28.51.53,1.03.73,1.58.02.06.04.12.06.19.06.18-.07-.37-.02-.06.02.12.05.23.07.35s.03.23.04.34c.03.23-.03.29,0,0-.03.19-.06.41-.07.6.02-.25.09-.28,0-.05-.03.09-.09.17-.12.26.13-.38.11-.16-.02-.01-.05.05-.28.29-.08.1.25-.23-.7.44-.15.12-.7.4-1.13,1.17-.78,1.97.29.68,1.26,1.19,1.97.78,5.77-3.3-.84-10.52-3.77-13.19-3.38-3.08-7.29-5.57-11.33-7.69-2.34-1.23-4.74-2.39-7.25-3.24s-4.99-1.4-7.55-1.77c-6.46-.93-13.07-.64-19.54.07-1.92.21-1.48,3.18.44,2.97h0Z"/>
  <path class="st0" d="M1111.69,769.66c-1.16-.34-3.1,1.07-3.1,1.07-.72.15-4.35,5.19-5.06,7.13-1.56,4.3-.93,7.33-.96,8.47,0,.12.09.21.2.21,1.26,0,6.96.86,9.47-6.04.6-1.65-.17-4.02-.17-4.02.2-.27.53.6,2.05,1.98,1.85,1.68,8.35,2.27,10.73,2.11.39-.03.64-.43.49-.8-.77-1.91-3.73-7.19-13.67-10.12Z"/>
  <path class="st0" d="M1080.99,766.93c-.68-.08-1.23-.62-1.31-1.33l-1.63-15.52,12.01-10.7c.62-.55,1.57-.5,2.12.12.55.62.5,1.57-.12,2.12l-10.86,9.68,1.47,13.99c.09.82-.51,1.56-1.34,1.65-.12.01-.23.01-.34,0Z"/>
  <path class="st0" d="M1092.01,768.31c-.64-.08-1.18-.56-1.3-1.23l-2.3-13.17,11.62-8.24c.68-.48,1.61-.32,2.09.36.48.68.32,1.61-.36,2.09l-10.08,7.14,1.97,11.31c.14.82-.4,1.59-1.22,1.74-.15.03-.3.03-.44.01Z"/>
  <path class="st0" d="M1100.44,772.46c-.77-.09-1.35-.77-1.31-1.56l.52-10.65,10.47-4.37c.77-.32,1.64.04,1.96.81.32.77-.04,1.64-.81,1.96l-8.72,3.64-.43,8.76c-.04.83-.74,1.47-1.57,1.42-.04,0-.07,0-.11,0Z"/>
  <path class="st0" d="M1204.22,742.45l-4.15,2.6c-3.07,1.93-3.36,6.29-.56,8.6l3.78,3.12c4.25,3.51,8.95,6.49,13.99,8.85l.79.37c3.02,1.42,6.52-.65,6.74-3.98l1.43-21.97c.22-3.33-2.99-5.83-6.16-4.82l-.83.26c-5.3,1.69-10.35,4.03-15.02,6.96Z"/>
  <path class="st0" d="M1214.74,752.86c5.33-.58,10.71-.86,16.06-.37,4.78.44,9.31,1.57,13.66,3.61,4.1,1.92,8.03,4.21,11.58,7.02,1.35,1.07,2.62,2.2,3.72,3.38.5.54.97,1.09,1.41,1.67.19.25.38.51.56.77.08.12.17.25.25.38.03.05.07.11.1.16.15.24-.06-.11.02.04.28.51.53,1.03.73,1.58.02.06.04.12.06.19.06.18-.07-.37-.02-.06.02.12.05.23.07.35s.03.23.04.34c.03.23-.03.29,0,0-.03.19-.06.41-.07.6.02-.25.09-.28,0-.05-.03.09-.09.17-.12.26.13-.38.11-.16-.02-.01-.05.05-.28.29-.08.1.25-.23-.7.44-.15.12-.7.4-1.13,1.17-.78,1.97.29.68,1.26,1.19,1.97.78,5.77-3.3-.84-10.52-3.77-13.19-3.38-3.08-7.29-5.57-11.33-7.69-2.34-1.23-4.74-2.39-7.25-3.24s-4.99-1.4-7.55-1.77c-6.46-.93-13.07-.64-19.54.07-1.92.21-1.48,3.18.44,2.97h0Z"/>
  <path class="st0" d="M1265.8,769.66c-1.16-.34-3.1,1.07-3.1,1.07-.72.15-4.35,5.19-5.06,7.13-1.56,4.3-.93,7.33-.96,8.47,0,.12.09.21.2.21,1.26,0,6.96.86,9.47-6.04.6-1.65-.17-4.02-.17-4.02.2-.27.53.6,2.05,1.98,1.85,1.68,8.35,2.27,10.73,2.11.39-.03.64-.43.49-.8-.77-1.91-3.73-7.19-13.67-10.12Z"/>
  <path class="st0" d="M1235.1,766.93c-.68-.08-1.23-.62-1.31-1.33l-1.63-15.52,12.01-10.7c.62-.55,1.57-.5,2.12.12.55.62.5,1.57-.12,2.12l-10.86,9.68,1.47,13.99c.09.82-.51,1.56-1.34,1.65-.12.01-.23.01-.34,0Z"/>
  <path class="st0" d="M1246.12,768.31c-.64-.08-1.18-.56-1.3-1.23l-2.3-13.17,11.62-8.24c.68-.48,1.61-.32,2.09.36.48.68.32,1.61-.36,2.09l-10.08,7.14,1.97,11.31c.14.82-.4,1.59-1.22,1.74-.15.03-.3.03-.44.01Z"/>
  <path class="st0" d="M1254.55,772.46c-.77-.09-1.35-.77-1.31-1.56l.52-10.65,10.47-4.37c.77-.32,1.64.04,1.96.81.32.77-.04,1.64-.81,1.96l-8.72,3.64-.43,8.76c-.04.83-.74,1.47-1.57,1.42-.04,0-.07,0-.11,0Z"/>
</svg>