<?xml version="1.0" encoding="UTF-8"?>
<svg id="_레이어_1" data-name=" 레이어 1" xmlns="http://www.w3.org/2000/svg" viewBox="0 0 169.15 211.52">
  <defs>
    <style>
      .cls-1 {
        fill: none;
      }

      .cls-2 {
        fill: #edf2f8;
      }
    </style>
  </defs>
  <path class="cls-2" d="M93.86,104.09l-4.15,2.6c-3.07,1.93-3.36,6.29-.56,8.6l3.78,3.12c4.25,3.51,8.95,6.49,13.99,8.85l.79.37c3.02,1.42,6.52-.65,6.74-3.98l1.43-21.97c.22-3.33-2.99-5.83-6.16-4.82l-.83.26c-5.3,1.69-10.35,4.03-15.02,6.96h0Z"/>
  <path class="cls-2" d="M104.39,114.5c5.33-.58,10.71-.86,16.06-.37,4.78.44,9.31,1.57,13.66,3.61,4.1,1.92,8.03,4.21,11.58,7.02,1.35,1.07,2.62,2.2,3.72,3.38.5.54.97,1.09,1.41,1.67.19.25.38.51.56.77.08.12.17.25.25.38.03.05.07.11.1.16.15.24-.06-.11.02.04.28.51.53,1.03.73,1.58.02.06.04.12.06.19.06.18-.07-.37-.02-.06.02.12.05.23.07.35s.03.23.04.34c.03.23-.03.29,0,0-.03.19-.06.41-.07.6.02-.25.09-.28,0-.05-.03.09-.09.17-.12.26.13-.38.11-.16-.02,0-.05.05-.28.29-.08.1.25-.23-.7.44-.15.12-.7.4-1.13,1.17-.78,1.97.29.68,1.26,1.19,1.97.78,5.77-3.3-.84-10.52-3.77-13.19-3.38-3.08-7.29-5.57-11.33-7.69-2.34-1.23-4.74-2.39-7.25-3.24s-4.99-1.4-7.55-1.77c-6.46-.93-13.07-.64-19.54.07-1.92.21-1.48,3.18.44,2.97h0v.02Z"/>
  <path class="cls-2" d="M155.45,131.29c-1.16-.34-3.1,1.07-3.1,1.07-.72.15-4.35,5.19-5.06,7.13-1.56,4.3-.93,7.33-.96,8.47,0,.12.09.21.2.21,1.26,0,6.96.86,9.47-6.04.6-1.65-.17-4.02-.17-4.02.2-.27.53.6,2.05,1.98,1.85,1.68,8.35,2.27,10.73,2.11.39-.03.64-.43.49-.8-.77-1.91-3.73-7.19-13.67-10.12h.02Z"/>
  <path class="cls-2" d="M124.74,128.57c-.68-.08-1.23-.62-1.31-1.33l-1.63-15.52,12.01-10.7c.62-.55,1.57-.5,2.12.12.55.62.5,1.57-.12,2.12l-10.86,9.68,1.47,13.99c.09.82-.51,1.56-1.34,1.65-.12,0-.23,0-.34,0h0Z"/>
  <path class="cls-2" d="M135.76,129.94c-.64-.08-1.18-.56-1.3-1.23l-2.3-13.17,11.62-8.24c.68-.48,1.61-.32,2.09.36.48.68.32,1.61-.36,2.09l-10.08,7.14,1.97,11.31c.14.82-.4,1.59-1.22,1.74-.15.03-.3.03-.44,0h.02Z"/>
  <path class="cls-2" d="M144.19,134.1c-.77-.09-1.35-.77-1.31-1.56l.52-10.65,10.47-4.37c.77-.32,1.64.04,1.96.81s-.04,1.64-.81,1.96l-8.72,3.64-.43,8.76c-.04.83-.74,1.47-1.57,1.42h-.11Z"/>
  <g>
    <path class="cls-1" d="M37.74,22.03c-1.78.64-.57,3.34.51,4.16h.01s-1.31,3.71-1.31,3.71l.5.18,1.31-3.7s.37.13.77,0c1.1-.36,3.14-1.31,2.44-2.79-.37-.78-3.43-1.84-4.23-1.56Z"/>
    <path class="cls-1" d="M30.83,5.82c-4.38-1.55-9.19.74-10.74,5.12-1.55,4.38.74,9.19,5.12,10.74s9.19-.74,10.74-5.12-.74-9.19-5.12-10.74ZM28.11,21.45c-3.83,0-6.94-3.11-6.94-6.94s3.11-6.94,6.94-6.94,6.94,3.11,6.94,6.94-3.11,6.94-6.94,6.94Z"/>
    <path class="cls-1" d="M36.09,1.86c1.81.72,3.93.99,5.79,1.56,4.77,1.47,9.36,3.45,13.91,5.43L63.29,0h-27.35c.02.45.03.9.06,1.34l.1.52Z"/>
    <path class="cls-1" d="M56.62,14.98c-4.37-1.55-9.18.74-10.73,5.11s.74,9.18,5.11,10.73c4.37,1.55,9.18-.74,10.73-5.11,1.55-4.37-.74-9.18-5.11-10.73ZM54.09,30.67c-3.83,0-6.94-3.11-6.94-6.94s3.11-6.94,6.94-6.94,6.94,3.11,6.94,6.94-3.11,6.94-6.94,6.94Z"/>
    <path class="cls-2" d="M77.19,0h-13.9l-7.5,8.85c-4.55-1.98-9.14-3.96-13.91-5.43-1.86-.57-3.98-.84-5.79-1.56l-.1-.52c-.03-.44-.04-.89-.06-1.34H11.88C7.49,7.46,3.67,15.22.76,21.91c-1.49,3.45-.91,6.45,2.72,8.07l60.08,21.32c6.49,1.41,6.71-4.06,7.9-8.67,3.47-13.46,5.93-27.05,5.75-41.05,0-.43-.01-.98-.02-1.58ZM35.95,16.56c-1.55,4.38-6.36,6.67-10.74,5.12s-6.67-6.36-5.12-10.74c1.55-4.38,6.36-6.67,10.74-5.12,4.38,1.55,6.67,6.36,5.12,10.74ZM39.53,26.38c-.4.13-.77,0-.77,0l-1.31,3.7-.5-.18,1.31-3.7h-.01c-1.08-.83-2.29-3.53-.51-4.17.8-.28,3.86.78,4.23,1.56.7,1.48-1.34,2.43-2.44,2.79ZM61.73,25.71c-1.55,4.37-6.36,6.66-10.73,5.11-4.37-1.55-6.66-6.36-5.11-10.73s6.36-6.66,10.73-5.11c4.37,1.55,6.66,6.36,5.11,10.73Z"/>
    <circle class="cls-2" cx="54.09" cy="23.73" r="6.94"/>
    <circle class="cls-2" cx="28.11" cy="14.51" r="6.94"/>
  </g>
  <path class="cls-2" d="M77.02,205.28c-1.27-3.93-6.08-2.33-8.07-.02l-5.3,6.26h13.9c-.03-2.11-.11-4.94-.53-6.24Z"/>
  <path class="cls-2" d="M36.07,194.4c-.09-1.46-.45-3.56-1.29-4.77v.02c-1.93-2.75-4.51-1.87-6.5.11-5.72,5.69-11.22,13.55-16.05,21.76h24.06c-.22-5.66.14-11.54-.22-17.12Z"/>
</svg>