<?xml version="1.0" encoding="UTF-8"?>
<svg id="_레이어_1" data-name="레이어 1" xmlns="http://www.w3.org/2000/svg" viewBox="0 0 64.53 64.53">
  <defs>
    <style>
      .cls-1 {
        stroke: #fff;
      }

      .cls-1, .cls-2, .cls-3 {
        fill: #333;
      }

      .cls-1, .cls-2, .cls-4 {
        stroke-linecap: round;
        stroke-linejoin: round;
      }

      .cls-2 {
        stroke: #c1c1c1;
      }

      .cls-5 {
        fill: #3a3a3a;
      }

      .cls-6 {
        fill: #fff;
      }

      .cls-7 {
        fill: #2b2c2d;
      }

      .cls-4 {
        fill: #c1c1c1;
        stroke: #333;
      }
    </style>
  </defs>
  <ellipse class="cls-7" cx="31.5" cy="39.28" rx="23" ry="5.81"/>
  <path class="cls-3" d="M21.05,40.25l10.44-2.37,11.99,2.37c10.24,0,18.4,8.55,17.92,18.78l.94,18.22H2.19l.94-18.22c-.48-10.23,7.69-18.78,17.92-18.78Z"/>
  <path class="cls-5" d="M20.72,43.23l10.49,4.59,14.96-5.22c2.56,0,2.31-3,4.5-2.04,6.59,2.88,11.09,9.61,10.74,17.28l.94,18.22H2.19l.94-18.22c-.32-6.83,3.22-12.91,8.65-16.2,2.7-1.64,5.54,1.59,8.94,1.59Z"/>
  <path class="cls-3" d="M38.89,41.64h-15.68c-7.16,0-12.87-5.44-12.54-11.94l2.43-11.58h35.89l2.43,11.58c.33,6.5-5.38,11.94-12.54,11.94Z"/>
  <ellipse class="cls-3" cx="31.2" cy="23.89" rx="18.18" ry="11.28"/>
  <path class="cls-6" d="M32.87,33.16l-.34.32c-.77.73-1.99.69-2.72-.08l-.32-.34c-.56-.6-.12-1.57.7-1.55l2.09.06c.82.02,1.2,1.03.6,1.59Z"/>
  <path class="cls-6" d="M19.54,24.49c-.16.62-.25,1.29-.25,1.98,0,3.39,2.03,6.13,4.53,6.13s4.53-2.75,4.53-6.13c0-.69-.09-1.36-.25-1.98h-8.57Z"/>
  <path class="cls-3" d="M12.72,20.73l1.25-12.84c.34-1.73,2.24-2.66,3.82-1.87l10.91,6.88"/>
  <path class="cls-3" d="M49.6,20.94l-.87-12.87c-.29-1.74-2.16-2.72-3.76-1.98l-11.11,6.56"/>
  <path class="cls-4" d="M14.35,19.81l.99-10.18c.27-1.37,1.78-2.11,3.03-1.48l8.65,5.46"/>
  <path class="cls-4" d="M48,19.98l-.69-10.21c-.23-1.38-1.71-2.16-2.98-1.57l-8.81,5.2"/>
  <path class="cls-3" d="M13.02,23.27c0-5.89,8.14-10.66,18.18-10.66s18.18,4.77,18.18,10.66"/>
  <path class="cls-5" d="M27.03,48.19l-17.12-2.7c-1.77-.28-2.94-1.46-2.25-2.25l1.19-1.37c.19-.22.25-.48.16-.76l-.53-1.73c-.31-1.01,1.24-1.61,2.97-1.15l19.37,7.94c1.26.33.39,1.65.39,1.65-.7.81-2.89.58-4.18.38Z"/>
  <path class="cls-5" d="M34.45,48.31l18.52-2.95c1.82-.29,3.04-1.48,2.33-2.27l-1.21-1.36c-.19-.22-.25-.48-.16-.76l.56-1.74c.33-1.01-1.26-1.61-3.05-1.14l-19.44,8.24c-1.29.34-.51,1.58-.51,1.58.31.43,1.64.61,2.96.4Z"/>
  <path class="cls-2" d="M10.22,42.27s7.04,1.83,7.86,1.92"/>
  <path class="cls-2" d="M11.44,38.22s19.01,7.89,19.37,7.94"/>
  <path class="cls-2" d="M52.41,45.41s-9.49,2.36-10.32,2.45"/>
  <path class="cls-2" d="M52.41,38.07s-21.17,7.64-21.6,8.1"/>
  <line class="cls-1" x1="23.83" y1="46.63" x2="23.83" y2="54.77"/>
  <line class="cls-1" x1="37.23" y1="46.63" x2="37.23" y2="54.77"/>
  <rect class="cls-6" x="22.68" y="52.28" width="2.29" height="3.29" rx="1.11" ry="1.11"/>
  <rect class="cls-6" x="36.08" y="52.28" width="2.29" height="3.29" rx="1.11" ry="1.11"/>
  <ellipse class="cls-6" cx="23.83" cy="24.76" rx="4.33" ry="1.96"/>
  <ellipse class="cls-3" cx="23.83" cy="25.3" rx="3.24" ry="1.42"/>
  <path class="cls-3" d="M20.64,25.1c-.12.46-.18.96-.18,1.47,0,2.52,1.51,4.56,3.37,4.56s3.37-2.04,3.37-4.56c0-.52-.07-1.01-.18-1.47h-6.38Z"/>
  <path class="cls-6" d="M34.31,24.49c-.16.62-.25,1.29-.25,1.98,0,3.39,2.03,6.13,4.53,6.13s4.53-2.75,4.53-6.13c0-.69-.09-1.36-.25-1.98h-8.57Z"/>
  <ellipse class="cls-6" cx="38.59" cy="24.76" rx="4.33" ry="1.96"/>
  <ellipse class="cls-3" cx="38.59" cy="25.3" rx="3.24" ry="1.42"/>
  <path class="cls-3" d="M35.4,25.1c-.12.46-.18.96-.18,1.47,0,2.52,1.51,4.56,3.37,4.56s3.37-2.04,3.37-4.56c0-.52-.07-1.01-.18-1.47h-6.38Z"/>
</svg>