<svg xmlns="http://www.w3.org/2000/svg" width="24" height="24" viewBox="0 0 24 24" fill="none">
<path d="M12 21V19" stroke="#DBDBDB" stroke-width="2" stroke-linecap="round" stroke-linejoin="round"/>
<path d="M5 4L20 19" stroke="#DBDBDB" stroke-width="2" stroke-linecap="round"/>
<path d="M13.5615 14.6826C13.0817 14.8864 12.5542 15 12 15C11.4455 15 10.9176 14.8866 10.4375 14.6826L12 13.1211L13.5615 14.6826ZM9.87891 11L8.31641 12.5615C8.11277 12.0817 8 11.5541 8 11V9.12109L9.87891 11ZM16 11C16 11.5542 15.8864 12.0817 15.6826 12.5615L14.1211 11L16 9.12109V11ZM12 2C13.8652 2 15.4313 3.27681 15.874 5.00391L12 8.87891L8.125 5.00391C8.56768 3.2767 10.1348 2 12 2Z" fill="#DBDBDB"/>
<path d="M19 4L4 19" stroke="#DBDBDB" stroke-width="2" stroke-linecap="round"/>
<path d="M16.4951 17.6162C15.1783 18.5107 13.6147 19 12 19C10.385 19 8.82088 18.511 7.50391 17.6162L8.95312 16.167C9.86865 16.7071 10.9189 17 12 17C13.0808 17 14.1305 16.7068 15.0459 16.167L16.4951 17.6162ZM19 10C19.5523 10 20 10.4477 20 11C20 12.6147 19.5107 14.1783 18.6162 15.4951L17.167 14.0459C17.7068 13.1305 18 12.0808 18 11C18 10.4477 18.4477 10 19 10ZM5 10C5.55228 10 6 10.4477 6 11C6 12.0806 6.29239 13.1306 6.83203 14.0459L5.38281 15.4951C4.48855 14.1784 4 12.6145 4 11C4 10.4477 4.44772 10 5 10Z" fill="#DBDBDB"/>
</svg>