<?xml version="1.0" encoding="UTF-8"?>
<svg id="_레이어_1" data-name="레이어_1" xmlns="http://www.w3.org/2000/svg" xmlns:xlink="http://www.w3.org/1999/xlink" version="1.1" viewBox="0 0 300 300">
  <!-- Generator: Adobe Illustrator 29.3.1, SVG Export Plug-In . SVG Version: 2.1.0 Build 151)  -->
  <defs>
    <style>
      .st0 {
        fill: none;
        stroke: #2b8eff;
        stroke-miterlimit: 10;
        stroke-width: 5px;
      }

      .st1 {
        fill: #2b8eff;
      }
    </style>
  </defs>
  <path class="st0" d="M-.3,68.7h64.8c15.9,0,34.6,2.6,48.1-5.7,21.1-13,30.7-33.7,54.3-36.9s35.5-1.1,45.7,9.8c15.2,16.2,13.6,32.6,13.6,36.1,0,8.8,36.4.4,47.4,26.5,12.6,29.7-11.7,44.8-10.9,52.5,0,10,19.2,20.7,14.3,48.6-6.1,34.5-44.4,31.5-53.1,31.5s7.3,24.4-18.4,38.6c-29.9,16.5-64.4-12.3-71.2-17.5s-9-6.1-14.6-9.4c-13.1-7.6-28-11.7-43.1-11.7H-.3"/>
  <path class="st1" d="M230.2,142.7c8-1.2,15.4-4.8,21.3-10.4,8.7-7.9,9.6-21.8,1.9-31-1.7-2.1-3.8-3.8-6.1-5.1-14.6-9-38.4-4.6-48.8,9-16.2,22.5,9.1,41.9,31.7,37.5Z"/>
  <path class="st1" d="M175,92.3c11.6-2.4,21.6-9.7,27.5-19.9,5.2-8.8,2.2-20.1-6.6-25.3-1.6-1-3.4-1.7-5.3-2.1-19.7-4.9-49.9,11.6-46.2,33.5,3.2,13.4,17.4,17,30.6,13.8Z"/>
  <path class="st1" d="M135.8,209.5c6.7-5.5,13.7-17.2,21.5-22.9,5.1-3.7,10.4-3.7,16.3-8.6,9.1-7.6,14.2-17.7,14.2-28.1,0-10.2-4.8-20.1-13.6-27.7-6.7-5.7-12.9-6.4-18.8-10.7-7.1-5.2-13.6-16.5-20-21.7-22.4-19.6-66.3-4.8-65.2,21.2.3,11.1,5.7,20.7,8.1,31.2,2.1,10.4-.6,20.2-4.5,31.9-2.6,5.8-3.7,12-3.3,18.1,2.2,24.5,44.7,36.1,65.3,17.4Z"/>
  <path class="st1" d="M204.3,230.3c-6-15.2-22.3-23.4-38.5-23.5-19.4-.3-29.6,19.3-15.2,34.7,6.1,6.6,14.1,11.1,22.9,13,17.5,4.3,36.6-5.5,30.8-24.2Z"/>
  <path class="st1" d="M220.7,211.3c24.2,6.2,49.7-14.2,32.2-37.9-10.7-12.9-32.9-17.1-47.4-8.8-24.2,14.5-7.6,43,15.3,46.7Z"/>
  <g id="Pebg0V">
    <image id="Pebg0V1" data-name="Pebg0V" width="1000" height="914" transform="translate(-532.7 -145.8) scale(.4)" xlink:href="발바닥-1.png"/>
  </g>
</svg>