<svg xmlns="http://www.w3.org/2000/svg" width="25" height="24" viewBox="0 0 25 24" fill="none">
<path d="M4.5 14L3.79289 13.2929L3.08578 14L3.79289 14.7071L4.5 14ZM21.5 6C21.5 5.44772 21.0523 5 20.5 5C19.9477 5 19.5 5.44772 19.5 6L21.5 6ZM9.5 9L8.79289 8.29289L3.79289 13.2929L4.5 14L5.20711 14.7071L10.2071 9.70711L9.5 9ZM4.5 14L3.79289 14.7071L8.79289 19.7071L9.5 19L10.2071 18.2929L5.20711 13.2929L4.5 14ZM4.5 14L4.5 15L14.5 15L14.5 14L14.5 13L4.5 13L4.5 14ZM20.5 8L21.5 8L21.5 6L20.5 6L19.5 6L19.5 8L20.5 8ZM14.5 14L14.5 15C18.366 15 21.5 11.866 21.5 8L20.5 8L19.5 8C19.5 10.7614 17.2614 13 14.5 13L14.5 14Z" fill="black"/>
</svg>